<?xml version="1.0" encoding="utf-8" standalone="no"?>
<!DOCTYPE svg PUBLIC "-//W3C//DTD SVG 1.1//EN"
  "http://www.w3.org/Graphics/SVG/1.1/DTD/svg11.dtd">
<svg xmlns:xlink="http://www.w3.org/1999/xlink" width="608.98125pt" height="392.514375pt" viewBox="0 0 608.98125 392.514375" xmlns="http://www.w3.org/2000/svg" version="1.1">
 <metadata>
  <rdf:RDF xmlns:dc="http://purl.org/dc/elements/1.1/" xmlns:cc="http://creativecommons.org/ns#" xmlns:rdf="http://www.w3.org/1999/02/22-rdf-syntax-ns#">
   <cc:Work>
    <dc:type rdf:resource="http://purl.org/dc/dcmitype/StillImage"/>
    <dc:date>2026-04-17T07:20:26.358000</dc:date>
    <dc:format>image/svg+xml</dc:format>
    <dc:creator>
     <cc:Agent>
      <dc:title>Matplotlib v3.10.8, https://matplotlib.org/</dc:title>
     </cc:Agent>
    </dc:creator>
   </cc:Work>
  </rdf:RDF>
 </metadata>
 <defs>
  <style type="text/css">*{stroke-linejoin: round; stroke-linecap: butt}</style>
 </defs>
 <g id="figure_1">
  <g id="patch_1">
   <path d="M 0 392.514375 
L 608.98125 392.514375 
L 608.98125 0 
L 0 0 
z
" style="fill: #ffffff"/>
  </g>
  <g id="axes_1">
   <g id="patch_2">
    <path d="M 43.78125 354.958125 
L 601.78125 354.958125 
L 601.78125 22.318125 
L 43.78125 22.318125 
z
" style="fill: #ffffff"/>
   </g>
   <g id="patch_3">
    <path d="M 69.148128 354.958125 
L 79.293518 354.958125 
L 79.293518 229.012397 
L 69.148128 229.012397 
z
" clip-path="url(#p2354bcafec)" style="fill: #1f77b4; opacity: 0.3"/>
   </g>
   <g id="patch_4">
    <path d="M 79.293518 354.958125 
L 89.438907 354.958125 
L 89.438907 256.337626 
L 79.293518 256.337626 
z
" clip-path="url(#p2354bcafec)" style="fill: #1f77b4; opacity: 0.3"/>
   </g>
   <g id="patch_5">
    <path d="M 89.438907 354.958125 
L 99.584297 354.958125 
L 99.584297 265.353565 
L 89.438907 265.353565 
z
" clip-path="url(#p2354bcafec)" style="fill: #1f77b4; opacity: 0.3"/>
   </g>
   <g id="patch_6">
    <path d="M 99.584297 354.958125 
L 109.729687 354.958125 
L 109.729687 288.101472 
L 99.584297 288.101472 
z
" clip-path="url(#p2354bcafec)" style="fill: #1f77b4; opacity: 0.3"/>
   </g>
   <g id="patch_7">
    <path d="M 109.729687 354.958125 
L 119.875077 354.958125 
L 119.875077 300.307666 
L 109.729687 300.307666 
z
" clip-path="url(#p2354bcafec)" style="fill: #1f77b4; opacity: 0.3"/>
   </g>
   <g id="patch_8">
    <path d="M 119.875077 354.958125 
L 130.020466 354.958125 
L 130.020466 309.739725 
L 119.875077 309.739725 
z
" clip-path="url(#p2354bcafec)" style="fill: #1f77b4; opacity: 0.3"/>
   </g>
   <g id="patch_9">
    <path d="M 130.020466 354.958125 
L 140.165856 354.958125 
L 140.165856 315.704115 
L 130.020466 315.704115 
z
" clip-path="url(#p2354bcafec)" style="fill: #1f77b4; opacity: 0.3"/>
   </g>
   <g id="patch_10">
    <path d="M 140.165856 354.958125 
L 150.311246 354.958125 
L 150.311246 325.552294 
L 140.165856 325.552294 
z
" clip-path="url(#p2354bcafec)" style="fill: #1f77b4; opacity: 0.3"/>
   </g>
   <g id="patch_11">
    <path d="M 150.311246 354.958125 
L 160.456635 354.958125 
L 160.456635 326.939362 
L 150.311246 326.939362 
z
" clip-path="url(#p2354bcafec)" style="fill: #1f77b4; opacity: 0.3"/>
   </g>
   <g id="patch_12">
    <path d="M 160.456635 354.958125 
L 170.602025 354.958125 
L 170.602025 333.181165 
L 160.456635 333.181165 
z
" clip-path="url(#p2354bcafec)" style="fill: #1f77b4; opacity: 0.3"/>
   </g>
   <g id="patch_13">
    <path d="M 170.602025 354.958125 
L 180.747415 354.958125 
L 180.747415 338.590729 
L 170.602025 338.590729 
z
" clip-path="url(#p2354bcafec)" style="fill: #1f77b4; opacity: 0.3"/>
   </g>
   <g id="patch_14">
    <path d="M 180.747415 354.958125 
L 190.892805 354.958125 
L 190.892805 340.393916 
L 180.747415 340.393916 
z
" clip-path="url(#p2354bcafec)" style="fill: #1f77b4; opacity: 0.3"/>
   </g>
   <g id="patch_15">
    <path d="M 190.892805 354.958125 
L 201.038194 354.958125 
L 201.038194 344.555119 
L 190.892805 344.555119 
z
" clip-path="url(#p2354bcafec)" style="fill: #1f77b4; opacity: 0.3"/>
   </g>
   <g id="patch_16">
    <path d="M 201.038194 354.958125 
L 211.183584 354.958125 
L 211.183584 345.664773 
L 201.038194 345.664773 
z
" clip-path="url(#p2354bcafec)" style="fill: #1f77b4; opacity: 0.3"/>
   </g>
   <g id="patch_17">
    <path d="M 211.183584 354.958125 
L 221.328974 354.958125 
L 221.328974 346.774427 
L 211.183584 346.774427 
z
" clip-path="url(#p2354bcafec)" style="fill: #1f77b4; opacity: 0.3"/>
   </g>
   <g id="patch_18">
    <path d="M 221.328974 354.958125 
L 231.474363 354.958125 
L 231.474363 349.132442 
L 221.328974 349.132442 
z
" clip-path="url(#p2354bcafec)" style="fill: #1f77b4; opacity: 0.3"/>
   </g>
   <g id="patch_19">
    <path d="M 231.474363 354.958125 
L 241.619753 354.958125 
L 241.619753 349.687269 
L 231.474363 349.687269 
z
" clip-path="url(#p2354bcafec)" style="fill: #1f77b4; opacity: 0.3"/>
   </g>
   <g id="patch_20">
    <path d="M 241.619753 354.958125 
L 251.765143 354.958125 
L 251.765143 350.935629 
L 241.619753 350.935629 
z
" clip-path="url(#p2354bcafec)" style="fill: #1f77b4; opacity: 0.3"/>
   </g>
   <g id="patch_21">
    <path d="M 251.765143 354.958125 
L 261.910533 354.958125 
L 261.910533 350.103389 
L 251.765143 350.103389 
z
" clip-path="url(#p2354bcafec)" style="fill: #1f77b4; opacity: 0.3"/>
   </g>
   <g id="patch_22">
    <path d="M 261.910533 354.958125 
L 272.055922 354.958125 
L 272.055922 351.629163 
L 261.910533 351.629163 
z
" clip-path="url(#p2354bcafec)" style="fill: #1f77b4; opacity: 0.3"/>
   </g>
   <g id="patch_23">
    <path d="M 272.055922 354.958125 
L 282.201312 354.958125 
L 282.201312 353.432351 
L 272.055922 353.432351 
z
" clip-path="url(#p2354bcafec)" style="fill: #1f77b4; opacity: 0.3"/>
   </g>
   <g id="patch_24">
    <path d="M 282.201312 354.958125 
L 292.346702 354.958125 
L 292.346702 353.571058 
L 282.201312 353.571058 
z
" clip-path="url(#p2354bcafec)" style="fill: #1f77b4; opacity: 0.3"/>
   </g>
   <g id="patch_25">
    <path d="M 292.346702 354.958125 
L 302.492091 354.958125 
L 302.492091 353.571058 
L 292.346702 353.571058 
z
" clip-path="url(#p2354bcafec)" style="fill: #1f77b4; opacity: 0.3"/>
   </g>
   <g id="patch_26">
    <path d="M 302.492091 354.958125 
L 312.637481 354.958125 
L 312.637481 353.432351 
L 302.492091 353.432351 
z
" clip-path="url(#p2354bcafec)" style="fill: #1f77b4; opacity: 0.3"/>
   </g>
   <g id="patch_27">
    <path d="M 312.637481 354.958125 
L 322.782871 354.958125 
L 322.782871 353.848471 
L 312.637481 353.848471 
z
" clip-path="url(#p2354bcafec)" style="fill: #1f77b4; opacity: 0.3"/>
   </g>
   <g id="patch_28">
    <path d="M 322.782871 354.958125 
L 332.928261 354.958125 
L 332.928261 353.432351 
L 322.782871 353.432351 
z
" clip-path="url(#p2354bcafec)" style="fill: #1f77b4; opacity: 0.3"/>
   </g>
   <g id="patch_29">
    <path d="M 332.928261 354.958125 
L 343.07365 354.958125 
L 343.07365 354.403298 
L 332.928261 354.403298 
z
" clip-path="url(#p2354bcafec)" style="fill: #1f77b4; opacity: 0.3"/>
   </g>
   <g id="patch_30">
    <path d="M 343.07365 354.958125 
L 353.21904 354.958125 
L 353.21904 354.264591 
L 343.07365 354.264591 
z
" clip-path="url(#p2354bcafec)" style="fill: #1f77b4; opacity: 0.3"/>
   </g>
   <g id="patch_31">
    <path d="M 353.21904 354.958125 
L 363.36443 354.958125 
L 363.36443 354.819418 
L 353.21904 354.819418 
z
" clip-path="url(#p2354bcafec)" style="fill: #1f77b4; opacity: 0.3"/>
   </g>
   <g id="patch_32">
    <path d="M 363.36443 354.958125 
L 373.509819 354.958125 
L 373.509819 354.680712 
L 363.36443 354.680712 
z
" clip-path="url(#p2354bcafec)" style="fill: #1f77b4; opacity: 0.3"/>
   </g>
   <g id="patch_33">
    <path d="M 373.509819 354.958125 
L 383.655209 354.958125 
L 383.655209 354.958125 
L 373.509819 354.958125 
z
" clip-path="url(#p2354bcafec)" style="fill: #1f77b4; opacity: 0.3"/>
   </g>
   <g id="patch_34">
    <path d="M 383.655209 354.958125 
L 393.800599 354.958125 
L 393.800599 354.542005 
L 383.655209 354.542005 
z
" clip-path="url(#p2354bcafec)" style="fill: #1f77b4; opacity: 0.3"/>
   </g>
   <g id="patch_35">
    <path d="M 393.800599 354.958125 
L 403.945989 354.958125 
L 403.945989 354.819418 
L 393.800599 354.819418 
z
" clip-path="url(#p2354bcafec)" style="fill: #1f77b4; opacity: 0.3"/>
   </g>
   <g id="patch_36">
    <path d="M 403.945989 354.958125 
L 414.091378 354.958125 
L 414.091378 354.819418 
L 403.945989 354.819418 
z
" clip-path="url(#p2354bcafec)" style="fill: #1f77b4; opacity: 0.3"/>
   </g>
   <g id="patch_37">
    <path d="M 414.091378 354.958125 
L 424.236768 354.958125 
L 424.236768 354.819418 
L 414.091378 354.819418 
z
" clip-path="url(#p2354bcafec)" style="fill: #1f77b4; opacity: 0.3"/>
   </g>
   <g id="patch_38">
    <path d="M 424.236768 354.958125 
L 434.382158 354.958125 
L 434.382158 354.819418 
L 424.236768 354.819418 
z
" clip-path="url(#p2354bcafec)" style="fill: #1f77b4; opacity: 0.3"/>
   </g>
   <g id="patch_39">
    <path d="M 434.382158 354.958125 
L 444.527547 354.958125 
L 444.527547 354.680712 
L 434.382158 354.680712 
z
" clip-path="url(#p2354bcafec)" style="fill: #1f77b4; opacity: 0.3"/>
   </g>
   <g id="patch_40">
    <path d="M 444.527547 354.958125 
L 454.672937 354.958125 
L 454.672937 354.958125 
L 444.527547 354.958125 
z
" clip-path="url(#p2354bcafec)" style="fill: #1f77b4; opacity: 0.3"/>
   </g>
   <g id="patch_41">
    <path d="M 454.672937 354.958125 
L 464.818327 354.958125 
L 464.818327 354.958125 
L 454.672937 354.958125 
z
" clip-path="url(#p2354bcafec)" style="fill: #1f77b4; opacity: 0.3"/>
   </g>
   <g id="patch_42">
    <path d="M 464.818327 354.958125 
L 474.963717 354.958125 
L 474.963717 354.958125 
L 464.818327 354.958125 
z
" clip-path="url(#p2354bcafec)" style="fill: #1f77b4; opacity: 0.3"/>
   </g>
   <g id="patch_43">
    <path d="M 474.963717 354.958125 
L 485.109106 354.958125 
L 485.109106 354.958125 
L 474.963717 354.958125 
z
" clip-path="url(#p2354bcafec)" style="fill: #1f77b4; opacity: 0.3"/>
   </g>
   <g id="patch_44">
    <path d="M 485.109106 354.958125 
L 495.254496 354.958125 
L 495.254496 354.958125 
L 485.109106 354.958125 
z
" clip-path="url(#p2354bcafec)" style="fill: #1f77b4; opacity: 0.3"/>
   </g>
   <g id="patch_45">
    <path d="M 495.254496 354.958125 
L 505.399886 354.958125 
L 505.399886 354.819418 
L 495.254496 354.819418 
z
" clip-path="url(#p2354bcafec)" style="fill: #1f77b4; opacity: 0.3"/>
   </g>
   <g id="patch_46">
    <path d="M 505.399886 354.958125 
L 515.545275 354.958125 
L 515.545275 354.819418 
L 505.399886 354.819418 
z
" clip-path="url(#p2354bcafec)" style="fill: #1f77b4; opacity: 0.3"/>
   </g>
   <g id="patch_47">
    <path d="M 515.545275 354.958125 
L 525.690665 354.958125 
L 525.690665 354.819418 
L 515.545275 354.819418 
z
" clip-path="url(#p2354bcafec)" style="fill: #1f77b4; opacity: 0.3"/>
   </g>
   <g id="patch_48">
    <path d="M 525.690665 354.958125 
L 535.836055 354.958125 
L 535.836055 354.958125 
L 525.690665 354.958125 
z
" clip-path="url(#p2354bcafec)" style="fill: #1f77b4; opacity: 0.3"/>
   </g>
   <g id="patch_49">
    <path d="M 535.836055 354.958125 
L 545.981445 354.958125 
L 545.981445 354.958125 
L 535.836055 354.958125 
z
" clip-path="url(#p2354bcafec)" style="fill: #1f77b4; opacity: 0.3"/>
   </g>
   <g id="patch_50">
    <path d="M 545.981445 354.958125 
L 556.126834 354.958125 
L 556.126834 354.819418 
L 545.981445 354.819418 
z
" clip-path="url(#p2354bcafec)" style="fill: #1f77b4; opacity: 0.3"/>
   </g>
   <g id="patch_51">
    <path d="M 556.126834 354.958125 
L 566.272224 354.958125 
L 566.272224 354.958125 
L 556.126834 354.958125 
z
" clip-path="url(#p2354bcafec)" style="fill: #1f77b4; opacity: 0.3"/>
   </g>
   <g id="patch_52">
    <path d="M 566.272224 354.958125 
L 576.417614 354.958125 
L 576.417614 354.819418 
L 566.272224 354.819418 
z
" clip-path="url(#p2354bcafec)" style="fill: #1f77b4; opacity: 0.3"/>
   </g>
   <g id="patch_53">
    <path d="M 74.285485 354.958125 
L 77.304415 354.958125 
L 77.304415 353.093578 
L 74.285485 353.093578 
z
" clip-path="url(#p2354bcafec)" style="fill: #ff7f0e; opacity: 0.3"/>
   </g>
   <g id="patch_54">
    <path d="M 77.304415 354.958125 
L 80.323344 354.958125 
L 80.323344 345.63539 
L 77.304415 345.63539 
z
" clip-path="url(#p2354bcafec)" style="fill: #ff7f0e; opacity: 0.3"/>
   </g>
   <g id="patch_55">
    <path d="M 80.323344 354.958125 
L 83.342274 354.958125 
L 83.342274 333.049697 
L 80.323344 333.049697 
z
" clip-path="url(#p2354bcafec)" style="fill: #ff7f0e; opacity: 0.3"/>
   </g>
   <g id="patch_56">
    <path d="M 83.342274 354.958125 
L 86.361203 354.958125 
L 86.361203 320.464004 
L 83.342274 320.464004 
z
" clip-path="url(#p2354bcafec)" style="fill: #ff7f0e; opacity: 0.3"/>
   </g>
   <g id="patch_57">
    <path d="M 86.361203 354.958125 
L 89.380133 354.958125 
L 89.380133 299.953987 
L 86.361203 299.953987 
z
" clip-path="url(#p2354bcafec)" style="fill: #ff7f0e; opacity: 0.3"/>
   </g>
   <g id="patch_58">
    <path d="M 89.380133 354.958125 
L 92.399062 354.958125 
L 92.399062 288.300567 
L 89.380133 288.300567 
z
" clip-path="url(#p2354bcafec)" style="fill: #ff7f0e; opacity: 0.3"/>
   </g>
   <g id="patch_59">
    <path d="M 92.399062 354.958125 
L 95.417991 354.958125 
L 95.417991 276.181012 
L 92.399062 276.181012 
z
" clip-path="url(#p2354bcafec)" style="fill: #ff7f0e; opacity: 0.3"/>
   </g>
   <g id="patch_60">
    <path d="M 95.417991 354.958125 
L 98.436921 354.958125 
L 98.436921 257.535541 
L 95.417991 257.535541 
z
" clip-path="url(#p2354bcafec)" style="fill: #ff7f0e; opacity: 0.3"/>
   </g>
   <g id="patch_61">
    <path d="M 98.436921 354.958125 
L 101.45585 354.958125 
L 101.45585 233.296429 
L 98.436921 233.296429 
z
" clip-path="url(#p2354bcafec)" style="fill: #ff7f0e; opacity: 0.3"/>
   </g>
   <g id="patch_62">
    <path d="M 101.45585 354.958125 
L 104.47478 354.958125 
L 104.47478 226.770514 
L 101.45585 226.770514 
z
" clip-path="url(#p2354bcafec)" style="fill: #ff7f0e; opacity: 0.3"/>
   </g>
   <g id="patch_63">
    <path d="M 104.47478 354.958125 
L 107.493709 354.958125 
L 107.493709 216.981642 
L 104.47478 216.981642 
z
" clip-path="url(#p2354bcafec)" style="fill: #ff7f0e; opacity: 0.3"/>
   </g>
   <g id="patch_64">
    <path d="M 107.493709 354.958125 
L 110.512639 354.958125 
L 110.512639 218.380053 
L 107.493709 218.380053 
z
" clip-path="url(#p2354bcafec)" style="fill: #ff7f0e; opacity: 0.3"/>
   </g>
   <g id="patch_65">
    <path d="M 110.512639 354.958125 
L 113.531568 354.958125 
L 113.531568 227.236651 
L 110.512639 227.236651 
z
" clip-path="url(#p2354bcafec)" style="fill: #ff7f0e; opacity: 0.3"/>
   </g>
   <g id="patch_66">
    <path d="M 113.531568 354.958125 
L 116.550498 354.958125 
L 116.550498 209.057317 
L 113.531568 209.057317 
z
" clip-path="url(#p2354bcafec)" style="fill: #ff7f0e; opacity: 0.3"/>
   </g>
   <g id="patch_67">
    <path d="M 116.550498 354.958125 
L 119.569427 354.958125 
L 119.569427 244.017575 
L 116.550498 244.017575 
z
" clip-path="url(#p2354bcafec)" style="fill: #ff7f0e; opacity: 0.3"/>
   </g>
   <g id="patch_68">
    <path d="M 119.569427 354.958125 
L 122.588357 354.958125 
L 122.588357 228.168925 
L 119.569427 228.168925 
z
" clip-path="url(#p2354bcafec)" style="fill: #ff7f0e; opacity: 0.3"/>
   </g>
   <g id="patch_69">
    <path d="M 122.588357 354.958125 
L 125.607286 354.958125 
L 125.607286 237.957797 
L 122.588357 237.957797 
z
" clip-path="url(#p2354bcafec)" style="fill: #ff7f0e; opacity: 0.3"/>
   </g>
   <g id="patch_70">
    <path d="M 125.607286 354.958125 
L 128.626216 354.958125 
L 128.626216 251.475763 
L 125.607286 251.475763 
z
" clip-path="url(#p2354bcafec)" style="fill: #ff7f0e; opacity: 0.3"/>
   </g>
   <g id="patch_71">
    <path d="M 128.626216 354.958125 
L 131.645145 354.958125 
L 131.645145 271.985781 
L 128.626216 271.985781 
z
" clip-path="url(#p2354bcafec)" style="fill: #ff7f0e; opacity: 0.3"/>
   </g>
   <g id="patch_72">
    <path d="M 131.645145 354.958125 
L 134.664075 354.958125 
L 134.664075 274.782601 
L 131.645145 274.782601 
z
" clip-path="url(#p2354bcafec)" style="fill: #ff7f0e; opacity: 0.3"/>
   </g>
   <g id="patch_73">
    <path d="M 134.664075 354.958125 
L 137.683004 354.958125 
L 137.683004 277.579422 
L 134.664075 277.579422 
z
" clip-path="url(#p2354bcafec)" style="fill: #ff7f0e; opacity: 0.3"/>
   </g>
   <g id="patch_74">
    <path d="M 137.683004 354.958125 
L 140.701934 354.958125 
L 140.701934 295.758756 
L 137.683004 295.758756 
z
" clip-path="url(#p2354bcafec)" style="fill: #ff7f0e; opacity: 0.3"/>
   </g>
   <g id="patch_75">
    <path d="M 140.701934 354.958125 
L 143.720863 354.958125 
L 143.720863 289.232841 
L 140.701934 289.232841 
z
" clip-path="url(#p2354bcafec)" style="fill: #ff7f0e; opacity: 0.3"/>
   </g>
   <g id="patch_76">
    <path d="M 143.720863 354.958125 
L 146.739793 354.958125 
L 146.739793 302.28467 
L 143.720863 302.28467 
z
" clip-path="url(#p2354bcafec)" style="fill: #ff7f0e; opacity: 0.3"/>
   </g>
   <g id="patch_77">
    <path d="M 146.739793 354.958125 
L 149.758722 354.958125 
L 149.758722 303.683081 
L 146.739793 303.683081 
z
" clip-path="url(#p2354bcafec)" style="fill: #ff7f0e; opacity: 0.3"/>
   </g>
   <g id="patch_78">
    <path d="M 149.758722 354.958125 
L 152.777652 354.958125 
L 152.777652 322.328551 
L 149.758722 322.328551 
z
" clip-path="url(#p2354bcafec)" style="fill: #ff7f0e; opacity: 0.3"/>
   </g>
   <g id="patch_79">
    <path d="M 152.777652 354.958125 
L 155.796581 354.958125 
L 155.796581 318.13332 
L 152.777652 318.13332 
z
" clip-path="url(#p2354bcafec)" style="fill: #ff7f0e; opacity: 0.3"/>
   </g>
   <g id="patch_80">
    <path d="M 155.796581 354.958125 
L 158.815511 354.958125 
L 158.815511 326.989919 
L 155.796581 326.989919 
z
" clip-path="url(#p2354bcafec)" style="fill: #ff7f0e; opacity: 0.3"/>
   </g>
   <g id="patch_81">
    <path d="M 158.815511 354.958125 
L 161.83444 354.958125 
L 161.83444 338.643338 
L 158.815511 338.643338 
z
" clip-path="url(#p2354bcafec)" style="fill: #ff7f0e; opacity: 0.3"/>
   </g>
   <g id="patch_82">
    <path d="M 161.83444 354.958125 
L 164.85337 354.958125 
L 164.85337 334.914244 
L 161.83444 334.914244 
z
" clip-path="url(#p2354bcafec)" style="fill: #ff7f0e; opacity: 0.3"/>
   </g>
   <g id="patch_83">
    <path d="M 164.85337 354.958125 
L 167.872299 354.958125 
L 167.872299 337.244928 
L 164.85337 337.244928 
z
" clip-path="url(#p2354bcafec)" style="fill: #ff7f0e; opacity: 0.3"/>
   </g>
   <g id="patch_84">
    <path d="M 167.872299 354.958125 
L 170.891229 354.958125 
L 170.891229 339.575612 
L 167.872299 339.575612 
z
" clip-path="url(#p2354bcafec)" style="fill: #ff7f0e; opacity: 0.3"/>
   </g>
   <g id="patch_85">
    <path d="M 170.891229 354.958125 
L 173.910158 354.958125 
L 173.910158 340.507885 
L 170.891229 340.507885 
z
" clip-path="url(#p2354bcafec)" style="fill: #ff7f0e; opacity: 0.3"/>
   </g>
   <g id="patch_86">
    <path d="M 173.910158 354.958125 
L 176.929088 354.958125 
L 176.929088 344.703116 
L 173.910158 344.703116 
z
" clip-path="url(#p2354bcafec)" style="fill: #ff7f0e; opacity: 0.3"/>
   </g>
   <g id="patch_87">
    <path d="M 176.929088 354.958125 
L 179.948017 354.958125 
L 179.948017 350.296757 
L 176.929088 350.296757 
z
" clip-path="url(#p2354bcafec)" style="fill: #ff7f0e; opacity: 0.3"/>
   </g>
   <g id="patch_88">
    <path d="M 179.948017 354.958125 
L 182.966946 354.958125 
L 182.966946 348.898347 
L 179.948017 348.898347 
z
" clip-path="url(#p2354bcafec)" style="fill: #ff7f0e; opacity: 0.3"/>
   </g>
   <g id="patch_89">
    <path d="M 182.966946 354.958125 
L 185.985876 354.958125 
L 185.985876 347.966074 
L 182.966946 347.966074 
z
" clip-path="url(#p2354bcafec)" style="fill: #ff7f0e; opacity: 0.3"/>
   </g>
   <g id="patch_90">
    <path d="M 185.985876 354.958125 
L 189.004805 354.958125 
L 189.004805 347.499937 
L 185.985876 347.499937 
z
" clip-path="url(#p2354bcafec)" style="fill: #ff7f0e; opacity: 0.3"/>
   </g>
   <g id="patch_91">
    <path d="M 189.004805 354.958125 
L 192.023735 354.958125 
L 192.023735 348.43221 
L 189.004805 348.43221 
z
" clip-path="url(#p2354bcafec)" style="fill: #ff7f0e; opacity: 0.3"/>
   </g>
   <g id="patch_92">
    <path d="M 192.023735 354.958125 
L 195.042664 354.958125 
L 195.042664 353.093578 
L 192.023735 353.093578 
z
" clip-path="url(#p2354bcafec)" style="fill: #ff7f0e; opacity: 0.3"/>
   </g>
   <g id="patch_93">
    <path d="M 195.042664 354.958125 
L 198.061594 354.958125 
L 198.061594 350.762894 
L 195.042664 350.762894 
z
" clip-path="url(#p2354bcafec)" style="fill: #ff7f0e; opacity: 0.3"/>
   </g>
   <g id="patch_94">
    <path d="M 198.061594 354.958125 
L 201.080523 354.958125 
L 201.080523 353.093578 
L 198.061594 353.093578 
z
" clip-path="url(#p2354bcafec)" style="fill: #ff7f0e; opacity: 0.3"/>
   </g>
   <g id="patch_95">
    <path d="M 201.080523 354.958125 
L 204.099453 354.958125 
L 204.099453 354.491988 
L 201.080523 354.491988 
z
" clip-path="url(#p2354bcafec)" style="fill: #ff7f0e; opacity: 0.3"/>
   </g>
   <g id="patch_96">
    <path d="M 204.099453 354.958125 
L 207.118382 354.958125 
L 207.118382 354.025851 
L 204.099453 354.025851 
z
" clip-path="url(#p2354bcafec)" style="fill: #ff7f0e; opacity: 0.3"/>
   </g>
   <g id="patch_97">
    <path d="M 207.118382 354.958125 
L 210.137312 354.958125 
L 210.137312 354.025851 
L 207.118382 354.025851 
z
" clip-path="url(#p2354bcafec)" style="fill: #ff7f0e; opacity: 0.3"/>
   </g>
   <g id="patch_98">
    <path d="M 210.137312 354.958125 
L 213.156241 354.958125 
L 213.156241 353.559715 
L 210.137312 353.559715 
z
" clip-path="url(#p2354bcafec)" style="fill: #ff7f0e; opacity: 0.3"/>
   </g>
   <g id="patch_99">
    <path d="M 213.156241 354.958125 
L 216.175171 354.958125 
L 216.175171 354.491988 
L 213.156241 354.491988 
z
" clip-path="url(#p2354bcafec)" style="fill: #ff7f0e; opacity: 0.3"/>
   </g>
   <g id="patch_100">
    <path d="M 216.175171 354.958125 
L 219.1941 354.958125 
L 219.1941 354.025851 
L 216.175171 354.025851 
z
" clip-path="url(#p2354bcafec)" style="fill: #ff7f0e; opacity: 0.3"/>
   </g>
   <g id="patch_101">
    <path d="M 219.1941 354.958125 
L 222.21303 354.958125 
L 222.21303 353.093578 
L 219.1941 353.093578 
z
" clip-path="url(#p2354bcafec)" style="fill: #ff7f0e; opacity: 0.3"/>
   </g>
   <g id="patch_102">
    <path d="M 222.21303 354.958125 
L 225.231959 354.958125 
L 225.231959 353.559715 
L 222.21303 353.559715 
z
" clip-path="url(#p2354bcafec)" style="fill: #ff7f0e; opacity: 0.3"/>
   </g>
   <g id="patch_103">
    <path d="M 91.901097 354.958125 
L 93.207053 354.958125 
L 93.207053 353.880574 
L 91.901097 353.880574 
z
" clip-path="url(#p2354bcafec)" style="fill: #2ca02c; opacity: 0.3"/>
   </g>
   <g id="patch_104">
    <path d="M 93.207053 354.958125 
L 94.513008 354.958125 
L 94.513008 353.880574 
L 93.207053 353.880574 
z
" clip-path="url(#p2354bcafec)" style="fill: #2ca02c; opacity: 0.3"/>
   </g>
   <g id="patch_105">
    <path d="M 94.513008 354.958125 
L 95.818964 354.958125 
L 95.818964 351.725472 
L 94.513008 351.725472 
z
" clip-path="url(#p2354bcafec)" style="fill: #2ca02c; opacity: 0.3"/>
   </g>
   <g id="patch_106">
    <path d="M 95.818964 354.958125 
L 97.12492 354.958125 
L 97.12492 351.725472 
L 95.818964 351.725472 
z
" clip-path="url(#p2354bcafec)" style="fill: #2ca02c; opacity: 0.3"/>
   </g>
   <g id="patch_107">
    <path d="M 97.12492 354.958125 
L 98.430876 354.958125 
L 98.430876 348.492819 
L 97.12492 348.492819 
z
" clip-path="url(#p2354bcafec)" style="fill: #2ca02c; opacity: 0.3"/>
   </g>
   <g id="patch_108">
    <path d="M 98.430876 354.958125 
L 99.736832 354.958125 
L 99.736832 339.872411 
L 98.430876 339.872411 
z
" clip-path="url(#p2354bcafec)" style="fill: #2ca02c; opacity: 0.3"/>
   </g>
   <g id="patch_109">
    <path d="M 99.736832 354.958125 
L 101.042788 354.958125 
L 101.042788 332.329554 
L 99.736832 332.329554 
z
" clip-path="url(#p2354bcafec)" style="fill: #2ca02c; opacity: 0.3"/>
   </g>
   <g id="patch_110">
    <path d="M 101.042788 354.958125 
L 102.348743 354.958125 
L 102.348743 316.166288 
L 101.042788 316.166288 
z
" clip-path="url(#p2354bcafec)" style="fill: #2ca02c; opacity: 0.3"/>
   </g>
   <g id="patch_111">
    <path d="M 102.348743 354.958125 
L 103.654699 354.958125 
L 103.654699 298.925472 
L 102.348743 298.925472 
z
" clip-path="url(#p2354bcafec)" style="fill: #2ca02c; opacity: 0.3"/>
   </g>
   <g id="patch_112">
    <path d="M 103.654699 354.958125 
L 104.960655 354.958125 
L 104.960655 287.072411 
L 103.654699 287.072411 
z
" clip-path="url(#p2354bcafec)" style="fill: #2ca02c; opacity: 0.3"/>
   </g>
   <g id="patch_113">
    <path d="M 104.960655 354.958125 
L 106.266611 354.958125 
L 106.266611 263.366288 
L 104.960655 263.366288 
z
" clip-path="url(#p2354bcafec)" style="fill: #2ca02c; opacity: 0.3"/>
   </g>
   <g id="patch_114">
    <path d="M 106.266611 354.958125 
L 107.572567 354.958125 
L 107.572567 243.97037 
L 106.266611 243.97037 
z
" clip-path="url(#p2354bcafec)" style="fill: #2ca02c; opacity: 0.3"/>
   </g>
   <g id="patch_115">
    <path d="M 107.572567 354.958125 
L 108.878522 354.958125 
L 108.878522 192.247921 
L 107.572567 192.247921 
z
" clip-path="url(#p2354bcafec)" style="fill: #2ca02c; opacity: 0.3"/>
   </g>
   <g id="patch_116">
    <path d="M 108.878522 354.958125 
L 110.184478 354.958125 
L 110.184478 153.456084 
L 108.878522 153.456084 
z
" clip-path="url(#p2354bcafec)" style="fill: #2ca02c; opacity: 0.3"/>
   </g>
   <g id="patch_117">
    <path d="M 110.184478 354.958125 
L 111.490434 354.958125 
L 111.490434 159.92139 
L 110.184478 159.92139 
z
" clip-path="url(#p2354bcafec)" style="fill: #2ca02c; opacity: 0.3"/>
   </g>
   <g id="patch_118">
    <path d="M 111.490434 354.958125 
L 112.79639 354.958125 
L 112.79639 118.974452 
L 111.490434 118.974452 
z
" clip-path="url(#p2354bcafec)" style="fill: #2ca02c; opacity: 0.3"/>
   </g>
   <g id="patch_119">
    <path d="M 112.79639 354.958125 
L 114.102346 354.958125 
L 114.102346 113.586696 
L 112.79639 113.586696 
z
" clip-path="url(#p2354bcafec)" style="fill: #2ca02c; opacity: 0.3"/>
   </g>
   <g id="patch_120">
    <path d="M 114.102346 354.958125 
L 115.408302 354.958125 
L 115.408302 94.190778 
L 114.102346 94.190778 
z
" clip-path="url(#p2354bcafec)" style="fill: #2ca02c; opacity: 0.3"/>
   </g>
   <g id="patch_121">
    <path d="M 115.408302 354.958125 
L 116.714257 354.958125 
L 116.714257 61.864247 
L 115.408302 61.864247 
z
" clip-path="url(#p2354bcafec)" style="fill: #2ca02c; opacity: 0.3"/>
   </g>
   <g id="patch_122">
    <path d="M 116.714257 354.958125 
L 118.020213 354.958125 
L 118.020213 54.32139 
L 116.714257 54.32139 
z
" clip-path="url(#p2354bcafec)" style="fill: #2ca02c; opacity: 0.3"/>
   </g>
   <g id="patch_123">
    <path d="M 118.020213 354.958125 
L 119.326169 354.958125 
L 119.326169 38.158125 
L 118.020213 38.158125 
z
" clip-path="url(#p2354bcafec)" style="fill: #2ca02c; opacity: 0.3"/>
   </g>
   <g id="patch_124">
    <path d="M 119.326169 354.958125 
L 120.632125 354.958125 
L 120.632125 78.027513 
L 119.326169 78.027513 
z
" clip-path="url(#p2354bcafec)" style="fill: #2ca02c; opacity: 0.3"/>
   </g>
   <g id="patch_125">
    <path d="M 120.632125 354.958125 
L 121.938081 354.958125 
L 121.938081 61.864247 
L 120.632125 61.864247 
z
" clip-path="url(#p2354bcafec)" style="fill: #2ca02c; opacity: 0.3"/>
   </g>
   <g id="patch_126">
    <path d="M 121.938081 354.958125 
L 123.244037 354.958125 
L 123.244037 83.415268 
L 121.938081 83.415268 
z
" clip-path="url(#p2354bcafec)" style="fill: #2ca02c; opacity: 0.3"/>
   </g>
   <g id="patch_127">
    <path d="M 123.244037 354.958125 
L 124.549992 354.958125 
L 124.549992 56.476492 
L 123.244037 56.476492 
z
" clip-path="url(#p2354bcafec)" style="fill: #2ca02c; opacity: 0.3"/>
   </g>
   <g id="patch_128">
    <path d="M 124.549992 354.958125 
L 125.855948 354.958125 
L 125.855948 127.59486 
L 124.549992 127.59486 
z
" clip-path="url(#p2354bcafec)" style="fill: #2ca02c; opacity: 0.3"/>
   </g>
   <g id="patch_129">
    <path d="M 125.855948 354.958125 
L 127.161904 354.958125 
L 127.161904 149.14588 
L 125.855948 149.14588 
z
" clip-path="url(#p2354bcafec)" style="fill: #2ca02c; opacity: 0.3"/>
   </g>
   <g id="patch_130">
    <path d="M 127.161904 354.958125 
L 128.46786 354.958125 
L 128.46786 162.076492 
L 127.161904 162.076492 
z
" clip-path="url(#p2354bcafec)" style="fill: #2ca02c; opacity: 0.3"/>
   </g>
   <g id="patch_131">
    <path d="M 128.46786 354.958125 
L 129.773816 354.958125 
L 129.773816 177.162207 
L 128.46786 177.162207 
z
" clip-path="url(#p2354bcafec)" style="fill: #2ca02c; opacity: 0.3"/>
   </g>
   <g id="patch_132">
    <path d="M 129.773816 354.958125 
L 131.079771 354.958125 
L 131.079771 206.256084 
L 129.773816 206.256084 
z
" clip-path="url(#p2354bcafec)" style="fill: #2ca02c; opacity: 0.3"/>
   </g>
   <g id="patch_133">
    <path d="M 131.079771 354.958125 
L 132.385727 354.958125 
L 132.385727 232.117309 
L 131.079771 232.117309 
z
" clip-path="url(#p2354bcafec)" style="fill: #2ca02c; opacity: 0.3"/>
   </g>
   <g id="patch_134">
    <path d="M 132.385727 354.958125 
L 133.691683 354.958125 
L 133.691683 251.513227 
L 132.385727 251.513227 
z
" clip-path="url(#p2354bcafec)" style="fill: #2ca02c; opacity: 0.3"/>
   </g>
   <g id="patch_135">
    <path d="M 133.691683 354.958125 
L 134.997639 354.958125 
L 134.997639 271.986696 
L 133.691683 271.986696 
z
" clip-path="url(#p2354bcafec)" style="fill: #2ca02c; opacity: 0.3"/>
   </g>
   <g id="patch_136">
    <path d="M 134.997639 354.958125 
L 136.303595 354.958125 
L 136.303595 281.684656 
L 134.997639 281.684656 
z
" clip-path="url(#p2354bcafec)" style="fill: #2ca02c; opacity: 0.3"/>
   </g>
   <g id="patch_137">
    <path d="M 136.303595 354.958125 
L 137.609551 354.958125 
L 137.609551 295.692819 
L 136.303595 295.692819 
z
" clip-path="url(#p2354bcafec)" style="fill: #2ca02c; opacity: 0.3"/>
   </g>
   <g id="patch_138">
    <path d="M 137.609551 354.958125 
L 138.915506 354.958125 
L 138.915506 310.778533 
L 137.609551 310.778533 
z
" clip-path="url(#p2354bcafec)" style="fill: #2ca02c; opacity: 0.3"/>
   </g>
   <g id="patch_139">
    <path d="M 138.915506 354.958125 
L 140.221462 354.958125 
L 140.221462 300.003023 
L 138.915506 300.003023 
z
" clip-path="url(#p2354bcafec)" style="fill: #2ca02c; opacity: 0.3"/>
   </g>
   <g id="patch_140">
    <path d="M 140.221462 354.958125 
L 141.527418 354.958125 
L 141.527418 326.941798 
L 140.221462 326.941798 
z
" clip-path="url(#p2354bcafec)" style="fill: #2ca02c; opacity: 0.3"/>
   </g>
   <g id="patch_141">
    <path d="M 141.527418 354.958125 
L 142.833374 354.958125 
L 142.833374 333.407105 
L 141.527418 333.407105 
z
" clip-path="url(#p2354bcafec)" style="fill: #2ca02c; opacity: 0.3"/>
   </g>
   <g id="patch_142">
    <path d="M 142.833374 354.958125 
L 144.13933 354.958125 
L 144.13933 336.639758 
L 142.833374 336.639758 
z
" clip-path="url(#p2354bcafec)" style="fill: #2ca02c; opacity: 0.3"/>
   </g>
   <g id="patch_143">
    <path d="M 144.13933 354.958125 
L 145.445285 354.958125 
L 145.445285 334.484656 
L 144.13933 334.484656 
z
" clip-path="url(#p2354bcafec)" style="fill: #2ca02c; opacity: 0.3"/>
   </g>
   <g id="patch_144">
    <path d="M 145.445285 354.958125 
L 146.751241 354.958125 
L 146.751241 346.337717 
L 145.445285 346.337717 
z
" clip-path="url(#p2354bcafec)" style="fill: #2ca02c; opacity: 0.3"/>
   </g>
   <g id="patch_145">
    <path d="M 146.751241 354.958125 
L 148.057197 354.958125 
L 148.057197 346.337717 
L 146.751241 346.337717 
z
" clip-path="url(#p2354bcafec)" style="fill: #2ca02c; opacity: 0.3"/>
   </g>
   <g id="patch_146">
    <path d="M 148.057197 354.958125 
L 149.363153 354.958125 
L 149.363153 348.492819 
L 148.057197 348.492819 
z
" clip-path="url(#p2354bcafec)" style="fill: #2ca02c; opacity: 0.3"/>
   </g>
   <g id="patch_147">
    <path d="M 149.363153 354.958125 
L 150.669109 354.958125 
L 150.669109 349.57037 
L 149.363153 349.57037 
z
" clip-path="url(#p2354bcafec)" style="fill: #2ca02c; opacity: 0.3"/>
   </g>
   <g id="patch_148">
    <path d="M 150.669109 354.958125 
L 151.975065 354.958125 
L 151.975065 349.57037 
L 150.669109 349.57037 
z
" clip-path="url(#p2354bcafec)" style="fill: #2ca02c; opacity: 0.3"/>
   </g>
   <g id="patch_149">
    <path d="M 151.975065 354.958125 
L 153.28102 354.958125 
L 153.28102 352.803023 
L 151.975065 352.803023 
z
" clip-path="url(#p2354bcafec)" style="fill: #2ca02c; opacity: 0.3"/>
   </g>
   <g id="patch_150">
    <path d="M 153.28102 354.958125 
L 154.586976 354.958125 
L 154.586976 353.880574 
L 153.28102 353.880574 
z
" clip-path="url(#p2354bcafec)" style="fill: #2ca02c; opacity: 0.3"/>
   </g>
   <g id="patch_151">
    <path d="M 154.586976 354.958125 
L 155.892932 354.958125 
L 155.892932 354.958125 
L 154.586976 354.958125 
z
" clip-path="url(#p2354bcafec)" style="fill: #2ca02c; opacity: 0.3"/>
   </g>
   <g id="patch_152">
    <path d="M 155.892932 354.958125 
L 157.198888 354.958125 
L 157.198888 352.803023 
L 155.892932 352.803023 
z
" clip-path="url(#p2354bcafec)" style="fill: #2ca02c; opacity: 0.3"/>
   </g>
   <g id="matplotlib.axis_1">
    <g id="xtick_1">
     <g id="line2d_1">
      <path d="M 69.144886 354.958125 
L 69.144886 22.318125 
" clip-path="url(#p2354bcafec)" style="fill: none; stroke: #b0b0b0; stroke-width: 0.8; stroke-linecap: square"/>
     </g>
     <g id="line2d_2">
      <defs>
       <path id="m9e2e379995" d="M 0 0 
L 0 3.5 
" style="stroke: #000000; stroke-width: 0.8"/>
      </defs>
      <g>
       <use xlink:href="#m9e2e379995" x="69.144886" y="354.958125" style="stroke: #000000; stroke-width: 0.8"/>
      </g>
     </g>
     <g id="text_1">
      <!-- 0 -->
      <g transform="translate(65.963636 369.556562) scale(0.1 -0.1)">
       <defs>
        <path id="DejaVuSans-30" d="M 2034 4250 
Q 1547 4250 1301 3770 
Q 1056 3291 1056 2328 
Q 1056 1369 1301 889 
Q 1547 409 2034 409 
Q 2525 409 2770 889 
Q 3016 1369 3016 2328 
Q 3016 3291 2770 3770 
Q 2525 4250 2034 4250 
z
M 2034 4750 
Q 2819 4750 3233 4129 
Q 3647 3509 3647 2328 
Q 3647 1150 3233 529 
Q 2819 -91 2034 -91 
Q 1250 -91 836 529 
Q 422 1150 422 2328 
Q 422 3509 836 4129 
Q 1250 4750 2034 4750 
z
" transform="scale(0.015625)"/>
       </defs>
       <use xlink:href="#DejaVuSans-30"/>
      </g>
     </g>
    </g>
    <g id="xtick_2">
     <g id="line2d_3">
      <path d="M 171.467941 354.958125 
L 171.467941 22.318125 
" clip-path="url(#p2354bcafec)" style="fill: none; stroke: #b0b0b0; stroke-width: 0.8; stroke-linecap: square"/>
     </g>
     <g id="line2d_4">
      <g>
       <use xlink:href="#m9e2e379995" x="171.467941" y="354.958125" style="stroke: #000000; stroke-width: 0.8"/>
      </g>
     </g>
     <g id="text_2">
      <!-- 2 -->
      <g transform="translate(168.286691 369.556562) scale(0.1 -0.1)">
       <defs>
        <path id="DejaVuSans-32" d="M 1228 531 
L 3431 531 
L 3431 0 
L 469 0 
L 469 531 
Q 828 903 1448 1529 
Q 2069 2156 2228 2338 
Q 2531 2678 2651 2914 
Q 2772 3150 2772 3378 
Q 2772 3750 2511 3984 
Q 2250 4219 1831 4219 
Q 1534 4219 1204 4116 
Q 875 4013 500 3803 
L 500 4441 
Q 881 4594 1212 4672 
Q 1544 4750 1819 4750 
Q 2544 4750 2975 4387 
Q 3406 4025 3406 3419 
Q 3406 3131 3298 2873 
Q 3191 2616 2906 2266 
Q 2828 2175 2409 1742 
Q 1991 1309 1228 531 
z
" transform="scale(0.015625)"/>
       </defs>
       <use xlink:href="#DejaVuSans-32"/>
      </g>
     </g>
    </g>
    <g id="xtick_3">
     <g id="line2d_5">
      <path d="M 273.790996 354.958125 
L 273.790996 22.318125 
" clip-path="url(#p2354bcafec)" style="fill: none; stroke: #b0b0b0; stroke-width: 0.8; stroke-linecap: square"/>
     </g>
     <g id="line2d_6">
      <g>
       <use xlink:href="#m9e2e379995" x="273.790996" y="354.958125" style="stroke: #000000; stroke-width: 0.8"/>
      </g>
     </g>
     <g id="text_3">
      <!-- 4 -->
      <g transform="translate(270.609746 369.556562) scale(0.1 -0.1)">
       <defs>
        <path id="DejaVuSans-34" d="M 2419 4116 
L 825 1625 
L 2419 1625 
L 2419 4116 
z
M 2253 4666 
L 3047 4666 
L 3047 1625 
L 3713 1625 
L 3713 1100 
L 3047 1100 
L 3047 0 
L 2419 0 
L 2419 1100 
L 313 1100 
L 313 1709 
L 2253 4666 
z
" transform="scale(0.015625)"/>
       </defs>
       <use xlink:href="#DejaVuSans-34"/>
      </g>
     </g>
    </g>
    <g id="xtick_4">
     <g id="line2d_7">
      <path d="M 376.11405 354.958125 
L 376.11405 22.318125 
" clip-path="url(#p2354bcafec)" style="fill: none; stroke: #b0b0b0; stroke-width: 0.8; stroke-linecap: square"/>
     </g>
     <g id="line2d_8">
      <g>
       <use xlink:href="#m9e2e379995" x="376.11405" y="354.958125" style="stroke: #000000; stroke-width: 0.8"/>
      </g>
     </g>
     <g id="text_4">
      <!-- 6 -->
      <g transform="translate(372.9328 369.556562) scale(0.1 -0.1)">
       <defs>
        <path id="DejaVuSans-36" d="M 2113 2584 
Q 1688 2584 1439 2293 
Q 1191 2003 1191 1497 
Q 1191 994 1439 701 
Q 1688 409 2113 409 
Q 2538 409 2786 701 
Q 3034 994 3034 1497 
Q 3034 2003 2786 2293 
Q 2538 2584 2113 2584 
z
M 3366 4563 
L 3366 3988 
Q 3128 4100 2886 4159 
Q 2644 4219 2406 4219 
Q 1781 4219 1451 3797 
Q 1122 3375 1075 2522 
Q 1259 2794 1537 2939 
Q 1816 3084 2150 3084 
Q 2853 3084 3261 2657 
Q 3669 2231 3669 1497 
Q 3669 778 3244 343 
Q 2819 -91 2113 -91 
Q 1303 -91 875 529 
Q 447 1150 447 2328 
Q 447 3434 972 4092 
Q 1497 4750 2381 4750 
Q 2619 4750 2861 4703 
Q 3103 4656 3366 4563 
z
" transform="scale(0.015625)"/>
       </defs>
       <use xlink:href="#DejaVuSans-36"/>
      </g>
     </g>
    </g>
    <g id="xtick_5">
     <g id="line2d_9">
      <path d="M 478.437105 354.958125 
L 478.437105 22.318125 
" clip-path="url(#p2354bcafec)" style="fill: none; stroke: #b0b0b0; stroke-width: 0.8; stroke-linecap: square"/>
     </g>
     <g id="line2d_10">
      <g>
       <use xlink:href="#m9e2e379995" x="478.437105" y="354.958125" style="stroke: #000000; stroke-width: 0.8"/>
      </g>
     </g>
     <g id="text_5">
      <!-- 8 -->
      <g transform="translate(475.255855 369.556562) scale(0.1 -0.1)">
       <defs>
        <path id="DejaVuSans-38" d="M 2034 2216 
Q 1584 2216 1326 1975 
Q 1069 1734 1069 1313 
Q 1069 891 1326 650 
Q 1584 409 2034 409 
Q 2484 409 2743 651 
Q 3003 894 3003 1313 
Q 3003 1734 2745 1975 
Q 2488 2216 2034 2216 
z
M 1403 2484 
Q 997 2584 770 2862 
Q 544 3141 544 3541 
Q 544 4100 942 4425 
Q 1341 4750 2034 4750 
Q 2731 4750 3128 4425 
Q 3525 4100 3525 3541 
Q 3525 3141 3298 2862 
Q 3072 2584 2669 2484 
Q 3125 2378 3379 2068 
Q 3634 1759 3634 1313 
Q 3634 634 3220 271 
Q 2806 -91 2034 -91 
Q 1263 -91 848 271 
Q 434 634 434 1313 
Q 434 1759 690 2068 
Q 947 2378 1403 2484 
z
M 1172 3481 
Q 1172 3119 1398 2916 
Q 1625 2713 2034 2713 
Q 2441 2713 2670 2916 
Q 2900 3119 2900 3481 
Q 2900 3844 2670 4047 
Q 2441 4250 2034 4250 
Q 1625 4250 1398 4047 
Q 1172 3844 1172 3481 
z
" transform="scale(0.015625)"/>
       </defs>
       <use xlink:href="#DejaVuSans-38"/>
      </g>
     </g>
    </g>
    <g id="xtick_6">
     <g id="line2d_11">
      <path d="M 580.76016 354.958125 
L 580.76016 22.318125 
" clip-path="url(#p2354bcafec)" style="fill: none; stroke: #b0b0b0; stroke-width: 0.8; stroke-linecap: square"/>
     </g>
     <g id="line2d_12">
      <g>
       <use xlink:href="#m9e2e379995" x="580.76016" y="354.958125" style="stroke: #000000; stroke-width: 0.8"/>
      </g>
     </g>
     <g id="text_6">
      <!-- 10 -->
      <g transform="translate(574.39766 369.556562) scale(0.1 -0.1)">
       <defs>
        <path id="DejaVuSans-31" d="M 794 531 
L 1825 531 
L 1825 4091 
L 703 3866 
L 703 4441 
L 1819 4666 
L 2450 4666 
L 2450 531 
L 3481 531 
L 3481 0 
L 794 0 
L 794 531 
z
" transform="scale(0.015625)"/>
       </defs>
       <use xlink:href="#DejaVuSans-31"/>
       <use xlink:href="#DejaVuSans-30" transform="translate(63.623047 0)"/>
      </g>
     </g>
    </g>
    <g id="text_7">
     <!-- Sample Mean -->
     <g transform="translate(288.820312 383.234687) scale(0.1 -0.1)">
      <defs>
       <path id="DejaVuSans-53" d="M 3425 4513 
L 3425 3897 
Q 3066 4069 2747 4153 
Q 2428 4238 2131 4238 
Q 1616 4238 1336 4038 
Q 1056 3838 1056 3469 
Q 1056 3159 1242 3001 
Q 1428 2844 1947 2747 
L 2328 2669 
Q 3034 2534 3370 2195 
Q 3706 1856 3706 1288 
Q 3706 609 3251 259 
Q 2797 -91 1919 -91 
Q 1588 -91 1214 -16 
Q 841 59 441 206 
L 441 856 
Q 825 641 1194 531 
Q 1563 422 1919 422 
Q 2459 422 2753 634 
Q 3047 847 3047 1241 
Q 3047 1584 2836 1778 
Q 2625 1972 2144 2069 
L 1759 2144 
Q 1053 2284 737 2584 
Q 422 2884 422 3419 
Q 422 4038 858 4394 
Q 1294 4750 2059 4750 
Q 2388 4750 2728 4690 
Q 3069 4631 3425 4513 
z
" transform="scale(0.015625)"/>
       <path id="DejaVuSans-61" d="M 2194 1759 
Q 1497 1759 1228 1600 
Q 959 1441 959 1056 
Q 959 750 1161 570 
Q 1363 391 1709 391 
Q 2188 391 2477 730 
Q 2766 1069 2766 1631 
L 2766 1759 
L 2194 1759 
z
M 3341 1997 
L 3341 0 
L 2766 0 
L 2766 531 
Q 2569 213 2275 61 
Q 1981 -91 1556 -91 
Q 1019 -91 701 211 
Q 384 513 384 1019 
Q 384 1609 779 1909 
Q 1175 2209 1959 2209 
L 2766 2209 
L 2766 2266 
Q 2766 2663 2505 2880 
Q 2244 3097 1772 3097 
Q 1472 3097 1187 3025 
Q 903 2953 641 2809 
L 641 3341 
Q 956 3463 1253 3523 
Q 1550 3584 1831 3584 
Q 2591 3584 2966 3190 
Q 3341 2797 3341 1997 
z
" transform="scale(0.015625)"/>
       <path id="DejaVuSans-6d" d="M 3328 2828 
Q 3544 3216 3844 3400 
Q 4144 3584 4550 3584 
Q 5097 3584 5394 3201 
Q 5691 2819 5691 2113 
L 5691 0 
L 5113 0 
L 5113 2094 
Q 5113 2597 4934 2840 
Q 4756 3084 4391 3084 
Q 3944 3084 3684 2787 
Q 3425 2491 3425 1978 
L 3425 0 
L 2847 0 
L 2847 2094 
Q 2847 2600 2669 2842 
Q 2491 3084 2119 3084 
Q 1678 3084 1418 2786 
Q 1159 2488 1159 1978 
L 1159 0 
L 581 0 
L 581 3500 
L 1159 3500 
L 1159 2956 
Q 1356 3278 1631 3431 
Q 1906 3584 2284 3584 
Q 2666 3584 2933 3390 
Q 3200 3197 3328 2828 
z
" transform="scale(0.015625)"/>
       <path id="DejaVuSans-70" d="M 1159 525 
L 1159 -1331 
L 581 -1331 
L 581 3500 
L 1159 3500 
L 1159 2969 
Q 1341 3281 1617 3432 
Q 1894 3584 2278 3584 
Q 2916 3584 3314 3078 
Q 3713 2572 3713 1747 
Q 3713 922 3314 415 
Q 2916 -91 2278 -91 
Q 1894 -91 1617 61 
Q 1341 213 1159 525 
z
M 3116 1747 
Q 3116 2381 2855 2742 
Q 2594 3103 2138 3103 
Q 1681 3103 1420 2742 
Q 1159 2381 1159 1747 
Q 1159 1113 1420 752 
Q 1681 391 2138 391 
Q 2594 391 2855 752 
Q 3116 1113 3116 1747 
z
" transform="scale(0.015625)"/>
       <path id="DejaVuSans-6c" d="M 603 4863 
L 1178 4863 
L 1178 0 
L 603 0 
L 603 4863 
z
" transform="scale(0.015625)"/>
       <path id="DejaVuSans-65" d="M 3597 1894 
L 3597 1613 
L 953 1613 
Q 991 1019 1311 708 
Q 1631 397 2203 397 
Q 2534 397 2845 478 
Q 3156 559 3463 722 
L 3463 178 
Q 3153 47 2828 -22 
Q 2503 -91 2169 -91 
Q 1331 -91 842 396 
Q 353 884 353 1716 
Q 353 2575 817 3079 
Q 1281 3584 2069 3584 
Q 2775 3584 3186 3129 
Q 3597 2675 3597 1894 
z
M 3022 2063 
Q 3016 2534 2758 2815 
Q 2500 3097 2075 3097 
Q 1594 3097 1305 2825 
Q 1016 2553 972 2059 
L 3022 2063 
z
" transform="scale(0.015625)"/>
       <path id="DejaVuSans-20" transform="scale(0.015625)"/>
       <path id="DejaVuSans-4d" d="M 628 4666 
L 1569 4666 
L 2759 1491 
L 3956 4666 
L 4897 4666 
L 4897 0 
L 4281 0 
L 4281 4097 
L 3078 897 
L 2444 897 
L 1241 4097 
L 1241 0 
L 628 0 
L 628 4666 
z
" transform="scale(0.015625)"/>
       <path id="DejaVuSans-6e" d="M 3513 2113 
L 3513 0 
L 2938 0 
L 2938 2094 
Q 2938 2591 2744 2837 
Q 2550 3084 2163 3084 
Q 1697 3084 1428 2787 
Q 1159 2491 1159 1978 
L 1159 0 
L 581 0 
L 581 3500 
L 1159 3500 
L 1159 2956 
Q 1366 3272 1645 3428 
Q 1925 3584 2291 3584 
Q 2894 3584 3203 3211 
Q 3513 2838 3513 2113 
z
" transform="scale(0.015625)"/>
      </defs>
      <use xlink:href="#DejaVuSans-53"/>
      <use xlink:href="#DejaVuSans-61" transform="translate(63.476562 0)"/>
      <use xlink:href="#DejaVuSans-6d" transform="translate(124.755859 0)"/>
      <use xlink:href="#DejaVuSans-70" transform="translate(222.167969 0)"/>
      <use xlink:href="#DejaVuSans-6c" transform="translate(285.644531 0)"/>
      <use xlink:href="#DejaVuSans-65" transform="translate(313.427734 0)"/>
      <use xlink:href="#DejaVuSans-20" transform="translate(374.951172 0)"/>
      <use xlink:href="#DejaVuSans-4d" transform="translate(406.738281 0)"/>
      <use xlink:href="#DejaVuSans-65" transform="translate(493.017578 0)"/>
      <use xlink:href="#DejaVuSans-61" transform="translate(554.541016 0)"/>
      <use xlink:href="#DejaVuSans-6e" transform="translate(615.820312 0)"/>
     </g>
    </g>
   </g>
   <g id="matplotlib.axis_2">
    <g id="ytick_1">
     <g id="line2d_13">
      <path d="M 43.78125 354.958125 
L 601.78125 354.958125 
" clip-path="url(#p2354bcafec)" style="fill: none; stroke: #b0b0b0; stroke-width: 0.8; stroke-linecap: square"/>
     </g>
     <g id="line2d_14">
      <defs>
       <path id="mad4c63d745" d="M 0 0 
L -3.5 0 
" style="stroke: #000000; stroke-width: 0.8"/>
      </defs>
      <g>
       <use xlink:href="#mad4c63d745" x="43.78125" y="354.958125" style="stroke: #000000; stroke-width: 0.8"/>
      </g>
     </g>
     <g id="text_8">
      <!-- 0.0 -->
      <g transform="translate(20.878125 358.757344) scale(0.1 -0.1)">
       <defs>
        <path id="DejaVuSans-2e" d="M 684 794 
L 1344 794 
L 1344 0 
L 684 0 
L 684 794 
z
" transform="scale(0.015625)"/>
       </defs>
       <use xlink:href="#DejaVuSans-30"/>
       <use xlink:href="#DejaVuSans-2e" transform="translate(63.623047 0)"/>
       <use xlink:href="#DejaVuSans-30" transform="translate(95.410156 0)"/>
      </g>
     </g>
    </g>
    <g id="ytick_2">
     <g id="line2d_15">
      <path d="M 43.78125 286.193855 
L 601.78125 286.193855 
" clip-path="url(#p2354bcafec)" style="fill: none; stroke: #b0b0b0; stroke-width: 0.8; stroke-linecap: square"/>
     </g>
     <g id="line2d_16">
      <g>
       <use xlink:href="#mad4c63d745" x="43.78125" y="286.193855" style="stroke: #000000; stroke-width: 0.8"/>
      </g>
     </g>
     <g id="text_9">
      <!-- 0.5 -->
      <g transform="translate(20.878125 289.993074) scale(0.1 -0.1)">
       <defs>
        <path id="DejaVuSans-35" d="M 691 4666 
L 3169 4666 
L 3169 4134 
L 1269 4134 
L 1269 2991 
Q 1406 3038 1543 3061 
Q 1681 3084 1819 3084 
Q 2600 3084 3056 2656 
Q 3513 2228 3513 1497 
Q 3513 744 3044 326 
Q 2575 -91 1722 -91 
Q 1428 -91 1123 -41 
Q 819 9 494 109 
L 494 744 
Q 775 591 1075 516 
Q 1375 441 1709 441 
Q 2250 441 2565 725 
Q 2881 1009 2881 1497 
Q 2881 1984 2565 2268 
Q 2250 2553 1709 2553 
Q 1456 2553 1204 2497 
Q 953 2441 691 2322 
L 691 4666 
z
" transform="scale(0.015625)"/>
       </defs>
       <use xlink:href="#DejaVuSans-30"/>
       <use xlink:href="#DejaVuSans-2e" transform="translate(63.623047 0)"/>
       <use xlink:href="#DejaVuSans-35" transform="translate(95.410156 0)"/>
      </g>
     </g>
    </g>
    <g id="ytick_3">
     <g id="line2d_17">
      <path d="M 43.78125 217.429586 
L 601.78125 217.429586 
" clip-path="url(#p2354bcafec)" style="fill: none; stroke: #b0b0b0; stroke-width: 0.8; stroke-linecap: square"/>
     </g>
     <g id="line2d_18">
      <g>
       <use xlink:href="#mad4c63d745" x="43.78125" y="217.429586" style="stroke: #000000; stroke-width: 0.8"/>
      </g>
     </g>
     <g id="text_10">
      <!-- 1.0 -->
      <g transform="translate(20.878125 221.228804) scale(0.1 -0.1)">
       <use xlink:href="#DejaVuSans-31"/>
       <use xlink:href="#DejaVuSans-2e" transform="translate(63.623047 0)"/>
       <use xlink:href="#DejaVuSans-30" transform="translate(95.410156 0)"/>
      </g>
     </g>
    </g>
    <g id="ytick_4">
     <g id="line2d_19">
      <path d="M 43.78125 148.665316 
L 601.78125 148.665316 
" clip-path="url(#p2354bcafec)" style="fill: none; stroke: #b0b0b0; stroke-width: 0.8; stroke-linecap: square"/>
     </g>
     <g id="line2d_20">
      <g>
       <use xlink:href="#mad4c63d745" x="43.78125" y="148.665316" style="stroke: #000000; stroke-width: 0.8"/>
      </g>
     </g>
     <g id="text_11">
      <!-- 1.5 -->
      <g transform="translate(20.878125 152.464535) scale(0.1 -0.1)">
       <use xlink:href="#DejaVuSans-31"/>
       <use xlink:href="#DejaVuSans-2e" transform="translate(63.623047 0)"/>
       <use xlink:href="#DejaVuSans-35" transform="translate(95.410156 0)"/>
      </g>
     </g>
    </g>
    <g id="ytick_5">
     <g id="line2d_21">
      <path d="M 43.78125 79.901046 
L 601.78125 79.901046 
" clip-path="url(#p2354bcafec)" style="fill: none; stroke: #b0b0b0; stroke-width: 0.8; stroke-linecap: square"/>
     </g>
     <g id="line2d_22">
      <g>
       <use xlink:href="#mad4c63d745" x="43.78125" y="79.901046" style="stroke: #000000; stroke-width: 0.8"/>
      </g>
     </g>
     <g id="text_12">
      <!-- 2.0 -->
      <g transform="translate(20.878125 83.700265) scale(0.1 -0.1)">
       <use xlink:href="#DejaVuSans-32"/>
       <use xlink:href="#DejaVuSans-2e" transform="translate(63.623047 0)"/>
       <use xlink:href="#DejaVuSans-30" transform="translate(95.410156 0)"/>
      </g>
     </g>
    </g>
    <g id="text_13">
     <!-- Density -->
     <g transform="translate(14.798438 207.646719) rotate(-90) scale(0.1 -0.1)">
      <defs>
       <path id="DejaVuSans-44" d="M 1259 4147 
L 1259 519 
L 2022 519 
Q 2988 519 3436 956 
Q 3884 1394 3884 2338 
Q 3884 3275 3436 3711 
Q 2988 4147 2022 4147 
L 1259 4147 
z
M 628 4666 
L 1925 4666 
Q 3281 4666 3915 4102 
Q 4550 3538 4550 2338 
Q 4550 1131 3912 565 
Q 3275 0 1925 0 
L 628 0 
L 628 4666 
z
" transform="scale(0.015625)"/>
       <path id="DejaVuSans-73" d="M 2834 3397 
L 2834 2853 
Q 2591 2978 2328 3040 
Q 2066 3103 1784 3103 
Q 1356 3103 1142 2972 
Q 928 2841 928 2578 
Q 928 2378 1081 2264 
Q 1234 2150 1697 2047 
L 1894 2003 
Q 2506 1872 2764 1633 
Q 3022 1394 3022 966 
Q 3022 478 2636 193 
Q 2250 -91 1575 -91 
Q 1294 -91 989 -36 
Q 684 19 347 128 
L 347 722 
Q 666 556 975 473 
Q 1284 391 1588 391 
Q 1994 391 2212 530 
Q 2431 669 2431 922 
Q 2431 1156 2273 1281 
Q 2116 1406 1581 1522 
L 1381 1569 
Q 847 1681 609 1914 
Q 372 2147 372 2553 
Q 372 3047 722 3315 
Q 1072 3584 1716 3584 
Q 2034 3584 2315 3537 
Q 2597 3491 2834 3397 
z
" transform="scale(0.015625)"/>
       <path id="DejaVuSans-69" d="M 603 3500 
L 1178 3500 
L 1178 0 
L 603 0 
L 603 3500 
z
M 603 4863 
L 1178 4863 
L 1178 4134 
L 603 4134 
L 603 4863 
z
" transform="scale(0.015625)"/>
       <path id="DejaVuSans-74" d="M 1172 4494 
L 1172 3500 
L 2356 3500 
L 2356 3053 
L 1172 3053 
L 1172 1153 
Q 1172 725 1289 603 
Q 1406 481 1766 481 
L 2356 481 
L 2356 0 
L 1766 0 
Q 1100 0 847 248 
Q 594 497 594 1153 
L 594 3053 
L 172 3053 
L 172 3500 
L 594 3500 
L 594 4494 
L 1172 4494 
z
" transform="scale(0.015625)"/>
       <path id="DejaVuSans-79" d="M 2059 -325 
Q 1816 -950 1584 -1140 
Q 1353 -1331 966 -1331 
L 506 -1331 
L 506 -850 
L 844 -850 
Q 1081 -850 1212 -737 
Q 1344 -625 1503 -206 
L 1606 56 
L 191 3500 
L 800 3500 
L 1894 763 
L 2988 3500 
L 3597 3500 
L 2059 -325 
z
" transform="scale(0.015625)"/>
      </defs>
      <use xlink:href="#DejaVuSans-44"/>
      <use xlink:href="#DejaVuSans-65" transform="translate(77.001953 0)"/>
      <use xlink:href="#DejaVuSans-6e" transform="translate(138.525391 0)"/>
      <use xlink:href="#DejaVuSans-73" transform="translate(201.904297 0)"/>
      <use xlink:href="#DejaVuSans-69" transform="translate(254.003906 0)"/>
      <use xlink:href="#DejaVuSans-74" transform="translate(281.787109 0)"/>
      <use xlink:href="#DejaVuSans-79" transform="translate(320.996094 0)"/>
     </g>
    </g>
   </g>
   <g id="line2d_23">
    <path d="M 69.144886 354.958033 
L 83.088709 354.850851 
L 85.959497 354.609941 
L 87.805003 354.252053 
L 89.240396 353.767056 
L 90.470733 353.128251 
L 91.496015 352.375454 
L 92.521296 351.356617 
L 93.546577 349.996003 
L 94.571858 348.20324 
L 95.597139 345.872893 
L 96.62242 342.884945 
L 97.647701 339.10646 
L 98.672982 334.394691 
L 99.698263 328.601855 
L 100.723545 321.581699 
L 101.953882 311.346722 
L 103.184219 298.953285 
L 104.414557 284.2749 
L 105.84995 264.231958 
L 107.4904 237.717279 
L 109.540962 200.281344 
L 114.462311 107.863958 
L 115.897705 86.120784 
L 116.922986 73.526516 
L 117.743211 65.549053 
L 118.563436 59.631471 
L 119.178604 56.62746 
L 119.588717 55.330691 
L 119.998829 54.607829 
L 120.203886 54.463048 
L 120.408942 54.463048 
L 120.613998 54.607829 
L 121.02411 55.330691 
L 121.434223 56.62746 
L 122.049392 59.631471 
L 122.66456 63.87052 
L 123.484785 71.348061 
L 124.510066 83.386217 
L 125.740404 101.226929 
L 127.175797 125.648994 
L 129.431416 168.477965 
L 132.712315 230.5575 
L 134.557821 261.119118 
L 135.993215 281.602693 
L 137.428608 298.953285 
L 138.658946 311.346722 
L 139.889283 321.581699 
L 141.11962 329.854012 
L 142.144901 335.418777 
L 143.170182 339.932144 
L 144.195464 343.541358 
L 145.220745 346.387529 
L 146.246026 348.60121 
L 147.271307 350.29959 
L 148.296588 351.585097 
L 149.321869 352.545121 
L 150.552206 353.369224 
L 151.782544 353.929869 
L 153.217937 354.352669 
L 155.063443 354.662136 
L 157.729174 354.859859 
L 162.650523 354.947764 
L 171.467941 354.958033 
L 171.467941 354.958033 
" clip-path="url(#p2354bcafec)" style="fill: none; stroke: #d62728; stroke-width: 2; stroke-linecap: square"/>
   </g>
   <g id="patch_153">
    <path d="M 43.78125 354.958125 
L 43.78125 22.318125 
" style="fill: none; stroke: #000000; stroke-width: 0.8; stroke-linejoin: miter; stroke-linecap: square"/>
   </g>
   <g id="patch_154">
    <path d="M 601.78125 354.958125 
L 601.78125 22.318125 
" style="fill: none; stroke: #000000; stroke-width: 0.8; stroke-linejoin: miter; stroke-linecap: square"/>
   </g>
   <g id="patch_155">
    <path d="M 43.78125 354.958125 
L 601.78125 354.958125 
" style="fill: none; stroke: #000000; stroke-width: 0.8; stroke-linejoin: miter; stroke-linecap: square"/>
   </g>
   <g id="patch_156">
    <path d="M 43.78125 22.318125 
L 601.78125 22.318125 
" style="fill: none; stroke: #000000; stroke-width: 0.8; stroke-linejoin: miter; stroke-linecap: square"/>
   </g>
   <g id="text_14">
    <!-- Central Limit Theorem (Explanation with Legend) -->
    <g transform="translate(174.908438 16.318125) scale(0.12 -0.12)">
     <defs>
      <path id="DejaVuSans-43" d="M 4122 4306 
L 4122 3641 
Q 3803 3938 3442 4084 
Q 3081 4231 2675 4231 
Q 1875 4231 1450 3742 
Q 1025 3253 1025 2328 
Q 1025 1406 1450 917 
Q 1875 428 2675 428 
Q 3081 428 3442 575 
Q 3803 722 4122 1019 
L 4122 359 
Q 3791 134 3420 21 
Q 3050 -91 2638 -91 
Q 1578 -91 968 557 
Q 359 1206 359 2328 
Q 359 3453 968 4101 
Q 1578 4750 2638 4750 
Q 3056 4750 3426 4639 
Q 3797 4528 4122 4306 
z
" transform="scale(0.015625)"/>
      <path id="DejaVuSans-72" d="M 2631 2963 
Q 2534 3019 2420 3045 
Q 2306 3072 2169 3072 
Q 1681 3072 1420 2755 
Q 1159 2438 1159 1844 
L 1159 0 
L 581 0 
L 581 3500 
L 1159 3500 
L 1159 2956 
Q 1341 3275 1631 3429 
Q 1922 3584 2338 3584 
Q 2397 3584 2469 3576 
Q 2541 3569 2628 3553 
L 2631 2963 
z
" transform="scale(0.015625)"/>
      <path id="DejaVuSans-4c" d="M 628 4666 
L 1259 4666 
L 1259 531 
L 3531 531 
L 3531 0 
L 628 0 
L 628 4666 
z
" transform="scale(0.015625)"/>
      <path id="DejaVuSans-54" d="M -19 4666 
L 3928 4666 
L 3928 4134 
L 2272 4134 
L 2272 0 
L 1638 0 
L 1638 4134 
L -19 4134 
L -19 4666 
z
" transform="scale(0.015625)"/>
      <path id="DejaVuSans-68" d="M 3513 2113 
L 3513 0 
L 2938 0 
L 2938 2094 
Q 2938 2591 2744 2837 
Q 2550 3084 2163 3084 
Q 1697 3084 1428 2787 
Q 1159 2491 1159 1978 
L 1159 0 
L 581 0 
L 581 4863 
L 1159 4863 
L 1159 2956 
Q 1366 3272 1645 3428 
Q 1925 3584 2291 3584 
Q 2894 3584 3203 3211 
Q 3513 2838 3513 2113 
z
" transform="scale(0.015625)"/>
      <path id="DejaVuSans-6f" d="M 1959 3097 
Q 1497 3097 1228 2736 
Q 959 2375 959 1747 
Q 959 1119 1226 758 
Q 1494 397 1959 397 
Q 2419 397 2687 759 
Q 2956 1122 2956 1747 
Q 2956 2369 2687 2733 
Q 2419 3097 1959 3097 
z
M 1959 3584 
Q 2709 3584 3137 3096 
Q 3566 2609 3566 1747 
Q 3566 888 3137 398 
Q 2709 -91 1959 -91 
Q 1206 -91 779 398 
Q 353 888 353 1747 
Q 353 2609 779 3096 
Q 1206 3584 1959 3584 
z
" transform="scale(0.015625)"/>
      <path id="DejaVuSans-28" d="M 1984 4856 
Q 1566 4138 1362 3434 
Q 1159 2731 1159 2009 
Q 1159 1288 1364 580 
Q 1569 -128 1984 -844 
L 1484 -844 
Q 1016 -109 783 600 
Q 550 1309 550 2009 
Q 550 2706 781 3412 
Q 1013 4119 1484 4856 
L 1984 4856 
z
" transform="scale(0.015625)"/>
      <path id="DejaVuSans-45" d="M 628 4666 
L 3578 4666 
L 3578 4134 
L 1259 4134 
L 1259 2753 
L 3481 2753 
L 3481 2222 
L 1259 2222 
L 1259 531 
L 3634 531 
L 3634 0 
L 628 0 
L 628 4666 
z
" transform="scale(0.015625)"/>
      <path id="DejaVuSans-78" d="M 3513 3500 
L 2247 1797 
L 3578 0 
L 2900 0 
L 1881 1375 
L 863 0 
L 184 0 
L 1544 1831 
L 300 3500 
L 978 3500 
L 1906 2253 
L 2834 3500 
L 3513 3500 
z
" transform="scale(0.015625)"/>
      <path id="DejaVuSans-77" d="M 269 3500 
L 844 3500 
L 1563 769 
L 2278 3500 
L 2956 3500 
L 3675 769 
L 4391 3500 
L 4966 3500 
L 4050 0 
L 3372 0 
L 2619 2869 
L 1863 0 
L 1184 0 
L 269 3500 
z
" transform="scale(0.015625)"/>
      <path id="DejaVuSans-67" d="M 2906 1791 
Q 2906 2416 2648 2759 
Q 2391 3103 1925 3103 
Q 1463 3103 1205 2759 
Q 947 2416 947 1791 
Q 947 1169 1205 825 
Q 1463 481 1925 481 
Q 2391 481 2648 825 
Q 2906 1169 2906 1791 
z
M 3481 434 
Q 3481 -459 3084 -895 
Q 2688 -1331 1869 -1331 
Q 1566 -1331 1297 -1286 
Q 1028 -1241 775 -1147 
L 775 -588 
Q 1028 -725 1275 -790 
Q 1522 -856 1778 -856 
Q 2344 -856 2625 -561 
Q 2906 -266 2906 331 
L 2906 616 
Q 2728 306 2450 153 
Q 2172 0 1784 0 
Q 1141 0 747 490 
Q 353 981 353 1791 
Q 353 2603 747 3093 
Q 1141 3584 1784 3584 
Q 2172 3584 2450 3431 
Q 2728 3278 2906 2969 
L 2906 3500 
L 3481 3500 
L 3481 434 
z
" transform="scale(0.015625)"/>
      <path id="DejaVuSans-64" d="M 2906 2969 
L 2906 4863 
L 3481 4863 
L 3481 0 
L 2906 0 
L 2906 525 
Q 2725 213 2448 61 
Q 2172 -91 1784 -91 
Q 1150 -91 751 415 
Q 353 922 353 1747 
Q 353 2572 751 3078 
Q 1150 3584 1784 3584 
Q 2172 3584 2448 3432 
Q 2725 3281 2906 2969 
z
M 947 1747 
Q 947 1113 1208 752 
Q 1469 391 1925 391 
Q 2381 391 2643 752 
Q 2906 1113 2906 1747 
Q 2906 2381 2643 2742 
Q 2381 3103 1925 3103 
Q 1469 3103 1208 2742 
Q 947 2381 947 1747 
z
" transform="scale(0.015625)"/>
      <path id="DejaVuSans-29" d="M 513 4856 
L 1013 4856 
Q 1481 4119 1714 3412 
Q 1947 2706 1947 2009 
Q 1947 1309 1714 600 
Q 1481 -109 1013 -844 
L 513 -844 
Q 928 -128 1133 580 
Q 1338 1288 1338 2009 
Q 1338 2731 1133 3434 
Q 928 4138 513 4856 
z
" transform="scale(0.015625)"/>
     </defs>
     <use xlink:href="#DejaVuSans-43"/>
     <use xlink:href="#DejaVuSans-65" transform="translate(69.824219 0)"/>
     <use xlink:href="#DejaVuSans-6e" transform="translate(131.347656 0)"/>
     <use xlink:href="#DejaVuSans-74" transform="translate(194.726562 0)"/>
     <use xlink:href="#DejaVuSans-72" transform="translate(233.935547 0)"/>
     <use xlink:href="#DejaVuSans-61" transform="translate(275.048828 0)"/>
     <use xlink:href="#DejaVuSans-6c" transform="translate(336.328125 0)"/>
     <use xlink:href="#DejaVuSans-20" transform="translate(364.111328 0)"/>
     <use xlink:href="#DejaVuSans-4c" transform="translate(395.898438 0)"/>
     <use xlink:href="#DejaVuSans-69" transform="translate(451.611328 0)"/>
     <use xlink:href="#DejaVuSans-6d" transform="translate(479.394531 0)"/>
     <use xlink:href="#DejaVuSans-69" transform="translate(576.806641 0)"/>
     <use xlink:href="#DejaVuSans-74" transform="translate(604.589844 0)"/>
     <use xlink:href="#DejaVuSans-20" transform="translate(643.798828 0)"/>
     <use xlink:href="#DejaVuSans-54" transform="translate(675.585938 0)"/>
     <use xlink:href="#DejaVuSans-68" transform="translate(736.669922 0)"/>
     <use xlink:href="#DejaVuSans-65" transform="translate(800.048828 0)"/>
     <use xlink:href="#DejaVuSans-6f" transform="translate(861.572266 0)"/>
     <use xlink:href="#DejaVuSans-72" transform="translate(922.753906 0)"/>
     <use xlink:href="#DejaVuSans-65" transform="translate(961.617188 0)"/>
     <use xlink:href="#DejaVuSans-6d" transform="translate(1023.140625 0)"/>
     <use xlink:href="#DejaVuSans-20" transform="translate(1120.552734 0)"/>
     <use xlink:href="#DejaVuSans-28" transform="translate(1152.339844 0)"/>
     <use xlink:href="#DejaVuSans-45" transform="translate(1191.353516 0)"/>
     <use xlink:href="#DejaVuSans-78" transform="translate(1254.537109 0)"/>
     <use xlink:href="#DejaVuSans-70" transform="translate(1313.716797 0)"/>
     <use xlink:href="#DejaVuSans-6c" transform="translate(1377.193359 0)"/>
     <use xlink:href="#DejaVuSans-61" transform="translate(1404.976562 0)"/>
     <use xlink:href="#DejaVuSans-6e" transform="translate(1466.255859 0)"/>
     <use xlink:href="#DejaVuSans-61" transform="translate(1529.634766 0)"/>
     <use xlink:href="#DejaVuSans-74" transform="translate(1590.914062 0)"/>
     <use xlink:href="#DejaVuSans-69" transform="translate(1630.123047 0)"/>
     <use xlink:href="#DejaVuSans-6f" transform="translate(1657.90625 0)"/>
     <use xlink:href="#DejaVuSans-6e" transform="translate(1719.087891 0)"/>
     <use xlink:href="#DejaVuSans-20" transform="translate(1782.466797 0)"/>
     <use xlink:href="#DejaVuSans-77" transform="translate(1814.253906 0)"/>
     <use xlink:href="#DejaVuSans-69" transform="translate(1896.041016 0)"/>
     <use xlink:href="#DejaVuSans-74" transform="translate(1923.824219 0)"/>
     <use xlink:href="#DejaVuSans-68" transform="translate(1963.033203 0)"/>
     <use xlink:href="#DejaVuSans-20" transform="translate(2026.412109 0)"/>
     <use xlink:href="#DejaVuSans-4c" transform="translate(2058.199219 0)"/>
     <use xlink:href="#DejaVuSans-65" transform="translate(2112.162109 0)"/>
     <use xlink:href="#DejaVuSans-67" transform="translate(2173.685547 0)"/>
     <use xlink:href="#DejaVuSans-65" transform="translate(2237.162109 0)"/>
     <use xlink:href="#DejaVuSans-6e" transform="translate(2298.685547 0)"/>
     <use xlink:href="#DejaVuSans-64" transform="translate(2362.064453 0)"/>
     <use xlink:href="#DejaVuSans-29" transform="translate(2425.541016 0)"/>
    </g>
   </g>
   <g id="legend_1">
    <g id="patch_157">
     <path d="M 449.848437 89.030625 
L 594.78125 89.030625 
Q 596.78125 89.030625 596.78125 87.030625 
L 596.78125 29.318125 
Q 596.78125 27.318125 594.78125 27.318125 
L 449.848437 27.318125 
Q 447.848437 27.318125 447.848437 29.318125 
L 447.848437 87.030625 
Q 447.848437 89.030625 449.848437 89.030625 
z
" style="fill: #ffffff; opacity: 0.8; stroke: #cccccc; stroke-linejoin: miter"/>
    </g>
    <g id="patch_158">
     <path d="M 451.848437 38.916562 
L 471.848437 38.916562 
L 471.848437 31.916562 
L 451.848437 31.916562 
z
" style="fill: #1f77b4; opacity: 0.3"/>
    </g>
    <g id="text_15">
     <!-- n = 1 -->
     <g transform="translate(479.848437 38.916562) scale(0.1 -0.1)">
      <defs>
       <path id="DejaVuSans-3d" d="M 678 2906 
L 4684 2906 
L 4684 2381 
L 678 2381 
L 678 2906 
z
M 678 1631 
L 4684 1631 
L 4684 1100 
L 678 1100 
L 678 1631 
z
" transform="scale(0.015625)"/>
      </defs>
      <use xlink:href="#DejaVuSans-6e"/>
      <use xlink:href="#DejaVuSans-20" transform="translate(63.378906 0)"/>
      <use xlink:href="#DejaVuSans-3d" transform="translate(95.166016 0)"/>
      <use xlink:href="#DejaVuSans-20" transform="translate(178.955078 0)"/>
      <use xlink:href="#DejaVuSans-31" transform="translate(210.742188 0)"/>
     </g>
    </g>
    <g id="patch_159">
     <path d="M 451.848437 53.594688 
L 471.848437 53.594688 
L 471.848437 46.594688 
L 451.848437 46.594688 
z
" style="fill: #ff7f0e; opacity: 0.3"/>
    </g>
    <g id="text_16">
     <!-- n = 5 -->
     <g transform="translate(479.848437 53.594688) scale(0.1 -0.1)">
      <use xlink:href="#DejaVuSans-6e"/>
      <use xlink:href="#DejaVuSans-20" transform="translate(63.378906 0)"/>
      <use xlink:href="#DejaVuSans-3d" transform="translate(95.166016 0)"/>
      <use xlink:href="#DejaVuSans-20" transform="translate(178.955078 0)"/>
      <use xlink:href="#DejaVuSans-35" transform="translate(210.742188 0)"/>
     </g>
    </g>
    <g id="patch_160">
     <path d="M 451.848437 68.272812 
L 471.848437 68.272812 
L 471.848437 61.272812 
L 451.848437 61.272812 
z
" style="fill: #2ca02c; opacity: 0.3"/>
    </g>
    <g id="text_17">
     <!-- n = 30 -->
     <g transform="translate(479.848437 68.272812) scale(0.1 -0.1)">
      <defs>
       <path id="DejaVuSans-33" d="M 2597 2516 
Q 3050 2419 3304 2112 
Q 3559 1806 3559 1356 
Q 3559 666 3084 287 
Q 2609 -91 1734 -91 
Q 1441 -91 1130 -33 
Q 819 25 488 141 
L 488 750 
Q 750 597 1062 519 
Q 1375 441 1716 441 
Q 2309 441 2620 675 
Q 2931 909 2931 1356 
Q 2931 1769 2642 2001 
Q 2353 2234 1838 2234 
L 1294 2234 
L 1294 2753 
L 1863 2753 
Q 2328 2753 2575 2939 
Q 2822 3125 2822 3475 
Q 2822 3834 2567 4026 
Q 2313 4219 1838 4219 
Q 1578 4219 1281 4162 
Q 984 4106 628 3988 
L 628 4550 
Q 988 4650 1302 4700 
Q 1616 4750 1894 4750 
Q 2613 4750 3031 4423 
Q 3450 4097 3450 3541 
Q 3450 3153 3228 2886 
Q 3006 2619 2597 2516 
z
" transform="scale(0.015625)"/>
      </defs>
      <use xlink:href="#DejaVuSans-6e"/>
      <use xlink:href="#DejaVuSans-20" transform="translate(63.378906 0)"/>
      <use xlink:href="#DejaVuSans-3d" transform="translate(95.166016 0)"/>
      <use xlink:href="#DejaVuSans-20" transform="translate(178.955078 0)"/>
      <use xlink:href="#DejaVuSans-33" transform="translate(210.742188 0)"/>
      <use xlink:href="#DejaVuSans-30" transform="translate(274.365234 0)"/>
     </g>
    </g>
    <g id="line2d_24">
     <path d="M 451.848437 79.450938 
L 461.848437 79.450938 
L 471.848437 79.450938 
" style="fill: none; stroke: #d62728; stroke-width: 2; stroke-linecap: square"/>
    </g>
    <g id="text_18">
     <!-- Normal Approx (n=30) -->
     <g transform="translate(479.848437 82.950938) scale(0.1 -0.1)">
      <defs>
       <path id="DejaVuSans-4e" d="M 628 4666 
L 1478 4666 
L 3547 763 
L 3547 4666 
L 4159 4666 
L 4159 0 
L 3309 0 
L 1241 3903 
L 1241 0 
L 628 0 
L 628 4666 
z
" transform="scale(0.015625)"/>
       <path id="DejaVuSans-41" d="M 2188 4044 
L 1331 1722 
L 3047 1722 
L 2188 4044 
z
M 1831 4666 
L 2547 4666 
L 4325 0 
L 3669 0 
L 3244 1197 
L 1141 1197 
L 716 0 
L 50 0 
L 1831 4666 
z
" transform="scale(0.015625)"/>
      </defs>
      <use xlink:href="#DejaVuSans-4e"/>
      <use xlink:href="#DejaVuSans-6f" transform="translate(74.804688 0)"/>
      <use xlink:href="#DejaVuSans-72" transform="translate(135.986328 0)"/>
      <use xlink:href="#DejaVuSans-6d" transform="translate(175.349609 0)"/>
      <use xlink:href="#DejaVuSans-61" transform="translate(272.761719 0)"/>
      <use xlink:href="#DejaVuSans-6c" transform="translate(334.041016 0)"/>
      <use xlink:href="#DejaVuSans-20" transform="translate(361.824219 0)"/>
      <use xlink:href="#DejaVuSans-41" transform="translate(393.611328 0)"/>
      <use xlink:href="#DejaVuSans-70" transform="translate(462.019531 0)"/>
      <use xlink:href="#DejaVuSans-70" transform="translate(525.496094 0)"/>
      <use xlink:href="#DejaVuSans-72" transform="translate(588.972656 0)"/>
      <use xlink:href="#DejaVuSans-6f" transform="translate(627.835938 0)"/>
      <use xlink:href="#DejaVuSans-78" transform="translate(685.892578 0)"/>
      <use xlink:href="#DejaVuSans-20" transform="translate(745.072266 0)"/>
      <use xlink:href="#DejaVuSans-28" transform="translate(776.859375 0)"/>
      <use xlink:href="#DejaVuSans-6e" transform="translate(815.873047 0)"/>
      <use xlink:href="#DejaVuSans-3d" transform="translate(879.251953 0)"/>
      <use xlink:href="#DejaVuSans-33" transform="translate(963.041016 0)"/>
      <use xlink:href="#DejaVuSans-30" transform="translate(1026.664062 0)"/>
      <use xlink:href="#DejaVuSans-29" transform="translate(1090.287109 0)"/>
     </g>
    </g>
   </g>
  </g>
 </g>
 <defs>
  <clipPath id="p2354bcafec">
   <rect x="43.78125" y="22.318125" width="558" height="332.64"/>
  </clipPath>
 </defs>
</svg>
