<?xml version="1.0" encoding="utf-8" standalone="no"?>
<!DOCTYPE svg PUBLIC "-//W3C//DTD SVG 1.1//EN"
  "http://www.w3.org/Graphics/SVG/1.1/DTD/svg11.dtd">
<svg xmlns:xlink="http://www.w3.org/1999/xlink" width="497.38125pt" height="321.95625pt" viewBox="0 0 497.38125 321.95625" xmlns="http://www.w3.org/2000/svg" version="1.1">
 <metadata>
  <rdf:RDF xmlns:dc="http://purl.org/dc/elements/1.1/" xmlns:cc="http://creativecommons.org/ns#" xmlns:rdf="http://www.w3.org/1999/02/22-rdf-syntax-ns#">
   <cc:Work>
    <dc:type rdf:resource="http://purl.org/dc/dcmitype/StillImage"/>
    <dc:date>2026-04-17T07:15:30.454857</dc:date>
    <dc:format>image/svg+xml</dc:format>
    <dc:creator>
     <cc:Agent>
      <dc:title>Matplotlib v3.10.8, https://matplotlib.org/</dc:title>
     </cc:Agent>
    </dc:creator>
   </cc:Work>
  </rdf:RDF>
 </metadata>
 <defs>
  <style type="text/css">*{stroke-linejoin: round; stroke-linecap: butt}</style>
 </defs>
 <g id="figure_1">
  <g id="patch_1">
   <path d="M 0 321.95625 
L 497.38125 321.95625 
L 497.38125 0 
L 0 0 
z
" style="fill: #ffffff"/>
  </g>
  <g id="axes_1">
   <g id="patch_2">
    <path d="M 43.78125 284.4 
L 490.18125 284.4 
L 490.18125 7.2 
L 43.78125 7.2 
z
" style="fill: #ffffff"/>
   </g>
   <g id="patch_3">
    <path d="M 64.072159 284.4 
L 72.188523 284.4 
L 72.188523 282.969106 
L 64.072159 282.969106 
z
" clip-path="url(#pdd5430454a)" style="fill: #1f77b4; opacity: 0.25"/>
   </g>
   <g id="patch_4">
    <path d="M 72.188523 284.4 
L 80.304886 284.4 
L 80.304886 284.4 
L 72.188523 284.4 
z
" clip-path="url(#pdd5430454a)" style="fill: #1f77b4; opacity: 0.25"/>
   </g>
   <g id="patch_5">
    <path d="M 80.304886 284.4 
L 88.42125 284.4 
L 88.42125 284.4 
L 80.304886 284.4 
z
" clip-path="url(#pdd5430454a)" style="fill: #1f77b4; opacity: 0.25"/>
   </g>
   <g id="patch_6">
    <path d="M 88.42125 284.4 
L 96.537614 284.4 
L 96.537614 282.969106 
L 88.42125 282.969106 
z
" clip-path="url(#pdd5430454a)" style="fill: #1f77b4; opacity: 0.25"/>
   </g>
   <g id="patch_7">
    <path d="M 96.537614 284.4 
L 104.653977 284.4 
L 104.653977 282.253659 
L 96.537614 282.253659 
z
" clip-path="url(#pdd5430454a)" style="fill: #1f77b4; opacity: 0.25"/>
   </g>
   <g id="patch_8">
    <path d="M 104.653977 284.4 
L 112.770341 284.4 
L 112.770341 276.530081 
L 104.653977 276.530081 
z
" clip-path="url(#pdd5430454a)" style="fill: #1f77b4; opacity: 0.25"/>
   </g>
   <g id="patch_9">
    <path d="M 112.770341 284.4 
L 120.886705 284.4 
L 120.886705 272.237398 
L 112.770341 272.237398 
z
" clip-path="url(#pdd5430454a)" style="fill: #1f77b4; opacity: 0.25"/>
   </g>
   <g id="patch_10">
    <path d="M 120.886705 284.4 
L 129.003068 284.4 
L 129.003068 264.36748 
L 120.886705 264.36748 
z
" clip-path="url(#pdd5430454a)" style="fill: #1f77b4; opacity: 0.25"/>
   </g>
   <g id="patch_11">
    <path d="M 129.003068 284.4 
L 137.119432 284.4 
L 137.119432 247.196748 
L 129.003068 247.196748 
z
" clip-path="url(#pdd5430454a)" style="fill: #1f77b4; opacity: 0.25"/>
   </g>
   <g id="patch_12">
    <path d="M 137.119432 284.4 
L 145.235795 284.4 
L 145.235795 225.733333 
L 137.119432 225.733333 
z
" clip-path="url(#pdd5430454a)" style="fill: #1f77b4; opacity: 0.25"/>
   </g>
   <g id="patch_13">
    <path d="M 145.235795 284.4 
L 153.352159 284.4 
L 153.352159 191.39187 
L 145.235795 191.39187 
z
" clip-path="url(#pdd5430454a)" style="fill: #1f77b4; opacity: 0.25"/>
   </g>
   <g id="patch_14">
    <path d="M 153.352159 284.4 
L 161.468523 284.4 
L 161.468523 167.782114 
L 153.352159 167.782114 
z
" clip-path="url(#pdd5430454a)" style="fill: #1f77b4; opacity: 0.25"/>
   </g>
   <g id="patch_15">
    <path d="M 161.468523 284.4 
L 169.584886 284.4 
L 169.584886 132.009756 
L 161.468523 132.009756 
z
" clip-path="url(#pdd5430454a)" style="fill: #1f77b4; opacity: 0.25"/>
   </g>
   <g id="patch_16">
    <path d="M 169.584886 284.4 
L 177.70125 284.4 
L 177.70125 124.855285 
L 169.584886 124.855285 
z
" clip-path="url(#pdd5430454a)" style="fill: #1f77b4; opacity: 0.25"/>
   </g>
   <g id="patch_17">
    <path d="M 177.70125 284.4 
L 185.817614 284.4 
L 185.817614 85.505691 
L 177.70125 85.505691 
z
" clip-path="url(#pdd5430454a)" style="fill: #1f77b4; opacity: 0.25"/>
   </g>
   <g id="patch_18">
    <path d="M 185.817614 284.4 
L 193.933977 284.4 
L 193.933977 60.465041 
L 185.817614 60.465041 
z
" clip-path="url(#pdd5430454a)" style="fill: #1f77b4; opacity: 0.25"/>
   </g>
   <g id="patch_19">
    <path d="M 193.933977 284.4 
L 202.050341 284.4 
L 202.050341 51.164228 
L 193.933977 51.164228 
z
" clip-path="url(#pdd5430454a)" style="fill: #1f77b4; opacity: 0.25"/>
   </g>
   <g id="patch_20">
    <path d="M 202.050341 284.4 
L 210.166705 284.4 
L 210.166705 33.278049 
L 202.050341 33.278049 
z
" clip-path="url(#pdd5430454a)" style="fill: #1f77b4; opacity: 0.25"/>
   </g>
   <g id="patch_21">
    <path d="M 210.166705 284.4 
L 218.283068 284.4 
L 218.283068 20.4 
L 210.166705 20.4 
z
" clip-path="url(#pdd5430454a)" style="fill: #1f77b4; opacity: 0.25"/>
   </g>
   <g id="patch_22">
    <path d="M 218.283068 284.4 
L 226.399432 284.4 
L 226.399432 36.139837 
L 218.283068 36.139837 
z
" clip-path="url(#pdd5430454a)" style="fill: #1f77b4; opacity: 0.25"/>
   </g>
   <g id="patch_23">
    <path d="M 226.399432 284.4 
L 234.515795 284.4 
L 234.515795 56.887805 
L 226.399432 56.887805 
z
" clip-path="url(#pdd5430454a)" style="fill: #1f77b4; opacity: 0.25"/>
   </g>
   <g id="patch_24">
    <path d="M 234.515795 284.4 
L 242.632159 284.4 
L 242.632159 50.44878 
L 234.515795 50.44878 
z
" clip-path="url(#pdd5430454a)" style="fill: #1f77b4; opacity: 0.25"/>
   </g>
   <g id="patch_25">
    <path d="M 242.632159 284.4 
L 250.748523 284.4 
L 250.748523 106.253659 
L 242.632159 106.253659 
z
" clip-path="url(#pdd5430454a)" style="fill: #1f77b4; opacity: 0.25"/>
   </g>
   <g id="patch_26">
    <path d="M 250.748523 284.4 
L 258.864886 284.4 
L 258.864886 123.42439 
L 250.748523 123.42439 
z
" clip-path="url(#pdd5430454a)" style="fill: #1f77b4; opacity: 0.25"/>
   </g>
   <g id="patch_27">
    <path d="M 258.864886 284.4 
L 266.98125 284.4 
L 266.98125 150.611382 
L 258.864886 150.611382 
z
" clip-path="url(#pdd5430454a)" style="fill: #1f77b4; opacity: 0.25"/>
   </g>
   <g id="patch_28">
    <path d="M 266.98125 284.4 
L 275.097614 284.4 
L 275.097614 167.782114 
L 266.98125 167.782114 
z
" clip-path="url(#pdd5430454a)" style="fill: #1f77b4; opacity: 0.25"/>
   </g>
   <g id="patch_29">
    <path d="M 275.097614 284.4 
L 283.213977 284.4 
L 283.213977 183.521951 
L 275.097614 183.521951 
z
" clip-path="url(#pdd5430454a)" style="fill: #1f77b4; opacity: 0.25"/>
   </g>
   <g id="patch_30">
    <path d="M 283.213977 284.4 
L 291.330341 284.4 
L 291.330341 199.261789 
L 283.213977 199.261789 
z
" clip-path="url(#pdd5430454a)" style="fill: #1f77b4; opacity: 0.25"/>
   </g>
   <g id="patch_31">
    <path d="M 291.330341 284.4 
L 299.446705 284.4 
L 299.446705 219.294309 
L 291.330341 219.294309 
z
" clip-path="url(#pdd5430454a)" style="fill: #1f77b4; opacity: 0.25"/>
   </g>
   <g id="patch_32">
    <path d="M 299.446705 284.4 
L 307.563068 284.4 
L 307.563068 234.318699 
L 299.446705 234.318699 
z
" clip-path="url(#pdd5430454a)" style="fill: #1f77b4; opacity: 0.25"/>
   </g>
   <g id="patch_33">
    <path d="M 307.563068 284.4 
L 315.679432 284.4 
L 315.679432 242.904065 
L 307.563068 242.904065 
z
" clip-path="url(#pdd5430454a)" style="fill: #1f77b4; opacity: 0.25"/>
   </g>
   <g id="patch_34">
    <path d="M 315.679432 284.4 
L 323.795795 284.4 
L 323.795795 256.497561 
L 315.679432 256.497561 
z
" clip-path="url(#pdd5430454a)" style="fill: #1f77b4; opacity: 0.25"/>
   </g>
   <g id="patch_35">
    <path d="M 323.795795 284.4 
L 331.912159 284.4 
L 331.912159 260.074797 
L 323.795795 260.074797 
z
" clip-path="url(#pdd5430454a)" style="fill: #1f77b4; opacity: 0.25"/>
   </g>
   <g id="patch_36">
    <path d="M 331.912159 284.4 
L 340.028523 284.4 
L 340.028523 265.798374 
L 331.912159 265.798374 
z
" clip-path="url(#pdd5430454a)" style="fill: #1f77b4; opacity: 0.25"/>
   </g>
   <g id="patch_37">
    <path d="M 340.028523 284.4 
L 348.144886 284.4 
L 348.144886 273.668293 
L 340.028523 273.668293 
z
" clip-path="url(#pdd5430454a)" style="fill: #1f77b4; opacity: 0.25"/>
   </g>
   <g id="patch_38">
    <path d="M 348.144886 284.4 
L 356.26125 284.4 
L 356.26125 276.530081 
L 348.144886 276.530081 
z
" clip-path="url(#pdd5430454a)" style="fill: #1f77b4; opacity: 0.25"/>
   </g>
   <g id="patch_39">
    <path d="M 356.26125 284.4 
L 364.377614 284.4 
L 364.377614 280.822764 
L 356.26125 280.822764 
z
" clip-path="url(#pdd5430454a)" style="fill: #1f77b4; opacity: 0.25"/>
   </g>
   <g id="patch_40">
    <path d="M 364.377614 284.4 
L 372.493977 284.4 
L 372.493977 280.822764 
L 364.377614 280.822764 
z
" clip-path="url(#pdd5430454a)" style="fill: #1f77b4; opacity: 0.25"/>
   </g>
   <g id="patch_41">
    <path d="M 372.493977 284.4 
L 380.610341 284.4 
L 380.610341 282.253659 
L 372.493977 282.253659 
z
" clip-path="url(#pdd5430454a)" style="fill: #1f77b4; opacity: 0.25"/>
   </g>
   <g id="patch_42">
    <path d="M 380.610341 284.4 
L 388.726705 284.4 
L 388.726705 284.4 
L 380.610341 284.4 
z
" clip-path="url(#pdd5430454a)" style="fill: #1f77b4; opacity: 0.25"/>
   </g>
   <g id="patch_43">
    <path d="M 388.726705 284.4 
L 396.843068 284.4 
L 396.843068 282.969106 
L 388.726705 282.969106 
z
" clip-path="url(#pdd5430454a)" style="fill: #1f77b4; opacity: 0.25"/>
   </g>
   <g id="patch_44">
    <path d="M 396.843068 284.4 
L 404.959432 284.4 
L 404.959432 283.684553 
L 396.843068 283.684553 
z
" clip-path="url(#pdd5430454a)" style="fill: #1f77b4; opacity: 0.25"/>
   </g>
   <g id="patch_45">
    <path d="M 404.959432 284.4 
L 413.075795 284.4 
L 413.075795 284.4 
L 404.959432 284.4 
z
" clip-path="url(#pdd5430454a)" style="fill: #1f77b4; opacity: 0.25"/>
   </g>
   <g id="patch_46">
    <path d="M 413.075795 284.4 
L 421.192159 284.4 
L 421.192159 284.4 
L 413.075795 284.4 
z
" clip-path="url(#pdd5430454a)" style="fill: #1f77b4; opacity: 0.25"/>
   </g>
   <g id="patch_47">
    <path d="M 421.192159 284.4 
L 429.308523 284.4 
L 429.308523 284.4 
L 421.192159 284.4 
z
" clip-path="url(#pdd5430454a)" style="fill: #1f77b4; opacity: 0.25"/>
   </g>
   <g id="patch_48">
    <path d="M 429.308523 284.4 
L 437.424886 284.4 
L 437.424886 284.4 
L 429.308523 284.4 
z
" clip-path="url(#pdd5430454a)" style="fill: #1f77b4; opacity: 0.25"/>
   </g>
   <g id="patch_49">
    <path d="M 437.424886 284.4 
L 445.54125 284.4 
L 445.54125 284.4 
L 437.424886 284.4 
z
" clip-path="url(#pdd5430454a)" style="fill: #1f77b4; opacity: 0.25"/>
   </g>
   <g id="patch_50">
    <path d="M 445.54125 284.4 
L 453.657614 284.4 
L 453.657614 284.4 
L 445.54125 284.4 
z
" clip-path="url(#pdd5430454a)" style="fill: #1f77b4; opacity: 0.25"/>
   </g>
   <g id="patch_51">
    <path d="M 453.657614 284.4 
L 461.773977 284.4 
L 461.773977 284.4 
L 453.657614 284.4 
z
" clip-path="url(#pdd5430454a)" style="fill: #1f77b4; opacity: 0.25"/>
   </g>
   <g id="patch_52">
    <path d="M 461.773977 284.4 
L 469.890341 284.4 
L 469.890341 283.684553 
L 461.773977 283.684553 
z
" clip-path="url(#pdd5430454a)" style="fill: #1f77b4; opacity: 0.25"/>
   </g>
   <g id="matplotlib.axis_1">
    <g id="xtick_1">
     <g id="line2d_1">
      <defs>
       <path id="m7eee1666fb" d="M 0 0 
L 0 3.5 
" style="stroke: #000000; stroke-width: 0.8"/>
      </defs>
      <g>
       <use xlink:href="#m7eee1666fb" x="70.231444" y="284.4" style="stroke: #000000; stroke-width: 0.8"/>
      </g>
     </g>
     <g id="text_1">
      <!-- 0.4 -->
      <g transform="translate(62.279881 298.998438) scale(0.1 -0.1)">
       <defs>
        <path id="DejaVuSans-30" d="M 2034 4250 
Q 1547 4250 1301 3770 
Q 1056 3291 1056 2328 
Q 1056 1369 1301 889 
Q 1547 409 2034 409 
Q 2525 409 2770 889 
Q 3016 1369 3016 2328 
Q 3016 3291 2770 3770 
Q 2525 4250 2034 4250 
z
M 2034 4750 
Q 2819 4750 3233 4129 
Q 3647 3509 3647 2328 
Q 3647 1150 3233 529 
Q 2819 -91 2034 -91 
Q 1250 -91 836 529 
Q 422 1150 422 2328 
Q 422 3509 836 4129 
Q 1250 4750 2034 4750 
z
" transform="scale(0.015625)"/>
        <path id="DejaVuSans-2e" d="M 684 794 
L 1344 794 
L 1344 0 
L 684 0 
L 684 794 
z
" transform="scale(0.015625)"/>
        <path id="DejaVuSans-34" d="M 2419 4116 
L 825 1625 
L 2419 1625 
L 2419 4116 
z
M 2253 4666 
L 3047 4666 
L 3047 1625 
L 3713 1625 
L 3713 1100 
L 3047 1100 
L 3047 0 
L 2419 0 
L 2419 1100 
L 313 1100 
L 313 1709 
L 2253 4666 
z
" transform="scale(0.015625)"/>
       </defs>
       <use xlink:href="#DejaVuSans-30"/>
       <use xlink:href="#DejaVuSans-2e" transform="translate(63.623047 0)"/>
       <use xlink:href="#DejaVuSans-34" transform="translate(95.410156 0)"/>
      </g>
     </g>
    </g>
    <g id="xtick_2">
     <g id="line2d_2">
      <g>
       <use xlink:href="#m7eee1666fb" x="119.910586" y="284.4" style="stroke: #000000; stroke-width: 0.8"/>
      </g>
     </g>
     <g id="text_2">
      <!-- 0.6 -->
      <g transform="translate(111.959023 298.998438) scale(0.1 -0.1)">
       <defs>
        <path id="DejaVuSans-36" d="M 2113 2584 
Q 1688 2584 1439 2293 
Q 1191 2003 1191 1497 
Q 1191 994 1439 701 
Q 1688 409 2113 409 
Q 2538 409 2786 701 
Q 3034 994 3034 1497 
Q 3034 2003 2786 2293 
Q 2538 2584 2113 2584 
z
M 3366 4563 
L 3366 3988 
Q 3128 4100 2886 4159 
Q 2644 4219 2406 4219 
Q 1781 4219 1451 3797 
Q 1122 3375 1075 2522 
Q 1259 2794 1537 2939 
Q 1816 3084 2150 3084 
Q 2853 3084 3261 2657 
Q 3669 2231 3669 1497 
Q 3669 778 3244 343 
Q 2819 -91 2113 -91 
Q 1303 -91 875 529 
Q 447 1150 447 2328 
Q 447 3434 972 4092 
Q 1497 4750 2381 4750 
Q 2619 4750 2861 4703 
Q 3103 4656 3366 4563 
z
" transform="scale(0.015625)"/>
       </defs>
       <use xlink:href="#DejaVuSans-30"/>
       <use xlink:href="#DejaVuSans-2e" transform="translate(63.623047 0)"/>
       <use xlink:href="#DejaVuSans-36" transform="translate(95.410156 0)"/>
      </g>
     </g>
    </g>
    <g id="xtick_3">
     <g id="line2d_3">
      <g>
       <use xlink:href="#m7eee1666fb" x="169.589728" y="284.4" style="stroke: #000000; stroke-width: 0.8"/>
      </g>
     </g>
     <g id="text_3">
      <!-- 0.8 -->
      <g transform="translate(161.638166 298.998438) scale(0.1 -0.1)">
       <defs>
        <path id="DejaVuSans-38" d="M 2034 2216 
Q 1584 2216 1326 1975 
Q 1069 1734 1069 1313 
Q 1069 891 1326 650 
Q 1584 409 2034 409 
Q 2484 409 2743 651 
Q 3003 894 3003 1313 
Q 3003 1734 2745 1975 
Q 2488 2216 2034 2216 
z
M 1403 2484 
Q 997 2584 770 2862 
Q 544 3141 544 3541 
Q 544 4100 942 4425 
Q 1341 4750 2034 4750 
Q 2731 4750 3128 4425 
Q 3525 4100 3525 3541 
Q 3525 3141 3298 2862 
Q 3072 2584 2669 2484 
Q 3125 2378 3379 2068 
Q 3634 1759 3634 1313 
Q 3634 634 3220 271 
Q 2806 -91 2034 -91 
Q 1263 -91 848 271 
Q 434 634 434 1313 
Q 434 1759 690 2068 
Q 947 2378 1403 2484 
z
M 1172 3481 
Q 1172 3119 1398 2916 
Q 1625 2713 2034 2713 
Q 2441 2713 2670 2916 
Q 2900 3119 2900 3481 
Q 2900 3844 2670 4047 
Q 2441 4250 2034 4250 
Q 1625 4250 1398 4047 
Q 1172 3844 1172 3481 
z
" transform="scale(0.015625)"/>
       </defs>
       <use xlink:href="#DejaVuSans-30"/>
       <use xlink:href="#DejaVuSans-2e" transform="translate(63.623047 0)"/>
       <use xlink:href="#DejaVuSans-38" transform="translate(95.410156 0)"/>
      </g>
     </g>
    </g>
    <g id="xtick_4">
     <g id="line2d_4">
      <g>
       <use xlink:href="#m7eee1666fb" x="219.26887" y="284.4" style="stroke: #000000; stroke-width: 0.8"/>
      </g>
     </g>
     <g id="text_4">
      <!-- 1.0 -->
      <g transform="translate(211.317308 298.998438) scale(0.1 -0.1)">
       <defs>
        <path id="DejaVuSans-31" d="M 794 531 
L 1825 531 
L 1825 4091 
L 703 3866 
L 703 4441 
L 1819 4666 
L 2450 4666 
L 2450 531 
L 3481 531 
L 3481 0 
L 794 0 
L 794 531 
z
" transform="scale(0.015625)"/>
       </defs>
       <use xlink:href="#DejaVuSans-31"/>
       <use xlink:href="#DejaVuSans-2e" transform="translate(63.623047 0)"/>
       <use xlink:href="#DejaVuSans-30" transform="translate(95.410156 0)"/>
      </g>
     </g>
    </g>
    <g id="xtick_5">
     <g id="line2d_5">
      <g>
       <use xlink:href="#m7eee1666fb" x="268.948012" y="284.4" style="stroke: #000000; stroke-width: 0.8"/>
      </g>
     </g>
     <g id="text_5">
      <!-- 1.2 -->
      <g transform="translate(260.99645 298.998438) scale(0.1 -0.1)">
       <defs>
        <path id="DejaVuSans-32" d="M 1228 531 
L 3431 531 
L 3431 0 
L 469 0 
L 469 531 
Q 828 903 1448 1529 
Q 2069 2156 2228 2338 
Q 2531 2678 2651 2914 
Q 2772 3150 2772 3378 
Q 2772 3750 2511 3984 
Q 2250 4219 1831 4219 
Q 1534 4219 1204 4116 
Q 875 4013 500 3803 
L 500 4441 
Q 881 4594 1212 4672 
Q 1544 4750 1819 4750 
Q 2544 4750 2975 4387 
Q 3406 4025 3406 3419 
Q 3406 3131 3298 2873 
Q 3191 2616 2906 2266 
Q 2828 2175 2409 1742 
Q 1991 1309 1228 531 
z
" transform="scale(0.015625)"/>
       </defs>
       <use xlink:href="#DejaVuSans-31"/>
       <use xlink:href="#DejaVuSans-2e" transform="translate(63.623047 0)"/>
       <use xlink:href="#DejaVuSans-32" transform="translate(95.410156 0)"/>
      </g>
     </g>
    </g>
    <g id="xtick_6">
     <g id="line2d_6">
      <g>
       <use xlink:href="#m7eee1666fb" x="318.627154" y="284.4" style="stroke: #000000; stroke-width: 0.8"/>
      </g>
     </g>
     <g id="text_6">
      <!-- 1.4 -->
      <g transform="translate(310.675592 298.998438) scale(0.1 -0.1)">
       <use xlink:href="#DejaVuSans-31"/>
       <use xlink:href="#DejaVuSans-2e" transform="translate(63.623047 0)"/>
       <use xlink:href="#DejaVuSans-34" transform="translate(95.410156 0)"/>
      </g>
     </g>
    </g>
    <g id="xtick_7">
     <g id="line2d_7">
      <g>
       <use xlink:href="#m7eee1666fb" x="368.306296" y="284.4" style="stroke: #000000; stroke-width: 0.8"/>
      </g>
     </g>
     <g id="text_7">
      <!-- 1.6 -->
      <g transform="translate(360.354734 298.998438) scale(0.1 -0.1)">
       <use xlink:href="#DejaVuSans-31"/>
       <use xlink:href="#DejaVuSans-2e" transform="translate(63.623047 0)"/>
       <use xlink:href="#DejaVuSans-36" transform="translate(95.410156 0)"/>
      </g>
     </g>
    </g>
    <g id="xtick_8">
     <g id="line2d_8">
      <g>
       <use xlink:href="#m7eee1666fb" x="417.985438" y="284.4" style="stroke: #000000; stroke-width: 0.8"/>
      </g>
     </g>
     <g id="text_8">
      <!-- 1.8 -->
      <g transform="translate(410.033876 298.998438) scale(0.1 -0.1)">
       <use xlink:href="#DejaVuSans-31"/>
       <use xlink:href="#DejaVuSans-2e" transform="translate(63.623047 0)"/>
       <use xlink:href="#DejaVuSans-38" transform="translate(95.410156 0)"/>
      </g>
     </g>
    </g>
    <g id="xtick_9">
     <g id="line2d_9">
      <g>
       <use xlink:href="#m7eee1666fb" x="467.664581" y="284.4" style="stroke: #000000; stroke-width: 0.8"/>
      </g>
     </g>
     <g id="text_9">
      <!-- 2.0 -->
      <g transform="translate(459.713018 298.998438) scale(0.1 -0.1)">
       <use xlink:href="#DejaVuSans-32"/>
       <use xlink:href="#DejaVuSans-2e" transform="translate(63.623047 0)"/>
       <use xlink:href="#DejaVuSans-30" transform="translate(95.410156 0)"/>
      </g>
     </g>
    </g>
    <g id="text_10">
     <!-- $\bar{X}$ -->
     <g transform="translate(263.53125 312.676562) scale(0.1 -0.1)">
      <defs>
       <path id="DejaVuSans-304" d="M -2518 4769 
L -650 4769 
L -650 4306 
L -2518 4306 
L -2518 4769 
z
" transform="scale(0.015625)"/>
       <path id="DejaVuSans-Oblique-58" d="M 878 4666 
L 1516 4666 
L 2316 2981 
L 3763 4666 
L 4500 4666 
L 2578 2438 
L 3738 0 
L 3103 0 
L 2163 1966 
L 459 0 
L -275 0 
L 1906 2509 
L 878 4666 
z
" transform="scale(0.015625)"/>
      </defs>
      <use xlink:href="#DejaVuSans-304" transform="translate(67.470215 18.484375)"/>
      <use xlink:href="#DejaVuSans-Oblique-58" transform="translate(0 0.359375)"/>
     </g>
    </g>
   </g>
   <g id="matplotlib.axis_2">
    <g id="ytick_1">
     <g id="line2d_10">
      <defs>
       <path id="mc3b4f5e28d" d="M 0 0 
L -3.5 0 
" style="stroke: #000000; stroke-width: 0.8"/>
      </defs>
      <g>
       <use xlink:href="#mc3b4f5e28d" x="43.78125" y="284.4" style="stroke: #000000; stroke-width: 0.8"/>
      </g>
     </g>
     <g id="text_11">
      <!-- 0.0 -->
      <g transform="translate(20.878125 288.199219) scale(0.1 -0.1)">
       <use xlink:href="#DejaVuSans-30"/>
       <use xlink:href="#DejaVuSans-2e" transform="translate(63.623047 0)"/>
       <use xlink:href="#DejaVuSans-30" transform="translate(95.410156 0)"/>
      </g>
     </g>
    </g>
    <g id="ytick_2">
     <g id="line2d_11">
      <g>
       <use xlink:href="#mc3b4f5e28d" x="43.78125" y="225.956667" style="stroke: #000000; stroke-width: 0.8"/>
      </g>
     </g>
     <g id="text_12">
      <!-- 0.5 -->
      <g transform="translate(20.878125 229.755886) scale(0.1 -0.1)">
       <defs>
        <path id="DejaVuSans-35" d="M 691 4666 
L 3169 4666 
L 3169 4134 
L 1269 4134 
L 1269 2991 
Q 1406 3038 1543 3061 
Q 1681 3084 1819 3084 
Q 2600 3084 3056 2656 
Q 3513 2228 3513 1497 
Q 3513 744 3044 326 
Q 2575 -91 1722 -91 
Q 1428 -91 1123 -41 
Q 819 9 494 109 
L 494 744 
Q 775 591 1075 516 
Q 1375 441 1709 441 
Q 2250 441 2565 725 
Q 2881 1009 2881 1497 
Q 2881 1984 2565 2268 
Q 2250 2553 1709 2553 
Q 1456 2553 1204 2497 
Q 953 2441 691 2322 
L 691 4666 
z
" transform="scale(0.015625)"/>
       </defs>
       <use xlink:href="#DejaVuSans-30"/>
       <use xlink:href="#DejaVuSans-2e" transform="translate(63.623047 0)"/>
       <use xlink:href="#DejaVuSans-35" transform="translate(95.410156 0)"/>
      </g>
     </g>
    </g>
    <g id="ytick_3">
     <g id="line2d_12">
      <g>
       <use xlink:href="#mc3b4f5e28d" x="43.78125" y="167.513334" style="stroke: #000000; stroke-width: 0.8"/>
      </g>
     </g>
     <g id="text_13">
      <!-- 1.0 -->
      <g transform="translate(20.878125 171.312553) scale(0.1 -0.1)">
       <use xlink:href="#DejaVuSans-31"/>
       <use xlink:href="#DejaVuSans-2e" transform="translate(63.623047 0)"/>
       <use xlink:href="#DejaVuSans-30" transform="translate(95.410156 0)"/>
      </g>
     </g>
    </g>
    <g id="ytick_4">
     <g id="line2d_13">
      <g>
       <use xlink:href="#mc3b4f5e28d" x="43.78125" y="109.070002" style="stroke: #000000; stroke-width: 0.8"/>
      </g>
     </g>
     <g id="text_14">
      <!-- 1.5 -->
      <g transform="translate(20.878125 112.86922) scale(0.1 -0.1)">
       <use xlink:href="#DejaVuSans-31"/>
       <use xlink:href="#DejaVuSans-2e" transform="translate(63.623047 0)"/>
       <use xlink:href="#DejaVuSans-35" transform="translate(95.410156 0)"/>
      </g>
     </g>
    </g>
    <g id="ytick_5">
     <g id="line2d_14">
      <g>
       <use xlink:href="#mc3b4f5e28d" x="43.78125" y="50.626669" style="stroke: #000000; stroke-width: 0.8"/>
      </g>
     </g>
     <g id="text_15">
      <!-- 2.0 -->
      <g transform="translate(20.878125 54.425888) scale(0.1 -0.1)">
       <use xlink:href="#DejaVuSans-32"/>
       <use xlink:href="#DejaVuSans-2e" transform="translate(63.623047 0)"/>
       <use xlink:href="#DejaVuSans-30" transform="translate(95.410156 0)"/>
      </g>
     </g>
    </g>
    <g id="text_16">
     <!-- Density -->
     <g transform="translate(14.798438 164.808594) rotate(-90) scale(0.1 -0.1)">
      <defs>
       <path id="DejaVuSans-44" d="M 1259 4147 
L 1259 519 
L 2022 519 
Q 2988 519 3436 956 
Q 3884 1394 3884 2338 
Q 3884 3275 3436 3711 
Q 2988 4147 2022 4147 
L 1259 4147 
z
M 628 4666 
L 1925 4666 
Q 3281 4666 3915 4102 
Q 4550 3538 4550 2338 
Q 4550 1131 3912 565 
Q 3275 0 1925 0 
L 628 0 
L 628 4666 
z
" transform="scale(0.015625)"/>
       <path id="DejaVuSans-65" d="M 3597 1894 
L 3597 1613 
L 953 1613 
Q 991 1019 1311 708 
Q 1631 397 2203 397 
Q 2534 397 2845 478 
Q 3156 559 3463 722 
L 3463 178 
Q 3153 47 2828 -22 
Q 2503 -91 2169 -91 
Q 1331 -91 842 396 
Q 353 884 353 1716 
Q 353 2575 817 3079 
Q 1281 3584 2069 3584 
Q 2775 3584 3186 3129 
Q 3597 2675 3597 1894 
z
M 3022 2063 
Q 3016 2534 2758 2815 
Q 2500 3097 2075 3097 
Q 1594 3097 1305 2825 
Q 1016 2553 972 2059 
L 3022 2063 
z
" transform="scale(0.015625)"/>
       <path id="DejaVuSans-6e" d="M 3513 2113 
L 3513 0 
L 2938 0 
L 2938 2094 
Q 2938 2591 2744 2837 
Q 2550 3084 2163 3084 
Q 1697 3084 1428 2787 
Q 1159 2491 1159 1978 
L 1159 0 
L 581 0 
L 581 3500 
L 1159 3500 
L 1159 2956 
Q 1366 3272 1645 3428 
Q 1925 3584 2291 3584 
Q 2894 3584 3203 3211 
Q 3513 2838 3513 2113 
z
" transform="scale(0.015625)"/>
       <path id="DejaVuSans-73" d="M 2834 3397 
L 2834 2853 
Q 2591 2978 2328 3040 
Q 2066 3103 1784 3103 
Q 1356 3103 1142 2972 
Q 928 2841 928 2578 
Q 928 2378 1081 2264 
Q 1234 2150 1697 2047 
L 1894 2003 
Q 2506 1872 2764 1633 
Q 3022 1394 3022 966 
Q 3022 478 2636 193 
Q 2250 -91 1575 -91 
Q 1294 -91 989 -36 
Q 684 19 347 128 
L 347 722 
Q 666 556 975 473 
Q 1284 391 1588 391 
Q 1994 391 2212 530 
Q 2431 669 2431 922 
Q 2431 1156 2273 1281 
Q 2116 1406 1581 1522 
L 1381 1569 
Q 847 1681 609 1914 
Q 372 2147 372 2553 
Q 372 3047 722 3315 
Q 1072 3584 1716 3584 
Q 2034 3584 2315 3537 
Q 2597 3491 2834 3397 
z
" transform="scale(0.015625)"/>
       <path id="DejaVuSans-69" d="M 603 3500 
L 1178 3500 
L 1178 0 
L 603 0 
L 603 3500 
z
M 603 4863 
L 1178 4863 
L 1178 4134 
L 603 4134 
L 603 4863 
z
" transform="scale(0.015625)"/>
       <path id="DejaVuSans-74" d="M 1172 4494 
L 1172 3500 
L 2356 3500 
L 2356 3053 
L 1172 3053 
L 1172 1153 
Q 1172 725 1289 603 
Q 1406 481 1766 481 
L 2356 481 
L 2356 0 
L 1766 0 
Q 1100 0 847 248 
Q 594 497 594 1153 
L 594 3053 
L 172 3053 
L 172 3500 
L 594 3500 
L 594 4494 
L 1172 4494 
z
" transform="scale(0.015625)"/>
       <path id="DejaVuSans-79" d="M 2059 -325 
Q 1816 -950 1584 -1140 
Q 1353 -1331 966 -1331 
L 506 -1331 
L 506 -850 
L 844 -850 
Q 1081 -850 1212 -737 
Q 1344 -625 1503 -206 
L 1606 56 
L 191 3500 
L 800 3500 
L 1894 763 
L 2988 3500 
L 3597 3500 
L 2059 -325 
z
" transform="scale(0.015625)"/>
      </defs>
      <use xlink:href="#DejaVuSans-44"/>
      <use xlink:href="#DejaVuSans-65" transform="translate(77.001953 0)"/>
      <use xlink:href="#DejaVuSans-6e" transform="translate(138.525391 0)"/>
      <use xlink:href="#DejaVuSans-73" transform="translate(201.904297 0)"/>
      <use xlink:href="#DejaVuSans-69" transform="translate(254.003906 0)"/>
      <use xlink:href="#DejaVuSans-74" transform="translate(281.787109 0)"/>
      <use xlink:href="#DejaVuSans-79" transform="translate(320.996094 0)"/>
     </g>
    </g>
   </g>
   <g id="line2d_15">
    <path d="M 64.072159 283.668524 
L 71.391525 283.145668 
L 77.084365 282.526057 
L 81.963943 281.789358 
L 86.030257 280.988864 
L 90.096572 279.978607 
L 94.162886 278.715036 
L 97.415938 277.488876 
L 100.668989 276.041372 
L 103.922041 274.342577 
L 107.175092 272.360627 
L 110.428144 270.062071 
L 113.681195 267.412309 
L 116.120984 265.173339 
L 118.560773 262.702164 
L 121.000561 259.984142 
L 123.44035 257.005043 
L 125.880139 253.751284 
L 128.319927 250.210167 
L 131.572979 245.021911 
L 134.82603 239.279105 
L 138.079082 232.96412 
L 141.332134 226.066231 
L 144.585185 218.582814 
L 147.838237 210.520493 
L 151.091288 201.896179 
L 155.157603 190.369389 
L 159.223917 178.0903 
L 164.103494 162.521136 
L 169.796335 143.528918 
L 184.435067 94.23795 
L 188.501381 81.497095 
L 191.754433 71.92596 
L 195.007484 63.045228 
L 197.447273 56.911371 
L 199.887062 51.283219 
L 202.32685 46.206218 
L 204.766639 41.722036 
L 207.206428 37.867997 
L 208.832953 35.664962 
L 210.459479 33.764849 
L 212.086005 32.174876 
L 213.712531 30.901112 
L 215.339057 29.948437 
L 216.965582 29.32051 
L 218.592108 29.019751 
L 220.218634 29.047318 
L 221.84516 29.403106 
L 223.471685 30.085742 
L 225.098211 31.092599 
L 226.724737 32.41981 
L 228.351263 34.062294 
L 229.977789 36.013785 
L 231.604314 38.266877 
L 233.23084 40.813069 
L 235.670629 45.160767 
L 238.110417 50.109944 
L 240.550206 55.619845 
L 242.989995 61.645809 
L 246.243046 70.399894 
L 249.496098 79.865065 
L 253.562412 92.503533 
L 258.44199 108.519578 
L 267.387881 138.931701 
L 273.893985 160.750884 
L 278.773562 176.40785 
L 282.839876 188.779183 
L 286.906191 200.411243 
L 290.159242 209.126486 
L 293.412294 217.283603 
L 296.665345 224.863886 
L 299.918397 231.859073 
L 303.171449 238.270326 
L 306.4245 244.107108 
L 309.677552 249.385986 
L 312.930603 254.129419 
L 316.183655 258.364554 
L 319.436706 262.122078 
L 322.689758 265.435135 
L 325.942809 268.338348 
L 329.195861 270.866937 
L 332.448913 273.05597 
L 335.701964 274.939719 
L 338.955016 276.551148 
L 342.208067 277.921513 
L 345.461119 279.080063 
L 349.527433 280.271377 
L 353.593748 281.221572 
L 358.473325 282.102307 
L 363.352902 282.75811 
L 369.045743 283.306758 
L 376.365109 283.76676 
L 385.311 284.086413 
L 397.509944 284.287039 
L 419.468042 284.385018 
L 469.890341 284.39994 
L 469.890341 284.39994 
" clip-path="url(#pdd5430454a)" style="fill: none; stroke: #ff7f0e; stroke-width: 2; stroke-linecap: square"/>
   </g>
   <g id="patch_53">
    <path d="M 43.78125 284.4 
L 43.78125 7.2 
" style="fill: none; stroke: #000000; stroke-width: 0.8; stroke-linejoin: miter; stroke-linecap: square"/>
   </g>
   <g id="patch_54">
    <path d="M 43.78125 284.4 
L 490.18125 284.4 
" style="fill: none; stroke: #000000; stroke-width: 0.8; stroke-linejoin: miter; stroke-linecap: square"/>
   </g>
   <g id="text_17">
    <!-- $\mu$ -->
    <g transform="translate(216.06887 54.533224) scale(0.1 -0.1)">
     <defs>
      <path id="DejaVuSans-Oblique-3bc" d="M -84 -1331 
L 856 3500 
L 1434 3500 
L 1009 1322 
Q 997 1256 987 1175 
Q 978 1094 978 1013 
Q 978 722 1161 565 
Q 1344 409 1684 409 
Q 2147 409 2431 671 
Q 2716 934 2816 1459 
L 3213 3500 
L 3788 3500 
L 3266 809 
Q 3253 750 3248 706 
Q 3244 663 3244 628 
Q 3244 531 3283 486 
Q 3322 441 3406 441 
Q 3438 441 3492 456 
Q 3547 472 3647 513 
L 3559 50 
Q 3422 -19 3297 -55 
Q 3172 -91 3053 -91 
Q 2847 -91 2730 40 
Q 2613 172 2613 403 
Q 2438 153 2195 31 
Q 1953 -91 1625 -91 
Q 1334 -91 1117 43 
Q 900 178 831 397 
L 494 -1331 
L -84 -1331 
z
" transform="scale(0.015625)"/>
     </defs>
     <use xlink:href="#DejaVuSans-Oblique-3bc" transform="translate(0 0.3125)"/>
    </g>
   </g>
   <g id="text_18">
    <!-- $\sigma/\sqrt{n}$ -->
    <g transform="translate(252.119515 131.155482) scale(0.1 -0.1)">
     <defs>
      <path id="DejaVuSans-Oblique-3c3" d="M 2219 3044 
Q 1744 3044 1422 2700 
Q 1081 2341 969 1747 
Q 844 1119 1044 756 
Q 1241 397 1706 397 
Q 2166 397 2503 759 
Q 2844 1122 2966 1747 
Q 3075 2319 2881 2700 
Q 2700 3044 2219 3044 
z
M 2309 3503 
L 4219 3500 
L 4106 2925 
L 3463 2925 
Q 3706 2438 3575 1747 
Q 3406 888 2884 400 
Q 2359 -91 1609 -91 
Q 856 -91 525 400 
Q 194 888 363 1747 
Q 528 2609 1050 3097 
Q 1484 3503 2309 3503 
z
" transform="scale(0.015625)"/>
      <path id="DejaVuSans-2f" d="M 1625 4666 
L 2156 4666 
L 531 -594 
L 0 -594 
L 1625 4666 
z
" transform="scale(0.015625)"/>
      <path id="DejaVuSans-221a" d="M 3488 5191 
L 4078 5191 
L 4078 4891 
L 3719 4891 
L 1863 -128 
L 1656 -128 
L 659 2631 
L 269 2491 
L 191 2741 
L 1075 3047 
L 1875 831 
L 3488 5191 
z
" transform="scale(0.015625)"/>
      <path id="DejaVuSans-Oblique-6e" d="M 3566 2113 
L 3156 0 
L 2578 0 
L 2988 2091 
Q 3016 2238 3031 2350 
Q 3047 2463 3047 2528 
Q 3047 2791 2881 2937 
Q 2716 3084 2419 3084 
Q 1956 3084 1622 2776 
Q 1288 2469 1184 1941 
L 800 0 
L 225 0 
L 903 3500 
L 1478 3500 
L 1363 2950 
Q 1603 3253 1940 3418 
Q 2278 3584 2650 3584 
Q 3113 3584 3367 3334 
Q 3622 3084 3622 2631 
Q 3622 2519 3608 2391 
Q 3594 2263 3566 2113 
z
" transform="scale(0.015625)"/>
     </defs>
     <use xlink:href="#DejaVuSans-Oblique-3c3" transform="translate(0 0.890625)"/>
     <use xlink:href="#DejaVuSans-2f" transform="translate(63.378906 0.890625)"/>
     <use xlink:href="#DejaVuSans-221a" transform="translate(97.070312 0.890625)"/>
     <use xlink:href="#DejaVuSans-Oblique-6e" transform="translate(173.291016 0.75)"/>
     <path d="M 160.791016 75.5 
L 160.791016 81.75 
L 249.169922 81.75 
L 249.169922 75.5 
L 160.791016 75.5 
z
"/>
    </g>
   </g>
  </g>
 </g>
 <defs>
  <clipPath id="pdd5430454a">
   <rect x="43.78125" y="7.2" width="446.4" height="277.2"/>
  </clipPath>
 </defs>
</svg>
