<?xml version="1.0" encoding="utf-8" standalone="no"?>
<!DOCTYPE svg PUBLIC "-//W3C//DTD SVG 1.1//EN"
  "http://www.w3.org/Graphics/SVG/1.1/DTD/svg11.dtd">
<svg xmlns:xlink="http://www.w3.org/1999/xlink" width="503.74375pt" height="331.753663pt" viewBox="0 0 503.74375 331.753663" xmlns="http://www.w3.org/2000/svg" version="1.1">
 <metadata>
  <rdf:RDF xmlns:dc="http://purl.org/dc/elements/1.1/" xmlns:cc="http://creativecommons.org/ns#" xmlns:rdf="http://www.w3.org/1999/02/22-rdf-syntax-ns#">
   <cc:Work>
    <dc:type rdf:resource="http://purl.org/dc/dcmitype/StillImage"/>
    <dc:date>2026-04-17T07:10:41.121003</dc:date>
    <dc:format>image/svg+xml</dc:format>
    <dc:creator>
     <cc:Agent>
      <dc:title>Matplotlib v3.10.8, https://matplotlib.org/</dc:title>
     </cc:Agent>
    </dc:creator>
   </cc:Work>
  </rdf:RDF>
 </metadata>
 <defs>
  <style type="text/css">*{stroke-linejoin: round; stroke-linecap: butt}</style>
 </defs>
 <g id="figure_1">
  <g id="patch_1">
   <path d="M 0 331.753663 
L 503.74375 331.753663 
L 503.74375 0 
L 0 0 
z
" style="fill: #ffffff"/>
  </g>
  <g id="axes_1">
   <g id="patch_2">
    <path d="M 50.14375 294.197413 
L 496.54375 294.197413 
L 496.54375 16.997413 
L 50.14375 16.997413 
z
" style="fill: #ffffff"/>
   </g>
   <g id="FillBetweenPolyCollection_1">
    <path d="M 222.768811 281.597413 
L 222.768811 128.291463 
L 223.175036 127.067531 
L 223.58126 125.843815 
L 223.987485 124.620476 
L 224.393709 123.397673 
L 224.799933 122.175569 
L 225.206158 120.954327 
L 225.612382 119.734109 
L 226.018607 118.515082 
L 226.424831 117.29741 
L 226.831055 116.081261 
L 227.23728 114.866802 
L 227.643504 113.654203 
L 228.049729 112.443633 
L 228.455953 111.235262 
L 228.862178 110.029261 
L 229.268402 108.825803 
L 229.674626 107.625061 
L 230.080851 106.427207 
L 230.487075 105.232416 
L 230.8933 104.040862 
L 231.299524 102.852721 
L 231.705748 101.668168 
L 232.111973 100.487379 
L 232.518197 99.310532 
L 232.924422 98.137803 
L 233.330646 96.96937 
L 233.73687 95.805409 
L 234.143095 94.6461 
L 234.549319 93.491621 
L 234.955544 92.342149 
L 235.361768 91.197863 
L 235.767992 90.058942 
L 236.174217 88.925565 
L 236.580441 87.797909 
L 236.986666 86.676154 
L 237.39289 85.560478 
L 237.799114 84.451059 
L 238.205339 83.348075 
L 238.611563 82.251705 
L 239.017788 81.162125 
L 239.424012 80.079514 
L 239.830236 79.004047 
L 240.236461 77.935901 
L 240.642685 76.875253 
L 241.04891 75.822277 
L 241.455134 74.777149 
L 241.861359 73.740043 
L 242.267583 72.711132 
L 242.673807 71.690589 
L 243.080032 70.678586 
L 243.486256 69.675295 
L 243.892481 68.680886 
L 244.298705 67.695528 
L 244.704929 66.719391 
L 245.111154 65.752641 
L 245.517378 64.795445 
L 245.923603 63.847969 
L 246.329827 62.910376 
L 246.736051 61.98283 
L 247.142276 61.065493 
L 247.5485 60.158525 
L 247.954725 59.262085 
L 248.360949 58.376332 
L 248.767173 57.501421 
L 249.173398 56.637508 
L 249.579622 55.784746 
L 249.985847 54.943286 
L 250.392071 54.11328 
L 250.798295 53.294875 
L 251.20452 52.488219 
L 251.610744 51.693456 
L 252.016969 50.91073 
L 252.423193 50.140183 
L 252.829417 49.381954 
L 253.235642 48.636182 
L 253.641866 47.903001 
L 254.048091 47.182545 
L 254.454315 46.474947 
L 254.86054 45.780336 
L 255.266764 45.09884 
L 255.672988 44.430583 
L 256.079213 43.77569 
L 256.485437 43.134282 
L 256.891662 42.506476 
L 257.297886 41.89239 
L 257.70411 41.292138 
L 258.110335 40.70583 
L 258.516559 40.133578 
L 258.922784 39.575487 
L 259.329008 39.031662 
L 259.735232 38.502205 
L 260.141457 37.987214 
L 260.547681 37.486788 
L 260.953906 37.00102 
L 261.36013 36.530001 
L 261.766354 36.073821 
L 262.172579 35.632565 
L 262.578803 35.206318 
L 262.985028 34.795159 
L 263.391252 34.399167 
L 263.797476 34.018417 
L 264.203701 33.652982 
L 264.609925 33.30293 
L 265.01615 32.968328 
L 265.422374 32.649241 
L 265.828598 32.345729 
L 266.234823 32.05785 
L 266.641047 31.785658 
L 267.047272 31.529207 
L 267.453496 31.288545 
L 267.859721 31.063718 
L 268.265945 30.85477 
L 268.672169 30.661739 
L 269.078394 30.484664 
L 269.484618 30.323579 
L 269.890843 30.178513 
L 270.297067 30.049496 
L 270.703291 29.936551 
L 271.109516 29.839701 
L 271.51574 29.758964 
L 271.921965 29.694356 
L 272.328189 29.64589 
L 272.734413 29.613573 
L 273.140638 29.597413 
L 273.546862 29.597413 
L 273.953087 29.613573 
L 274.359311 29.64589 
L 274.765535 29.694356 
L 275.17176 29.758964 
L 275.577984 29.839701 
L 275.984209 29.936551 
L 276.390433 30.049496 
L 276.796657 30.178513 
L 277.202882 30.323579 
L 277.609106 30.484664 
L 278.015331 30.661739 
L 278.421555 30.85477 
L 278.827779 31.063718 
L 279.234004 31.288545 
L 279.640228 31.529207 
L 280.046453 31.785658 
L 280.452677 32.05785 
L 280.858902 32.345729 
L 281.265126 32.649241 
L 281.67135 32.968328 
L 282.077575 33.30293 
L 282.483799 33.652982 
L 282.890024 34.018417 
L 283.296248 34.399167 
L 283.702472 34.795159 
L 284.108697 35.206318 
L 284.514921 35.632565 
L 284.921146 36.073821 
L 285.32737 36.530001 
L 285.733594 37.00102 
L 286.139819 37.486788 
L 286.546043 37.987214 
L 286.952268 38.502205 
L 287.358492 39.031662 
L 287.764716 39.575487 
L 288.170941 40.133578 
L 288.577165 40.70583 
L 288.98339 41.292138 
L 289.389614 41.89239 
L 289.795838 42.506476 
L 290.202063 43.134282 
L 290.608287 43.77569 
L 291.014512 44.430583 
L 291.420736 45.09884 
L 291.82696 45.780336 
L 292.233185 46.474947 
L 292.639409 47.182545 
L 293.045634 47.903001 
L 293.451858 48.636182 
L 293.858083 49.381954 
L 294.264307 50.140183 
L 294.670531 50.91073 
L 295.076756 51.693456 
L 295.48298 52.488219 
L 295.889205 53.294875 
L 296.295429 54.11328 
L 296.701653 54.943286 
L 297.107878 55.784746 
L 297.514102 56.637508 
L 297.920327 57.501421 
L 298.326551 58.376332 
L 298.732775 59.262085 
L 299.139 60.158525 
L 299.545224 61.065493 
L 299.951449 61.98283 
L 300.357673 62.910376 
L 300.763897 63.847969 
L 301.170122 64.795445 
L 301.576346 65.752641 
L 301.982571 66.719391 
L 302.388795 67.695528 
L 302.795019 68.680886 
L 303.201244 69.675295 
L 303.607468 70.678586 
L 304.013693 71.690589 
L 304.419917 72.711132 
L 304.826141 73.740043 
L 305.232366 74.777149 
L 305.63859 75.822277 
L 306.044815 76.875253 
L 306.451039 77.935901 
L 306.857264 79.004047 
L 307.263488 80.079514 
L 307.669712 81.162125 
L 308.075937 82.251705 
L 308.482161 83.348075 
L 308.888386 84.451059 
L 309.29461 85.560478 
L 309.700834 86.676154 
L 310.107059 87.797909 
L 310.513283 88.925565 
L 310.919508 90.058942 
L 311.325732 91.197863 
L 311.731956 92.342149 
L 312.138181 93.491621 
L 312.544405 94.6461 
L 312.95063 95.805409 
L 313.356854 96.96937 
L 313.763078 98.137803 
L 314.169303 99.310532 
L 314.575527 100.487379 
L 314.981752 101.668168 
L 315.387976 102.852721 
L 315.7942 104.040862 
L 316.200425 105.232416 
L 316.606649 106.427207 
L 317.012874 107.625061 
L 317.419098 108.825803 
L 317.825322 110.029261 
L 318.231547 111.235262 
L 318.637771 112.443633 
L 319.043996 113.654203 
L 319.45022 114.866802 
L 319.856445 116.081261 
L 320.262669 117.29741 
L 320.668893 118.515082 
L 321.075118 119.734109 
L 321.481342 120.954327 
L 321.887567 122.175569 
L 322.293791 123.397673 
L 322.700015 124.620476 
L 323.10624 125.843815 
L 323.512464 127.067531 
L 323.918689 128.291463 
L 323.918689 281.597413 
L 323.918689 281.597413 
L 323.512464 281.597413 
L 323.10624 281.597413 
L 322.700015 281.597413 
L 322.293791 281.597413 
L 321.887567 281.597413 
L 321.481342 281.597413 
L 321.075118 281.597413 
L 320.668893 281.597413 
L 320.262669 281.597413 
L 319.856445 281.597413 
L 319.45022 281.597413 
L 319.043996 281.597413 
L 318.637771 281.597413 
L 318.231547 281.597413 
L 317.825322 281.597413 
L 317.419098 281.597413 
L 317.012874 281.597413 
L 316.606649 281.597413 
L 316.200425 281.597413 
L 315.7942 281.597413 
L 315.387976 281.597413 
L 314.981752 281.597413 
L 314.575527 281.597413 
L 314.169303 281.597413 
L 313.763078 281.597413 
L 313.356854 281.597413 
L 312.95063 281.597413 
L 312.544405 281.597413 
L 312.138181 281.597413 
L 311.731956 281.597413 
L 311.325732 281.597413 
L 310.919508 281.597413 
L 310.513283 281.597413 
L 310.107059 281.597413 
L 309.700834 281.597413 
L 309.29461 281.597413 
L 308.888386 281.597413 
L 308.482161 281.597413 
L 308.075937 281.597413 
L 307.669712 281.597413 
L 307.263488 281.597413 
L 306.857264 281.597413 
L 306.451039 281.597413 
L 306.044815 281.597413 
L 305.63859 281.597413 
L 305.232366 281.597413 
L 304.826141 281.597413 
L 304.419917 281.597413 
L 304.013693 281.597413 
L 303.607468 281.597413 
L 303.201244 281.597413 
L 302.795019 281.597413 
L 302.388795 281.597413 
L 301.982571 281.597413 
L 301.576346 281.597413 
L 301.170122 281.597413 
L 300.763897 281.597413 
L 300.357673 281.597413 
L 299.951449 281.597413 
L 299.545224 281.597413 
L 299.139 281.597413 
L 298.732775 281.597413 
L 298.326551 281.597413 
L 297.920327 281.597413 
L 297.514102 281.597413 
L 297.107878 281.597413 
L 296.701653 281.597413 
L 296.295429 281.597413 
L 295.889205 281.597413 
L 295.48298 281.597413 
L 295.076756 281.597413 
L 294.670531 281.597413 
L 294.264307 281.597413 
L 293.858083 281.597413 
L 293.451858 281.597413 
L 293.045634 281.597413 
L 292.639409 281.597413 
L 292.233185 281.597413 
L 291.82696 281.597413 
L 291.420736 281.597413 
L 291.014512 281.597413 
L 290.608287 281.597413 
L 290.202063 281.597413 
L 289.795838 281.597413 
L 289.389614 281.597413 
L 288.98339 281.597413 
L 288.577165 281.597413 
L 288.170941 281.597413 
L 287.764716 281.597413 
L 287.358492 281.597413 
L 286.952268 281.597413 
L 286.546043 281.597413 
L 286.139819 281.597413 
L 285.733594 281.597413 
L 285.32737 281.597413 
L 284.921146 281.597413 
L 284.514921 281.597413 
L 284.108697 281.597413 
L 283.702472 281.597413 
L 283.296248 281.597413 
L 282.890024 281.597413 
L 282.483799 281.597413 
L 282.077575 281.597413 
L 281.67135 281.597413 
L 281.265126 281.597413 
L 280.858902 281.597413 
L 280.452677 281.597413 
L 280.046453 281.597413 
L 279.640228 281.597413 
L 279.234004 281.597413 
L 278.827779 281.597413 
L 278.421555 281.597413 
L 278.015331 281.597413 
L 277.609106 281.597413 
L 277.202882 281.597413 
L 276.796657 281.597413 
L 276.390433 281.597413 
L 275.984209 281.597413 
L 275.577984 281.597413 
L 275.17176 281.597413 
L 274.765535 281.597413 
L 274.359311 281.597413 
L 273.953087 281.597413 
L 273.546862 281.597413 
L 273.140638 281.597413 
L 272.734413 281.597413 
L 272.328189 281.597413 
L 271.921965 281.597413 
L 271.51574 281.597413 
L 271.109516 281.597413 
L 270.703291 281.597413 
L 270.297067 281.597413 
L 269.890843 281.597413 
L 269.484618 281.597413 
L 269.078394 281.597413 
L 268.672169 281.597413 
L 268.265945 281.597413 
L 267.859721 281.597413 
L 267.453496 281.597413 
L 267.047272 281.597413 
L 266.641047 281.597413 
L 266.234823 281.597413 
L 265.828598 281.597413 
L 265.422374 281.597413 
L 265.01615 281.597413 
L 264.609925 281.597413 
L 264.203701 281.597413 
L 263.797476 281.597413 
L 263.391252 281.597413 
L 262.985028 281.597413 
L 262.578803 281.597413 
L 262.172579 281.597413 
L 261.766354 281.597413 
L 261.36013 281.597413 
L 260.953906 281.597413 
L 260.547681 281.597413 
L 260.141457 281.597413 
L 259.735232 281.597413 
L 259.329008 281.597413 
L 258.922784 281.597413 
L 258.516559 281.597413 
L 258.110335 281.597413 
L 257.70411 281.597413 
L 257.297886 281.597413 
L 256.891662 281.597413 
L 256.485437 281.597413 
L 256.079213 281.597413 
L 255.672988 281.597413 
L 255.266764 281.597413 
L 254.86054 281.597413 
L 254.454315 281.597413 
L 254.048091 281.597413 
L 253.641866 281.597413 
L 253.235642 281.597413 
L 252.829417 281.597413 
L 252.423193 281.597413 
L 252.016969 281.597413 
L 251.610744 281.597413 
L 251.20452 281.597413 
L 250.798295 281.597413 
L 250.392071 281.597413 
L 249.985847 281.597413 
L 249.579622 281.597413 
L 249.173398 281.597413 
L 248.767173 281.597413 
L 248.360949 281.597413 
L 247.954725 281.597413 
L 247.5485 281.597413 
L 247.142276 281.597413 
L 246.736051 281.597413 
L 246.329827 281.597413 
L 245.923603 281.597413 
L 245.517378 281.597413 
L 245.111154 281.597413 
L 244.704929 281.597413 
L 244.298705 281.597413 
L 243.892481 281.597413 
L 243.486256 281.597413 
L 243.080032 281.597413 
L 242.673807 281.597413 
L 242.267583 281.597413 
L 241.861359 281.597413 
L 241.455134 281.597413 
L 241.04891 281.597413 
L 240.642685 281.597413 
L 240.236461 281.597413 
L 239.830236 281.597413 
L 239.424012 281.597413 
L 239.017788 281.597413 
L 238.611563 281.597413 
L 238.205339 281.597413 
L 237.799114 281.597413 
L 237.39289 281.597413 
L 236.986666 281.597413 
L 236.580441 281.597413 
L 236.174217 281.597413 
L 235.767992 281.597413 
L 235.361768 281.597413 
L 234.955544 281.597413 
L 234.549319 281.597413 
L 234.143095 281.597413 
L 233.73687 281.597413 
L 233.330646 281.597413 
L 232.924422 281.597413 
L 232.518197 281.597413 
L 232.111973 281.597413 
L 231.705748 281.597413 
L 231.299524 281.597413 
L 230.8933 281.597413 
L 230.487075 281.597413 
L 230.080851 281.597413 
L 229.674626 281.597413 
L 229.268402 281.597413 
L 228.862178 281.597413 
L 228.455953 281.597413 
L 228.049729 281.597413 
L 227.643504 281.597413 
L 227.23728 281.597413 
L 226.831055 281.597413 
L 226.424831 281.597413 
L 226.018607 281.597413 
L 225.612382 281.597413 
L 225.206158 281.597413 
L 224.799933 281.597413 
L 224.393709 281.597413 
L 223.987485 281.597413 
L 223.58126 281.597413 
L 223.175036 281.597413 
L 222.768811 281.597413 
z
" clip-path="url(#pf5ef17b8d0)" style="fill: #1f77b4; fill-opacity: 0.25"/>
   </g>
   <g id="matplotlib.axis_1">
    <g id="xtick_1">
     <g id="line2d_1">
      <defs>
       <path id="ma31842bc25" d="M 0 0 
L 0 3.5 
" style="stroke: #000000; stroke-width: 0.8"/>
      </defs>
      <g>
       <use xlink:href="#ma31842bc25" x="70.434659" y="294.197413" style="stroke: #000000; stroke-width: 0.8"/>
      </g>
     </g>
     <g id="text_1">
      <!-- −4 -->
      <g transform="translate(63.063565 308.795851) scale(0.1 -0.1)">
       <defs>
        <path id="DejaVuSans-2212" d="M 678 2272 
L 4684 2272 
L 4684 1741 
L 678 1741 
L 678 2272 
z
" transform="scale(0.015625)"/>
        <path id="DejaVuSans-34" d="M 2419 4116 
L 825 1625 
L 2419 1625 
L 2419 4116 
z
M 2253 4666 
L 3047 4666 
L 3047 1625 
L 3713 1625 
L 3713 1100 
L 3047 1100 
L 3047 0 
L 2419 0 
L 2419 1100 
L 313 1100 
L 313 1709 
L 2253 4666 
z
" transform="scale(0.015625)"/>
       </defs>
       <use xlink:href="#DejaVuSans-2212"/>
       <use xlink:href="#DejaVuSans-34" transform="translate(83.789062 0)"/>
      </g>
     </g>
    </g>
    <g id="xtick_2">
     <g id="line2d_2">
      <g>
       <use xlink:href="#ma31842bc25" x="121.161932" y="294.197413" style="stroke: #000000; stroke-width: 0.8"/>
      </g>
     </g>
     <g id="text_2">
      <!-- −3 -->
      <g transform="translate(113.790838 308.795851) scale(0.1 -0.1)">
       <defs>
        <path id="DejaVuSans-33" d="M 2597 2516 
Q 3050 2419 3304 2112 
Q 3559 1806 3559 1356 
Q 3559 666 3084 287 
Q 2609 -91 1734 -91 
Q 1441 -91 1130 -33 
Q 819 25 488 141 
L 488 750 
Q 750 597 1062 519 
Q 1375 441 1716 441 
Q 2309 441 2620 675 
Q 2931 909 2931 1356 
Q 2931 1769 2642 2001 
Q 2353 2234 1838 2234 
L 1294 2234 
L 1294 2753 
L 1863 2753 
Q 2328 2753 2575 2939 
Q 2822 3125 2822 3475 
Q 2822 3834 2567 4026 
Q 2313 4219 1838 4219 
Q 1578 4219 1281 4162 
Q 984 4106 628 3988 
L 628 4550 
Q 988 4650 1302 4700 
Q 1616 4750 1894 4750 
Q 2613 4750 3031 4423 
Q 3450 4097 3450 3541 
Q 3450 3153 3228 2886 
Q 3006 2619 2597 2516 
z
" transform="scale(0.015625)"/>
       </defs>
       <use xlink:href="#DejaVuSans-2212"/>
       <use xlink:href="#DejaVuSans-33" transform="translate(83.789062 0)"/>
      </g>
     </g>
    </g>
    <g id="xtick_3">
     <g id="line2d_3">
      <g>
       <use xlink:href="#ma31842bc25" x="171.889205" y="294.197413" style="stroke: #000000; stroke-width: 0.8"/>
      </g>
     </g>
     <g id="text_3">
      <!-- −2 -->
      <g transform="translate(164.518111 308.795851) scale(0.1 -0.1)">
       <defs>
        <path id="DejaVuSans-32" d="M 1228 531 
L 3431 531 
L 3431 0 
L 469 0 
L 469 531 
Q 828 903 1448 1529 
Q 2069 2156 2228 2338 
Q 2531 2678 2651 2914 
Q 2772 3150 2772 3378 
Q 2772 3750 2511 3984 
Q 2250 4219 1831 4219 
Q 1534 4219 1204 4116 
Q 875 4013 500 3803 
L 500 4441 
Q 881 4594 1212 4672 
Q 1544 4750 1819 4750 
Q 2544 4750 2975 4387 
Q 3406 4025 3406 3419 
Q 3406 3131 3298 2873 
Q 3191 2616 2906 2266 
Q 2828 2175 2409 1742 
Q 1991 1309 1228 531 
z
" transform="scale(0.015625)"/>
       </defs>
       <use xlink:href="#DejaVuSans-2212"/>
       <use xlink:href="#DejaVuSans-32" transform="translate(83.789062 0)"/>
      </g>
     </g>
    </g>
    <g id="xtick_4">
     <g id="line2d_4">
      <g>
       <use xlink:href="#ma31842bc25" x="222.616477" y="294.197413" style="stroke: #000000; stroke-width: 0.8"/>
      </g>
     </g>
     <g id="text_4">
      <!-- −1 -->
      <g transform="translate(215.245384 308.795851) scale(0.1 -0.1)">
       <defs>
        <path id="DejaVuSans-31" d="M 794 531 
L 1825 531 
L 1825 4091 
L 703 3866 
L 703 4441 
L 1819 4666 
L 2450 4666 
L 2450 531 
L 3481 531 
L 3481 0 
L 794 0 
L 794 531 
z
" transform="scale(0.015625)"/>
       </defs>
       <use xlink:href="#DejaVuSans-2212"/>
       <use xlink:href="#DejaVuSans-31" transform="translate(83.789062 0)"/>
      </g>
     </g>
    </g>
    <g id="xtick_5">
     <g id="line2d_5">
      <g>
       <use xlink:href="#ma31842bc25" x="273.34375" y="294.197413" style="stroke: #000000; stroke-width: 0.8"/>
      </g>
     </g>
     <g id="text_5">
      <!-- 0 -->
      <g transform="translate(270.1625 308.795851) scale(0.1 -0.1)">
       <defs>
        <path id="DejaVuSans-30" d="M 2034 4250 
Q 1547 4250 1301 3770 
Q 1056 3291 1056 2328 
Q 1056 1369 1301 889 
Q 1547 409 2034 409 
Q 2525 409 2770 889 
Q 3016 1369 3016 2328 
Q 3016 3291 2770 3770 
Q 2525 4250 2034 4250 
z
M 2034 4750 
Q 2819 4750 3233 4129 
Q 3647 3509 3647 2328 
Q 3647 1150 3233 529 
Q 2819 -91 2034 -91 
Q 1250 -91 836 529 
Q 422 1150 422 2328 
Q 422 3509 836 4129 
Q 1250 4750 2034 4750 
z
" transform="scale(0.015625)"/>
       </defs>
       <use xlink:href="#DejaVuSans-30"/>
      </g>
     </g>
    </g>
    <g id="xtick_6">
     <g id="line2d_6">
      <g>
       <use xlink:href="#ma31842bc25" x="324.071023" y="294.197413" style="stroke: #000000; stroke-width: 0.8"/>
      </g>
     </g>
     <g id="text_6">
      <!-- 1 -->
      <g transform="translate(320.889773 308.795851) scale(0.1 -0.1)">
       <use xlink:href="#DejaVuSans-31"/>
      </g>
     </g>
    </g>
    <g id="xtick_7">
     <g id="line2d_7">
      <g>
       <use xlink:href="#ma31842bc25" x="374.798295" y="294.197413" style="stroke: #000000; stroke-width: 0.8"/>
      </g>
     </g>
     <g id="text_7">
      <!-- 2 -->
      <g transform="translate(371.617045 308.795851) scale(0.1 -0.1)">
       <use xlink:href="#DejaVuSans-32"/>
      </g>
     </g>
    </g>
    <g id="xtick_8">
     <g id="line2d_8">
      <g>
       <use xlink:href="#ma31842bc25" x="425.525568" y="294.197413" style="stroke: #000000; stroke-width: 0.8"/>
      </g>
     </g>
     <g id="text_8">
      <!-- 3 -->
      <g transform="translate(422.344318 308.795851) scale(0.1 -0.1)">
       <use xlink:href="#DejaVuSans-33"/>
      </g>
     </g>
    </g>
    <g id="xtick_9">
     <g id="line2d_9">
      <g>
       <use xlink:href="#ma31842bc25" x="476.252841" y="294.197413" style="stroke: #000000; stroke-width: 0.8"/>
      </g>
     </g>
     <g id="text_9">
      <!-- 4 -->
      <g transform="translate(473.071591 308.795851) scale(0.1 -0.1)">
       <use xlink:href="#DejaVuSans-34"/>
      </g>
     </g>
    </g>
    <g id="text_10">
     <!-- $x$ -->
     <g transform="translate(270.34375 322.473976) scale(0.1 -0.1)">
      <defs>
       <path id="DejaVuSans-Oblique-78" d="M 3841 3500 
L 2234 1784 
L 3219 0 
L 2559 0 
L 1819 1388 
L 531 0 
L -166 0 
L 1556 1844 
L 641 3500 
L 1300 3500 
L 1972 2234 
L 3144 3500 
L 3841 3500 
z
" transform="scale(0.015625)"/>
      </defs>
      <use xlink:href="#DejaVuSans-Oblique-78" transform="translate(0 0.3125)"/>
     </g>
    </g>
   </g>
   <g id="matplotlib.axis_2">
    <g id="ytick_1">
     <g id="line2d_10">
      <defs>
       <path id="m921234561b" d="M 0 0 
L -3.5 0 
" style="stroke: #000000; stroke-width: 0.8"/>
      </defs>
      <g>
       <use xlink:href="#m921234561b" x="50.14375" y="281.597413" style="stroke: #000000; stroke-width: 0.8"/>
      </g>
     </g>
     <g id="text_11">
      <!-- 0.00 -->
      <g transform="translate(20.878125 285.396632) scale(0.1 -0.1)">
       <defs>
        <path id="DejaVuSans-2e" d="M 684 794 
L 1344 794 
L 1344 0 
L 684 0 
L 684 794 
z
" transform="scale(0.015625)"/>
       </defs>
       <use xlink:href="#DejaVuSans-30"/>
       <use xlink:href="#DejaVuSans-2e" transform="translate(63.623047 0)"/>
       <use xlink:href="#DejaVuSans-30" transform="translate(95.410156 0)"/>
       <use xlink:href="#DejaVuSans-30" transform="translate(159.033203 0)"/>
      </g>
     </g>
    </g>
    <g id="ytick_2">
     <g id="line2d_11">
      <g>
       <use xlink:href="#m921234561b" x="50.14375" y="250.013644" style="stroke: #000000; stroke-width: 0.8"/>
      </g>
     </g>
     <g id="text_12">
      <!-- 0.05 -->
      <g transform="translate(20.878125 253.812863) scale(0.1 -0.1)">
       <defs>
        <path id="DejaVuSans-35" d="M 691 4666 
L 3169 4666 
L 3169 4134 
L 1269 4134 
L 1269 2991 
Q 1406 3038 1543 3061 
Q 1681 3084 1819 3084 
Q 2600 3084 3056 2656 
Q 3513 2228 3513 1497 
Q 3513 744 3044 326 
Q 2575 -91 1722 -91 
Q 1428 -91 1123 -41 
Q 819 9 494 109 
L 494 744 
Q 775 591 1075 516 
Q 1375 441 1709 441 
Q 2250 441 2565 725 
Q 2881 1009 2881 1497 
Q 2881 1984 2565 2268 
Q 2250 2553 1709 2553 
Q 1456 2553 1204 2497 
Q 953 2441 691 2322 
L 691 4666 
z
" transform="scale(0.015625)"/>
       </defs>
       <use xlink:href="#DejaVuSans-30"/>
       <use xlink:href="#DejaVuSans-2e" transform="translate(63.623047 0)"/>
       <use xlink:href="#DejaVuSans-30" transform="translate(95.410156 0)"/>
       <use xlink:href="#DejaVuSans-35" transform="translate(159.033203 0)"/>
      </g>
     </g>
    </g>
    <g id="ytick_3">
     <g id="line2d_12">
      <g>
       <use xlink:href="#m921234561b" x="50.14375" y="218.429874" style="stroke: #000000; stroke-width: 0.8"/>
      </g>
     </g>
     <g id="text_13">
      <!-- 0.10 -->
      <g transform="translate(20.878125 222.229093) scale(0.1 -0.1)">
       <use xlink:href="#DejaVuSans-30"/>
       <use xlink:href="#DejaVuSans-2e" transform="translate(63.623047 0)"/>
       <use xlink:href="#DejaVuSans-31" transform="translate(95.410156 0)"/>
       <use xlink:href="#DejaVuSans-30" transform="translate(159.033203 0)"/>
      </g>
     </g>
    </g>
    <g id="ytick_4">
     <g id="line2d_13">
      <g>
       <use xlink:href="#m921234561b" x="50.14375" y="186.846105" style="stroke: #000000; stroke-width: 0.8"/>
      </g>
     </g>
     <g id="text_14">
      <!-- 0.15 -->
      <g transform="translate(20.878125 190.645324) scale(0.1 -0.1)">
       <use xlink:href="#DejaVuSans-30"/>
       <use xlink:href="#DejaVuSans-2e" transform="translate(63.623047 0)"/>
       <use xlink:href="#DejaVuSans-31" transform="translate(95.410156 0)"/>
       <use xlink:href="#DejaVuSans-35" transform="translate(159.033203 0)"/>
      </g>
     </g>
    </g>
    <g id="ytick_5">
     <g id="line2d_14">
      <g>
       <use xlink:href="#m921234561b" x="50.14375" y="155.262336" style="stroke: #000000; stroke-width: 0.8"/>
      </g>
     </g>
     <g id="text_15">
      <!-- 0.20 -->
      <g transform="translate(20.878125 159.061554) scale(0.1 -0.1)">
       <use xlink:href="#DejaVuSans-30"/>
       <use xlink:href="#DejaVuSans-2e" transform="translate(63.623047 0)"/>
       <use xlink:href="#DejaVuSans-32" transform="translate(95.410156 0)"/>
       <use xlink:href="#DejaVuSans-30" transform="translate(159.033203 0)"/>
      </g>
     </g>
    </g>
    <g id="ytick_6">
     <g id="line2d_15">
      <g>
       <use xlink:href="#m921234561b" x="50.14375" y="123.678566" style="stroke: #000000; stroke-width: 0.8"/>
      </g>
     </g>
     <g id="text_16">
      <!-- 0.25 -->
      <g transform="translate(20.878125 127.477785) scale(0.1 -0.1)">
       <use xlink:href="#DejaVuSans-30"/>
       <use xlink:href="#DejaVuSans-2e" transform="translate(63.623047 0)"/>
       <use xlink:href="#DejaVuSans-32" transform="translate(95.410156 0)"/>
       <use xlink:href="#DejaVuSans-35" transform="translate(159.033203 0)"/>
      </g>
     </g>
    </g>
    <g id="ytick_7">
     <g id="line2d_16">
      <g>
       <use xlink:href="#m921234561b" x="50.14375" y="92.094797" style="stroke: #000000; stroke-width: 0.8"/>
      </g>
     </g>
     <g id="text_17">
      <!-- 0.30 -->
      <g transform="translate(20.878125 95.894015) scale(0.1 -0.1)">
       <use xlink:href="#DejaVuSans-30"/>
       <use xlink:href="#DejaVuSans-2e" transform="translate(63.623047 0)"/>
       <use xlink:href="#DejaVuSans-33" transform="translate(95.410156 0)"/>
       <use xlink:href="#DejaVuSans-30" transform="translate(159.033203 0)"/>
      </g>
     </g>
    </g>
    <g id="ytick_8">
     <g id="line2d_17">
      <g>
       <use xlink:href="#m921234561b" x="50.14375" y="60.511027" style="stroke: #000000; stroke-width: 0.8"/>
      </g>
     </g>
     <g id="text_18">
      <!-- 0.35 -->
      <g transform="translate(20.878125 64.310246) scale(0.1 -0.1)">
       <use xlink:href="#DejaVuSans-30"/>
       <use xlink:href="#DejaVuSans-2e" transform="translate(63.623047 0)"/>
       <use xlink:href="#DejaVuSans-33" transform="translate(95.410156 0)"/>
       <use xlink:href="#DejaVuSans-35" transform="translate(159.033203 0)"/>
      </g>
     </g>
    </g>
    <g id="ytick_9">
     <g id="line2d_18">
      <g>
       <use xlink:href="#m921234561b" x="50.14375" y="28.927258" style="stroke: #000000; stroke-width: 0.8"/>
      </g>
     </g>
     <g id="text_19">
      <!-- 0.40 -->
      <g transform="translate(20.878125 32.726477) scale(0.1 -0.1)">
       <use xlink:href="#DejaVuSans-30"/>
       <use xlink:href="#DejaVuSans-2e" transform="translate(63.623047 0)"/>
       <use xlink:href="#DejaVuSans-34" transform="translate(95.410156 0)"/>
       <use xlink:href="#DejaVuSans-30" transform="translate(159.033203 0)"/>
      </g>
     </g>
    </g>
    <g id="text_20">
     <!-- $f(x)$ -->
     <g transform="translate(14.798437 164.247413) rotate(-90) scale(0.1 -0.1)">
      <defs>
       <path id="DejaVuSans-Oblique-66" d="M 3059 4863 
L 2969 4384 
L 2419 4384 
Q 2106 4384 1964 4261 
Q 1822 4138 1753 3809 
L 1691 3500 
L 2638 3500 
L 2553 3053 
L 1606 3053 
L 1013 0 
L 434 0 
L 1031 3053 
L 481 3053 
L 563 3500 
L 1113 3500 
L 1159 3744 
Q 1278 4363 1576 4613 
Q 1875 4863 2516 4863 
L 3059 4863 
z
" transform="scale(0.015625)"/>
       <path id="DejaVuSans-28" d="M 1984 4856 
Q 1566 4138 1362 3434 
Q 1159 2731 1159 2009 
Q 1159 1288 1364 580 
Q 1569 -128 1984 -844 
L 1484 -844 
Q 1016 -109 783 600 
Q 550 1309 550 2009 
Q 550 2706 781 3412 
Q 1013 4119 1484 4856 
L 1984 4856 
z
" transform="scale(0.015625)"/>
       <path id="DejaVuSans-29" d="M 513 4856 
L 1013 4856 
Q 1481 4119 1714 3412 
Q 1947 2706 1947 2009 
Q 1947 1309 1714 600 
Q 1481 -109 1013 -844 
L 513 -844 
Q 928 -128 1133 580 
Q 1338 1288 1338 2009 
Q 1338 2731 1133 3434 
Q 928 4138 513 4856 
z
" transform="scale(0.015625)"/>
      </defs>
      <use xlink:href="#DejaVuSans-Oblique-66" transform="translate(0 0.015625)"/>
      <use xlink:href="#DejaVuSans-28" transform="translate(35.205078 0.015625)"/>
      <use xlink:href="#DejaVuSans-Oblique-78" transform="translate(74.21875 0.015625)"/>
      <use xlink:href="#DejaVuSans-29" transform="translate(133.398438 0.015625)"/>
     </g>
    </g>
   </g>
   <g id="line2d_19">
    <path d="M 70.434659 281.512876 
L 87.496084 281.290681 
L 98.464143 280.935757 
L 106.588631 280.462781 
L 113.494446 279.838739 
L 119.181588 279.109217 
L 124.462505 278.201694 
L 128.930974 277.216888 
L 132.993218 276.112847 
L 137.055462 274.774446 
L 140.711481 273.338175 
L 144.367501 271.65136 
L 147.617296 269.915879 
L 150.867092 267.933769 
L 154.116887 265.680795 
L 157.366682 263.132274 
L 160.616477 260.263429 
L 163.460048 257.471194 
L 166.303619 254.399105 
L 169.14719 251.032031 
L 171.990761 247.355888 
L 175.240556 242.75989 
L 178.490351 237.727425 
L 181.740146 232.245832 
L 184.989942 226.3067 
L 188.239737 219.906546 
L 191.489532 213.047465 
L 195.145552 204.793012 
L 198.801571 195.990431 
L 202.863816 185.608215 
L 207.332284 173.531152 
L 212.206977 159.700305 
L 218.706567 140.508598 
L 233.73687 95.805409 
L 238.205339 83.348075 
L 241.861359 73.740043 
L 245.111154 65.752641 
L 248.360949 58.376332 
L 251.20452 52.488219 
L 253.641866 47.903001 
L 256.079213 43.77569 
L 258.516559 40.133578 
L 260.547681 37.486788 
L 262.578803 35.206318 
L 264.609925 33.30293 
L 266.234823 32.05785 
L 267.859721 31.063718 
L 269.484618 30.323579 
L 271.109516 29.839701 
L 272.734413 29.613573 
L 274.359311 29.64589 
L 275.984209 29.936551 
L 277.609106 30.484664 
L 279.234004 31.288545 
L 280.858902 32.345729 
L 282.483799 33.652982 
L 284.108697 35.206318 
L 286.139819 37.486788 
L 288.170941 40.133578 
L 290.202063 43.134282 
L 292.639409 47.182545 
L 295.076756 51.693456 
L 297.514102 56.637508 
L 300.357673 62.910376 
L 303.607468 70.678586 
L 307.263488 80.079514 
L 311.325732 91.197863 
L 316.200425 105.232416 
L 323.512464 127.067531 
L 333.668074 157.340458 
L 338.948992 172.402625 
L 343.41746 184.537365 
L 347.479704 194.979876 
L 351.541948 204.793012 
L 355.197968 213.047465 
L 358.853988 220.731763 
L 362.103783 227.074284 
L 365.353578 232.955925 
L 368.603373 238.380824 
L 371.853169 243.357958 
L 375.102964 247.900472 
L 378.352759 252.024997 
L 381.602554 255.750974 
L 384.85235 259.10002 
L 388.102145 262.09532 
L 391.35194 264.761067 
L 394.601735 267.121965 
L 397.851531 269.202778 
L 401.101326 271.027947 
L 404.757345 272.805281 
L 408.413365 274.321634 
L 412.069385 275.607661 
L 416.131629 276.801108 
L 420.600097 277.868882 
L 425.47479 278.789506 
L 430.755707 279.553609 
L 436.849074 280.199678 
L 443.754888 280.704451 
L 452.285601 281.096984 
L 463.25366 281.369405 
L 476.252841 281.512876 
L 476.252841 281.512876 
" clip-path="url(#pf5ef17b8d0)" style="fill: none; stroke: #1f77b4; stroke-width: 2; stroke-linecap: square"/>
   </g>
   <g id="line2d_20">
    <path d="M 222.616477 294.197413 
L 222.616477 16.997413 
" clip-path="url(#pf5ef17b8d0)" style="fill: none; stroke-dasharray: 3.7,1.6; stroke-dashoffset: 0; stroke: #1f77b4"/>
   </g>
   <g id="line2d_21">
    <path d="M 324.071023 294.197413 
L 324.071023 16.997413 
" clip-path="url(#pf5ef17b8d0)" style="fill: none; stroke-dasharray: 3.7,1.6; stroke-dashoffset: 0; stroke: #1f77b4"/>
   </g>
   <g id="patch_3">
    <path d="M 50.14375 294.197413 
L 50.14375 16.997413 
" style="fill: none; stroke: #000000; stroke-width: 0.8; stroke-linejoin: miter; stroke-linecap: square"/>
   </g>
   <g id="patch_4">
    <path d="M 50.14375 294.197413 
L 496.54375 294.197413 
" style="fill: none; stroke: #000000; stroke-width: 0.8; stroke-linejoin: miter; stroke-linecap: square"/>
   </g>
   <g id="text_21">
    <!-- $\mu$ -->
    <g transform="translate(269.50375 16.29375) scale(0.12 -0.12)">
     <defs>
      <path id="DejaVuSans-Oblique-3bc" d="M -84 -1331 
L 856 3500 
L 1434 3500 
L 1009 1322 
Q 997 1256 987 1175 
Q 978 1094 978 1013 
Q 978 722 1161 565 
Q 1344 409 1684 409 
Q 2147 409 2431 671 
Q 2716 934 2816 1459 
L 3213 3500 
L 3788 3500 
L 3266 809 
Q 3253 750 3248 706 
Q 3244 663 3244 628 
Q 3244 531 3283 486 
Q 3322 441 3406 441 
Q 3438 441 3492 456 
Q 3547 472 3647 513 
L 3559 50 
Q 3422 -19 3297 -55 
Q 3172 -91 3053 -91 
Q 2847 -91 2730 40 
Q 2613 172 2613 403 
Q 2438 153 2195 31 
Q 1953 -91 1625 -91 
Q 1334 -91 1117 43 
Q 900 178 831 397 
L 494 -1331 
L -84 -1331 
z
" transform="scale(0.015625)"/>
     </defs>
     <use xlink:href="#DejaVuSans-Oblique-3bc" transform="translate(0 0.3125)"/>
    </g>
   </g>
   <g id="text_22">
    <!-- $\mu+\sigma$ -->
    <g transform="translate(311.571023 104.728304) scale(0.1 -0.1)">
     <defs>
      <path id="DejaVuSans-2b" d="M 2944 4013 
L 2944 2272 
L 4684 2272 
L 4684 1741 
L 2944 1741 
L 2944 0 
L 2419 0 
L 2419 1741 
L 678 1741 
L 678 2272 
L 2419 2272 
L 2419 4013 
L 2944 4013 
z
" transform="scale(0.015625)"/>
      <path id="DejaVuSans-Oblique-3c3" d="M 2219 3044 
Q 1744 3044 1422 2700 
Q 1081 2341 969 1747 
Q 844 1119 1044 756 
Q 1241 397 1706 397 
Q 2166 397 2503 759 
Q 2844 1122 2966 1747 
Q 3075 2319 2881 2700 
Q 2700 3044 2219 3044 
z
M 2309 3503 
L 4219 3500 
L 4106 2925 
L 3463 2925 
Q 3706 2438 3575 1747 
Q 3406 888 2884 400 
Q 2359 -91 1609 -91 
Q 856 -91 525 400 
Q 194 888 363 1747 
Q 528 2609 1050 3097 
Q 1484 3503 2309 3503 
z
" transform="scale(0.015625)"/>
     </defs>
     <use xlink:href="#DejaVuSans-Oblique-3bc" transform="translate(0 0.296875)"/>
     <use xlink:href="#DejaVuSans-2b" transform="translate(83.105469 0.296875)"/>
     <use xlink:href="#DejaVuSans-Oblique-3c3" transform="translate(186.376953 0.296875)"/>
    </g>
   </g>
   <g id="text_23">
    <!-- $\mu-\sigma$ -->
    <g transform="translate(210.116477 104.728304) scale(0.1 -0.1)">
     <use xlink:href="#DejaVuSans-Oblique-3bc" transform="translate(0 0.265625)"/>
     <use xlink:href="#DejaVuSans-2212" transform="translate(83.105469 0.265625)"/>
     <use xlink:href="#DejaVuSans-Oblique-3c3" transform="translate(186.376953 0.265625)"/>
    </g>
   </g>
   <g id="text_24">
    <!-- $P(|X-\mu|&lt;\sigma)=0.6827$ -->
    <g transform="translate(217.34375 218.429874) scale(0.1 -0.1)">
     <defs>
      <path id="DejaVuSans-Oblique-50" d="M 1081 4666 
L 2541 4666 
Q 3178 4666 3512 4369 
Q 3847 4072 3847 3500 
Q 3847 2731 3353 2303 
Q 2859 1875 1966 1875 
L 1172 1875 
L 806 0 
L 172 0 
L 1081 4666 
z
M 1613 4147 
L 1275 2394 
L 2069 2394 
Q 2606 2394 2893 2669 
Q 3181 2944 3181 3456 
Q 3181 3784 2986 3965 
Q 2791 4147 2438 4147 
L 1613 4147 
z
" transform="scale(0.015625)"/>
      <path id="DejaVuSans-7c" d="M 1344 4891 
L 1344 -1509 
L 813 -1509 
L 813 4891 
L 1344 4891 
z
" transform="scale(0.015625)"/>
      <path id="DejaVuSans-Oblique-58" d="M 878 4666 
L 1516 4666 
L 2316 2981 
L 3763 4666 
L 4500 4666 
L 2578 2438 
L 3738 0 
L 3103 0 
L 2163 1966 
L 459 0 
L -275 0 
L 1906 2509 
L 878 4666 
z
" transform="scale(0.015625)"/>
      <path id="DejaVuSans-3c" d="M 4684 3150 
L 1459 2003 
L 4684 863 
L 4684 294 
L 678 1747 
L 678 2266 
L 4684 3719 
L 4684 3150 
z
" transform="scale(0.015625)"/>
      <path id="DejaVuSans-3d" d="M 678 2906 
L 4684 2906 
L 4684 2381 
L 678 2381 
L 678 2906 
z
M 678 1631 
L 4684 1631 
L 4684 1100 
L 678 1100 
L 678 1631 
z
" transform="scale(0.015625)"/>
      <path id="DejaVuSans-36" d="M 2113 2584 
Q 1688 2584 1439 2293 
Q 1191 2003 1191 1497 
Q 1191 994 1439 701 
Q 1688 409 2113 409 
Q 2538 409 2786 701 
Q 3034 994 3034 1497 
Q 3034 2003 2786 2293 
Q 2538 2584 2113 2584 
z
M 3366 4563 
L 3366 3988 
Q 3128 4100 2886 4159 
Q 2644 4219 2406 4219 
Q 1781 4219 1451 3797 
Q 1122 3375 1075 2522 
Q 1259 2794 1537 2939 
Q 1816 3084 2150 3084 
Q 2853 3084 3261 2657 
Q 3669 2231 3669 1497 
Q 3669 778 3244 343 
Q 2819 -91 2113 -91 
Q 1303 -91 875 529 
Q 447 1150 447 2328 
Q 447 3434 972 4092 
Q 1497 4750 2381 4750 
Q 2619 4750 2861 4703 
Q 3103 4656 3366 4563 
z
" transform="scale(0.015625)"/>
      <path id="DejaVuSans-38" d="M 2034 2216 
Q 1584 2216 1326 1975 
Q 1069 1734 1069 1313 
Q 1069 891 1326 650 
Q 1584 409 2034 409 
Q 2484 409 2743 651 
Q 3003 894 3003 1313 
Q 3003 1734 2745 1975 
Q 2488 2216 2034 2216 
z
M 1403 2484 
Q 997 2584 770 2862 
Q 544 3141 544 3541 
Q 544 4100 942 4425 
Q 1341 4750 2034 4750 
Q 2731 4750 3128 4425 
Q 3525 4100 3525 3541 
Q 3525 3141 3298 2862 
Q 3072 2584 2669 2484 
Q 3125 2378 3379 2068 
Q 3634 1759 3634 1313 
Q 3634 634 3220 271 
Q 2806 -91 2034 -91 
Q 1263 -91 848 271 
Q 434 634 434 1313 
Q 434 1759 690 2068 
Q 947 2378 1403 2484 
z
M 1172 3481 
Q 1172 3119 1398 2916 
Q 1625 2713 2034 2713 
Q 2441 2713 2670 2916 
Q 2900 3119 2900 3481 
Q 2900 3844 2670 4047 
Q 2441 4250 2034 4250 
Q 1625 4250 1398 4047 
Q 1172 3844 1172 3481 
z
" transform="scale(0.015625)"/>
      <path id="DejaVuSans-37" d="M 525 4666 
L 3525 4666 
L 3525 4397 
L 1831 0 
L 1172 0 
L 2766 4134 
L 525 4134 
L 525 4666 
z
" transform="scale(0.015625)"/>
     </defs>
     <use xlink:href="#DejaVuSans-Oblique-50" transform="translate(0 0.578125)"/>
     <use xlink:href="#DejaVuSans-28" transform="translate(60.302734 0.578125)"/>
     <use xlink:href="#DejaVuSans-7c" transform="translate(99.316406 0.578125)"/>
     <use xlink:href="#DejaVuSans-Oblique-58" transform="translate(133.007812 0.578125)"/>
     <use xlink:href="#DejaVuSans-2212" transform="translate(220.996094 0.578125)"/>
     <use xlink:href="#DejaVuSans-Oblique-3bc" transform="translate(324.267578 0.578125)"/>
     <use xlink:href="#DejaVuSans-7c" transform="translate(387.890625 0.578125)"/>
     <use xlink:href="#DejaVuSans-3c" transform="translate(441.064453 0.578125)"/>
     <use xlink:href="#DejaVuSans-Oblique-3c3" transform="translate(544.335938 0.578125)"/>
     <use xlink:href="#DejaVuSans-29" transform="translate(607.714844 0.578125)"/>
     <use xlink:href="#DejaVuSans-3d" transform="translate(666.210938 0.578125)"/>
     <use xlink:href="#DejaVuSans-30" transform="translate(769.482422 0.578125)"/>
     <use xlink:href="#DejaVuSans-2e" transform="translate(833.105469 0.578125)"/>
     <use xlink:href="#DejaVuSans-36" transform="translate(864.892578 0.578125)"/>
     <use xlink:href="#DejaVuSans-38" transform="translate(928.515625 0.578125)"/>
     <use xlink:href="#DejaVuSans-32" transform="translate(992.138672 0.578125)"/>
     <use xlink:href="#DejaVuSans-37" transform="translate(1055.761719 0.578125)"/>
    </g>
   </g>
  </g>
 </g>
 <defs>
  <clipPath id="pf5ef17b8d0">
   <rect x="50.14375" y="16.997413" width="446.4" height="277.2"/>
  </clipPath>
 </defs>
</svg>
