<?xml version="1.0" encoding="utf-8" standalone="no"?>
<!DOCTYPE svg PUBLIC "-//W3C//DTD SVG 1.1//EN"
  "http://www.w3.org/Graphics/SVG/1.1/DTD/svg11.dtd">
<svg xmlns:xlink="http://www.w3.org/1999/xlink" width="615.34375pt" height="385.818771pt" viewBox="0 0 615.34375 385.818771" xmlns="http://www.w3.org/2000/svg" version="1.1">
 <metadata>
  <rdf:RDF xmlns:dc="http://purl.org/dc/elements/1.1/" xmlns:cc="http://creativecommons.org/ns#" xmlns:rdf="http://www.w3.org/1999/02/22-rdf-syntax-ns#">
   <cc:Work>
    <dc:type rdf:resource="http://purl.org/dc/dcmitype/StillImage"/>
    <dc:date>2026-04-17T07:10:40.631783</dc:date>
    <dc:format>image/svg+xml</dc:format>
    <dc:creator>
     <cc:Agent>
      <dc:title>Matplotlib v3.10.8, https://matplotlib.org/</dc:title>
     </cc:Agent>
    </dc:creator>
   </cc:Work>
  </rdf:RDF>
 </metadata>
 <defs>
  <style type="text/css">*{stroke-linejoin: round; stroke-linecap: butt}</style>
 </defs>
 <g id="figure_1">
  <g id="patch_1">
   <path d="M 0 385.818771 
L 615.34375 385.818771 
L 615.34375 0 
L 0 0 
z
" style="fill: #ffffff"/>
  </g>
  <g id="axes_1">
   <g id="patch_2">
    <path d="M 50.14375 348.262521 
L 608.14375 348.262521 
L 608.14375 15.622521 
L 50.14375 15.622521 
z
" style="fill: #ffffff"/>
   </g>
   <g id="FillBetweenPolyCollection_1">
    <path d="M 138.97995 333.142521 
L 138.97995 329.773032 
L 139.48773 329.691241 
L 139.995511 329.607692 
L 140.503291 329.522352 
L 141.011072 329.43519 
L 141.518852 329.346173 
L 142.026633 329.255267 
L 142.534413 329.16244 
L 143.042194 329.067658 
L 143.549974 328.970886 
L 144.057755 328.87209 
L 144.565535 328.771234 
L 145.073316 328.668283 
L 145.581096 328.563201 
L 146.088877 328.455952 
L 146.596657 328.346499 
L 147.104438 328.234804 
L 147.612218 328.12083 
L 148.119999 328.004538 
L 148.627779 327.885891 
L 149.13556 327.764848 
L 149.64334 327.641371 
L 150.151121 327.51542 
L 150.658902 327.386955 
L 151.166682 327.255934 
L 151.674463 327.122316 
L 152.182243 326.98606 
L 152.690024 326.847124 
L 153.197804 326.705466 
L 153.705585 326.561042 
L 154.213365 326.413809 
L 154.721146 326.263724 
L 155.228926 326.110742 
L 155.736707 325.954818 
L 156.244487 325.795908 
L 156.752268 325.633967 
L 157.260048 325.468948 
L 157.767829 325.300805 
L 158.275609 325.129491 
L 158.78339 324.95496 
L 159.29117 324.777165 
L 159.798951 324.596056 
L 160.306731 324.411586 
L 160.814512 324.223707 
L 161.322292 324.032369 
L 161.830073 323.837522 
L 162.337853 323.639118 
L 162.845634 323.437106 
L 163.353414 323.231436 
L 163.861195 323.022055 
L 164.368975 322.808915 
L 164.876756 322.591962 
L 165.384536 322.371145 
L 165.892317 322.146411 
L 166.400097 321.917709 
L 166.907878 321.684985 
L 167.415658 321.448185 
L 167.923439 321.207257 
L 168.431219 320.962146 
L 168.939 320.712799 
L 169.44678 320.459161 
L 169.954561 320.201177 
L 170.462341 319.938792 
L 170.970122 319.671951 
L 171.477902 319.400599 
L 171.985683 319.12468 
L 172.493463 318.844137 
L 173.001244 318.558916 
L 173.509024 318.268958 
L 174.016805 317.974208 
L 174.524585 317.674609 
L 175.032366 317.370104 
L 175.540146 317.060636 
L 176.047927 316.746147 
L 176.555707 316.426581 
L 177.063488 316.101878 
L 177.571268 315.771983 
L 178.079049 315.436836 
L 178.586829 315.096381 
L 179.09461 314.750558 
L 179.60239 314.39931 
L 180.110171 314.042579 
L 180.617951 313.680307 
L 181.125732 313.312435 
L 181.633512 312.938905 
L 182.141293 312.55966 
L 182.649074 312.17464 
L 183.156854 311.783788 
L 183.664635 311.387045 
L 184.172415 310.984353 
L 184.680196 310.575655 
L 185.187976 310.160893 
L 185.695757 309.740008 
L 186.203537 309.312944 
L 186.711318 308.879642 
L 187.219098 308.440046 
L 187.726879 307.994097 
L 188.234659 307.54174 
L 188.74244 307.082917 
L 189.25022 306.617572 
L 189.758001 306.145649 
L 190.265781 305.667092 
L 190.773562 305.181844 
L 191.281342 304.689851 
L 191.789123 304.191058 
L 192.296903 303.68541 
L 192.804684 303.172852 
L 193.312464 302.653331 
L 193.820245 302.126794 
L 194.328025 301.593186 
L 194.835806 301.052456 
L 195.343586 300.504551 
L 195.851367 299.94942 
L 196.359147 299.387012 
L 196.866928 298.817276 
L 197.374708 298.240162 
L 197.882489 297.655621 
L 198.390269 297.063604 
L 198.89805 296.464062 
L 199.40583 295.856949 
L 199.913611 295.242217 
L 200.421391 294.61982 
L 200.929172 293.989713 
L 201.436952 293.351852 
L 201.944733 292.706192 
L 201.944733 333.142521 
L 201.944733 333.142521 
L 201.436952 333.142521 
L 200.929172 333.142521 
L 200.421391 333.142521 
L 199.913611 333.142521 
L 199.40583 333.142521 
L 198.89805 333.142521 
L 198.390269 333.142521 
L 197.882489 333.142521 
L 197.374708 333.142521 
L 196.866928 333.142521 
L 196.359147 333.142521 
L 195.851367 333.142521 
L 195.343586 333.142521 
L 194.835806 333.142521 
L 194.328025 333.142521 
L 193.820245 333.142521 
L 193.312464 333.142521 
L 192.804684 333.142521 
L 192.296903 333.142521 
L 191.789123 333.142521 
L 191.281342 333.142521 
L 190.773562 333.142521 
L 190.265781 333.142521 
L 189.758001 333.142521 
L 189.25022 333.142521 
L 188.74244 333.142521 
L 188.234659 333.142521 
L 187.726879 333.142521 
L 187.219098 333.142521 
L 186.711318 333.142521 
L 186.203537 333.142521 
L 185.695757 333.142521 
L 185.187976 333.142521 
L 184.680196 333.142521 
L 184.172415 333.142521 
L 183.664635 333.142521 
L 183.156854 333.142521 
L 182.649074 333.142521 
L 182.141293 333.142521 
L 181.633512 333.142521 
L 181.125732 333.142521 
L 180.617951 333.142521 
L 180.110171 333.142521 
L 179.60239 333.142521 
L 179.09461 333.142521 
L 178.586829 333.142521 
L 178.079049 333.142521 
L 177.571268 333.142521 
L 177.063488 333.142521 
L 176.555707 333.142521 
L 176.047927 333.142521 
L 175.540146 333.142521 
L 175.032366 333.142521 
L 174.524585 333.142521 
L 174.016805 333.142521 
L 173.509024 333.142521 
L 173.001244 333.142521 
L 172.493463 333.142521 
L 171.985683 333.142521 
L 171.477902 333.142521 
L 170.970122 333.142521 
L 170.462341 333.142521 
L 169.954561 333.142521 
L 169.44678 333.142521 
L 168.939 333.142521 
L 168.431219 333.142521 
L 167.923439 333.142521 
L 167.415658 333.142521 
L 166.907878 333.142521 
L 166.400097 333.142521 
L 165.892317 333.142521 
L 165.384536 333.142521 
L 164.876756 333.142521 
L 164.368975 333.142521 
L 163.861195 333.142521 
L 163.353414 333.142521 
L 162.845634 333.142521 
L 162.337853 333.142521 
L 161.830073 333.142521 
L 161.322292 333.142521 
L 160.814512 333.142521 
L 160.306731 333.142521 
L 159.798951 333.142521 
L 159.29117 333.142521 
L 158.78339 333.142521 
L 158.275609 333.142521 
L 157.767829 333.142521 
L 157.260048 333.142521 
L 156.752268 333.142521 
L 156.244487 333.142521 
L 155.736707 333.142521 
L 155.228926 333.142521 
L 154.721146 333.142521 
L 154.213365 333.142521 
L 153.705585 333.142521 
L 153.197804 333.142521 
L 152.690024 333.142521 
L 152.182243 333.142521 
L 151.674463 333.142521 
L 151.166682 333.142521 
L 150.658902 333.142521 
L 150.151121 333.142521 
L 149.64334 333.142521 
L 149.13556 333.142521 
L 148.627779 333.142521 
L 148.119999 333.142521 
L 147.612218 333.142521 
L 147.104438 333.142521 
L 146.596657 333.142521 
L 146.088877 333.142521 
L 145.581096 333.142521 
L 145.073316 333.142521 
L 144.565535 333.142521 
L 144.057755 333.142521 
L 143.549974 333.142521 
L 143.042194 333.142521 
L 142.534413 333.142521 
L 142.026633 333.142521 
L 141.518852 333.142521 
L 141.011072 333.142521 
L 140.503291 333.142521 
L 139.995511 333.142521 
L 139.48773 333.142521 
L 138.97995 333.142521 
z
" clip-path="url(#pfda8a88054)" style="fill: #1f77b4; fill-opacity: 0.15"/>
   </g>
   <g id="FillBetweenPolyCollection_2">
    <path d="M 456.342767 333.142521 
L 456.342767 292.706192 
L 456.850548 293.351852 
L 457.358328 293.989713 
L 457.866109 294.61982 
L 458.373889 295.242217 
L 458.88167 295.856949 
L 459.38945 296.464062 
L 459.897231 297.063604 
L 460.405011 297.655621 
L 460.912792 298.240162 
L 461.420572 298.817276 
L 461.928353 299.387012 
L 462.436133 299.94942 
L 462.943914 300.504551 
L 463.451694 301.052456 
L 463.959475 301.593186 
L 464.467255 302.126794 
L 464.975036 302.653331 
L 465.482816 303.172852 
L 465.990597 303.68541 
L 466.498377 304.191058 
L 467.006158 304.689851 
L 467.513938 305.181844 
L 468.021719 305.667092 
L 468.529499 306.145649 
L 469.03728 306.617572 
L 469.54506 307.082917 
L 470.052841 307.54174 
L 470.560621 307.994097 
L 471.068402 308.440046 
L 471.576182 308.879642 
L 472.083963 309.312944 
L 472.591743 309.740008 
L 473.099524 310.160893 
L 473.607304 310.575655 
L 474.115085 310.984353 
L 474.622865 311.387045 
L 475.130646 311.783788 
L 475.638426 312.17464 
L 476.146207 312.55966 
L 476.653988 312.938905 
L 477.161768 313.312435 
L 477.669549 313.680307 
L 478.177329 314.042579 
L 478.68511 314.39931 
L 479.19289 314.750558 
L 479.700671 315.096381 
L 480.208451 315.436836 
L 480.716232 315.771983 
L 481.224012 316.101878 
L 481.731793 316.426581 
L 482.239573 316.746147 
L 482.747354 317.060636 
L 483.255134 317.370104 
L 483.762915 317.674609 
L 484.270695 317.974208 
L 484.778476 318.268958 
L 485.286256 318.558916 
L 485.794037 318.844137 
L 486.301817 319.12468 
L 486.809598 319.400599 
L 487.317378 319.671951 
L 487.825159 319.938792 
L 488.332939 320.201177 
L 488.84072 320.459161 
L 489.3485 320.712799 
L 489.856281 320.962146 
L 490.364061 321.207257 
L 490.871842 321.448185 
L 491.379622 321.684985 
L 491.887403 321.917709 
L 492.395183 322.146411 
L 492.902964 322.371145 
L 493.410744 322.591962 
L 493.918525 322.808915 
L 494.426305 323.022055 
L 494.934086 323.231436 
L 495.441866 323.437106 
L 495.949647 323.639118 
L 496.457427 323.837522 
L 496.965208 324.032369 
L 497.472988 324.223707 
L 497.980769 324.411586 
L 498.488549 324.596056 
L 498.99633 324.777165 
L 499.50411 324.95496 
L 500.011891 325.129491 
L 500.519671 325.300805 
L 501.027452 325.468948 
L 501.535232 325.633967 
L 502.043013 325.795908 
L 502.550793 325.954818 
L 503.058574 326.110742 
L 503.566354 326.263724 
L 504.074135 326.413809 
L 504.581915 326.561042 
L 505.089696 326.705466 
L 505.597476 326.847124 
L 506.105257 326.98606 
L 506.613037 327.122316 
L 507.120818 327.255934 
L 507.628598 327.386955 
L 508.136379 327.51542 
L 508.64416 327.641371 
L 509.15194 327.764848 
L 509.659721 327.885891 
L 510.167501 328.004538 
L 510.675282 328.12083 
L 511.183062 328.234804 
L 511.690843 328.346499 
L 512.198623 328.455952 
L 512.706404 328.563201 
L 513.214184 328.668283 
L 513.721965 328.771234 
L 514.229745 328.87209 
L 514.737526 328.970886 
L 515.245306 329.067658 
L 515.753087 329.16244 
L 516.260867 329.255267 
L 516.768648 329.346173 
L 517.276428 329.43519 
L 517.784209 329.522352 
L 518.291989 329.607692 
L 518.79977 329.691241 
L 519.30755 329.773032 
L 519.30755 333.142521 
L 519.30755 333.142521 
L 518.79977 333.142521 
L 518.291989 333.142521 
L 517.784209 333.142521 
L 517.276428 333.142521 
L 516.768648 333.142521 
L 516.260867 333.142521 
L 515.753087 333.142521 
L 515.245306 333.142521 
L 514.737526 333.142521 
L 514.229745 333.142521 
L 513.721965 333.142521 
L 513.214184 333.142521 
L 512.706404 333.142521 
L 512.198623 333.142521 
L 511.690843 333.142521 
L 511.183062 333.142521 
L 510.675282 333.142521 
L 510.167501 333.142521 
L 509.659721 333.142521 
L 509.15194 333.142521 
L 508.64416 333.142521 
L 508.136379 333.142521 
L 507.628598 333.142521 
L 507.120818 333.142521 
L 506.613037 333.142521 
L 506.105257 333.142521 
L 505.597476 333.142521 
L 505.089696 333.142521 
L 504.581915 333.142521 
L 504.074135 333.142521 
L 503.566354 333.142521 
L 503.058574 333.142521 
L 502.550793 333.142521 
L 502.043013 333.142521 
L 501.535232 333.142521 
L 501.027452 333.142521 
L 500.519671 333.142521 
L 500.011891 333.142521 
L 499.50411 333.142521 
L 498.99633 333.142521 
L 498.488549 333.142521 
L 497.980769 333.142521 
L 497.472988 333.142521 
L 496.965208 333.142521 
L 496.457427 333.142521 
L 495.949647 333.142521 
L 495.441866 333.142521 
L 494.934086 333.142521 
L 494.426305 333.142521 
L 493.918525 333.142521 
L 493.410744 333.142521 
L 492.902964 333.142521 
L 492.395183 333.142521 
L 491.887403 333.142521 
L 491.379622 333.142521 
L 490.871842 333.142521 
L 490.364061 333.142521 
L 489.856281 333.142521 
L 489.3485 333.142521 
L 488.84072 333.142521 
L 488.332939 333.142521 
L 487.825159 333.142521 
L 487.317378 333.142521 
L 486.809598 333.142521 
L 486.301817 333.142521 
L 485.794037 333.142521 
L 485.286256 333.142521 
L 484.778476 333.142521 
L 484.270695 333.142521 
L 483.762915 333.142521 
L 483.255134 333.142521 
L 482.747354 333.142521 
L 482.239573 333.142521 
L 481.731793 333.142521 
L 481.224012 333.142521 
L 480.716232 333.142521 
L 480.208451 333.142521 
L 479.700671 333.142521 
L 479.19289 333.142521 
L 478.68511 333.142521 
L 478.177329 333.142521 
L 477.669549 333.142521 
L 477.161768 333.142521 
L 476.653988 333.142521 
L 476.146207 333.142521 
L 475.638426 333.142521 
L 475.130646 333.142521 
L 474.622865 333.142521 
L 474.115085 333.142521 
L 473.607304 333.142521 
L 473.099524 333.142521 
L 472.591743 333.142521 
L 472.083963 333.142521 
L 471.576182 333.142521 
L 471.068402 333.142521 
L 470.560621 333.142521 
L 470.052841 333.142521 
L 469.54506 333.142521 
L 469.03728 333.142521 
L 468.529499 333.142521 
L 468.021719 333.142521 
L 467.513938 333.142521 
L 467.006158 333.142521 
L 466.498377 333.142521 
L 465.990597 333.142521 
L 465.482816 333.142521 
L 464.975036 333.142521 
L 464.467255 333.142521 
L 463.959475 333.142521 
L 463.451694 333.142521 
L 462.943914 333.142521 
L 462.436133 333.142521 
L 461.928353 333.142521 
L 461.420572 333.142521 
L 460.912792 333.142521 
L 460.405011 333.142521 
L 459.897231 333.142521 
L 459.38945 333.142521 
L 458.88167 333.142521 
L 458.373889 333.142521 
L 457.866109 333.142521 
L 457.358328 333.142521 
L 456.850548 333.142521 
L 456.342767 333.142521 
z
" clip-path="url(#pfda8a88054)" style="fill: #ff7f0e; fill-opacity: 0.15"/>
   </g>
   <g id="FillBetweenPolyCollection_3">
    <path d="M 202.452513 333.142521 
L 202.452513 292.05269 
L 202.960294 291.391305 
L 203.468074 290.721994 
L 203.975855 290.044717 
L 204.483635 289.359435 
L 204.991416 288.666109 
L 205.499196 287.964701 
L 206.006977 287.255174 
L 206.514757 286.537493 
L 207.022538 285.811623 
L 207.530318 285.077529 
L 208.038099 284.33518 
L 208.545879 283.584544 
L 209.05366 282.82559 
L 209.56144 282.058289 
L 210.069221 281.282613 
L 210.577001 280.498535 
L 211.084782 279.70603 
L 211.592562 278.905072 
L 212.100343 278.095639 
L 212.608123 277.277709 
L 213.115904 276.451261 
L 213.623684 275.616276 
L 214.131465 274.772735 
L 214.639245 273.920624 
L 215.147026 273.059926 
L 215.654807 272.190628 
L 216.162587 271.312718 
L 216.670368 270.426185 
L 217.178148 269.53102 
L 217.685929 268.627215 
L 218.193709 267.714765 
L 218.70149 266.793665 
L 219.20927 265.863913 
L 219.717051 264.925506 
L 220.224831 263.978446 
L 220.732612 263.022734 
L 221.240392 262.058376 
L 221.748173 261.085375 
L 222.255953 260.10374 
L 222.763734 259.11348 
L 223.271514 258.114605 
L 223.779295 257.107129 
L 224.287075 256.091065 
L 224.794856 255.066431 
L 225.302636 254.033244 
L 225.810417 252.991526 
L 226.318197 251.941297 
L 226.825978 250.882583 
L 227.333758 249.815408 
L 227.841539 248.739802 
L 228.349319 247.655794 
L 228.8571 246.563415 
L 229.36488 245.462701 
L 229.872661 244.353688 
L 230.380441 243.236412 
L 230.888222 242.110916 
L 231.396002 240.97724 
L 231.903783 239.83543 
L 232.411563 238.685531 
L 232.919344 237.527593 
L 233.427124 236.361667 
L 233.934905 235.187806 
L 234.442685 234.006064 
L 234.950466 232.8165 
L 235.458246 231.619172 
L 235.966027 230.414143 
L 236.473807 229.201476 
L 236.981588 227.981239 
L 237.489368 226.753499 
L 237.997149 225.518328 
L 238.504929 224.275797 
L 239.01271 223.025984 
L 239.52049 221.768965 
L 240.028271 220.50482 
L 240.536051 219.233631 
L 241.043832 217.955483 
L 241.551612 216.670463 
L 242.059393 215.378659 
L 242.567173 214.080163 
L 243.074954 212.775069 
L 243.582734 211.463473 
L 244.090515 210.145472 
L 244.598295 208.821168 
L 245.106076 207.490663 
L 245.613856 206.154063 
L 246.121637 204.811474 
L 246.629417 203.463008 
L 247.137198 202.108775 
L 247.644979 200.748891 
L 248.152759 199.383472 
L 248.66054 198.012637 
L 249.16832 196.636506 
L 249.676101 195.255205 
L 250.183881 193.868857 
L 250.691662 192.477592 
L 251.199442 191.08154 
L 251.707223 189.680832 
L 252.215003 188.275604 
L 252.722784 186.865992 
L 253.230564 185.452135 
L 253.738345 184.034175 
L 254.246125 182.612255 
L 254.753906 181.18652 
L 255.261686 179.757118 
L 255.769467 178.324198 
L 256.277247 176.887913 
L 256.785028 175.448417 
L 257.292808 174.005864 
L 257.800589 172.560413 
L 258.308369 171.112224 
L 258.81615 169.661459 
L 259.32393 168.208282 
L 259.831711 166.752858 
L 260.339491 165.295355 
L 260.847272 163.835942 
L 261.355052 162.374792 
L 261.862833 160.912077 
L 262.370613 159.447971 
L 262.878394 157.982653 
L 263.386174 156.5163 
L 263.893955 155.049093 
L 264.401735 153.581213 
L 264.909516 152.112844 
L 265.417296 150.644171 
L 265.417296 333.142521 
L 265.417296 333.142521 
L 264.909516 333.142521 
L 264.401735 333.142521 
L 263.893955 333.142521 
L 263.386174 333.142521 
L 262.878394 333.142521 
L 262.370613 333.142521 
L 261.862833 333.142521 
L 261.355052 333.142521 
L 260.847272 333.142521 
L 260.339491 333.142521 
L 259.831711 333.142521 
L 259.32393 333.142521 
L 258.81615 333.142521 
L 258.308369 333.142521 
L 257.800589 333.142521 
L 257.292808 333.142521 
L 256.785028 333.142521 
L 256.277247 333.142521 
L 255.769467 333.142521 
L 255.261686 333.142521 
L 254.753906 333.142521 
L 254.246125 333.142521 
L 253.738345 333.142521 
L 253.230564 333.142521 
L 252.722784 333.142521 
L 252.215003 333.142521 
L 251.707223 333.142521 
L 251.199442 333.142521 
L 250.691662 333.142521 
L 250.183881 333.142521 
L 249.676101 333.142521 
L 249.16832 333.142521 
L 248.66054 333.142521 
L 248.152759 333.142521 
L 247.644979 333.142521 
L 247.137198 333.142521 
L 246.629417 333.142521 
L 246.121637 333.142521 
L 245.613856 333.142521 
L 245.106076 333.142521 
L 244.598295 333.142521 
L 244.090515 333.142521 
L 243.582734 333.142521 
L 243.074954 333.142521 
L 242.567173 333.142521 
L 242.059393 333.142521 
L 241.551612 333.142521 
L 241.043832 333.142521 
L 240.536051 333.142521 
L 240.028271 333.142521 
L 239.52049 333.142521 
L 239.01271 333.142521 
L 238.504929 333.142521 
L 237.997149 333.142521 
L 237.489368 333.142521 
L 236.981588 333.142521 
L 236.473807 333.142521 
L 235.966027 333.142521 
L 235.458246 333.142521 
L 234.950466 333.142521 
L 234.442685 333.142521 
L 233.934905 333.142521 
L 233.427124 333.142521 
L 232.919344 333.142521 
L 232.411563 333.142521 
L 231.903783 333.142521 
L 231.396002 333.142521 
L 230.888222 333.142521 
L 230.380441 333.142521 
L 229.872661 333.142521 
L 229.36488 333.142521 
L 228.8571 333.142521 
L 228.349319 333.142521 
L 227.841539 333.142521 
L 227.333758 333.142521 
L 226.825978 333.142521 
L 226.318197 333.142521 
L 225.810417 333.142521 
L 225.302636 333.142521 
L 224.794856 333.142521 
L 224.287075 333.142521 
L 223.779295 333.142521 
L 223.271514 333.142521 
L 222.763734 333.142521 
L 222.255953 333.142521 
L 221.748173 333.142521 
L 221.240392 333.142521 
L 220.732612 333.142521 
L 220.224831 333.142521 
L 219.717051 333.142521 
L 219.20927 333.142521 
L 218.70149 333.142521 
L 218.193709 333.142521 
L 217.685929 333.142521 
L 217.178148 333.142521 
L 216.670368 333.142521 
L 216.162587 333.142521 
L 215.654807 333.142521 
L 215.147026 333.142521 
L 214.639245 333.142521 
L 214.131465 333.142521 
L 213.623684 333.142521 
L 213.115904 333.142521 
L 212.608123 333.142521 
L 212.100343 333.142521 
L 211.592562 333.142521 
L 211.084782 333.142521 
L 210.577001 333.142521 
L 210.069221 333.142521 
L 209.56144 333.142521 
L 209.05366 333.142521 
L 208.545879 333.142521 
L 208.038099 333.142521 
L 207.530318 333.142521 
L 207.022538 333.142521 
L 206.514757 333.142521 
L 206.006977 333.142521 
L 205.499196 333.142521 
L 204.991416 333.142521 
L 204.483635 333.142521 
L 203.975855 333.142521 
L 203.468074 333.142521 
L 202.960294 333.142521 
L 202.452513 333.142521 
z
" clip-path="url(#pfda8a88054)" style="fill: #2ca02c; fill-opacity: 0.25"/>
   </g>
   <g id="FillBetweenPolyCollection_4">
    <path d="M 392.870204 333.142521 
L 392.870204 150.644171 
L 393.377984 152.112844 
L 393.885765 153.581213 
L 394.393545 155.049093 
L 394.901326 156.5163 
L 395.409106 157.982653 
L 395.916887 159.447971 
L 396.424667 160.912077 
L 396.932448 162.374792 
L 397.440228 163.835942 
L 397.948009 165.295355 
L 398.455789 166.752858 
L 398.96357 168.208282 
L 399.47135 169.661459 
L 399.979131 171.112224 
L 400.486911 172.560413 
L 400.994692 174.005864 
L 401.502472 175.448417 
L 402.010253 176.887913 
L 402.518033 178.324198 
L 403.025814 179.757118 
L 403.533594 181.18652 
L 404.041375 182.612255 
L 404.549155 184.034175 
L 405.056936 185.452135 
L 405.564716 186.865992 
L 406.072497 188.275604 
L 406.580277 189.680832 
L 407.088058 191.08154 
L 407.595838 192.477592 
L 408.103619 193.868857 
L 408.611399 195.255205 
L 409.11918 196.636506 
L 409.62696 198.012637 
L 410.134741 199.383472 
L 410.642521 200.748891 
L 411.150302 202.108775 
L 411.658083 203.463008 
L 412.165863 204.811474 
L 412.673644 206.154063 
L 413.181424 207.490663 
L 413.689205 208.821168 
L 414.196985 210.145472 
L 414.704766 211.463473 
L 415.212546 212.775069 
L 415.720327 214.080163 
L 416.228107 215.378659 
L 416.735888 216.670463 
L 417.243668 217.955483 
L 417.751449 219.233631 
L 418.259229 220.50482 
L 418.76701 221.768965 
L 419.27479 223.025984 
L 419.782571 224.275797 
L 420.290351 225.518328 
L 420.798132 226.753499 
L 421.305912 227.981239 
L 421.813693 229.201476 
L 422.321473 230.414143 
L 422.829254 231.619172 
L 423.337034 232.8165 
L 423.844815 234.006064 
L 424.352595 235.187806 
L 424.860376 236.361667 
L 425.368156 237.527593 
L 425.875937 238.685531 
L 426.383717 239.83543 
L 426.891498 240.97724 
L 427.399278 242.110916 
L 427.907059 243.236412 
L 428.414839 244.353688 
L 428.92262 245.462701 
L 429.4304 246.563415 
L 429.938181 247.655794 
L 430.445961 248.739802 
L 430.953742 249.815408 
L 431.461522 250.882583 
L 431.969303 251.941297 
L 432.477083 252.991526 
L 432.984864 254.033244 
L 433.492644 255.066431 
L 434.000425 256.091065 
L 434.508205 257.107129 
L 435.015986 258.114605 
L 435.523766 259.11348 
L 436.031547 260.10374 
L 436.539327 261.085375 
L 437.047108 262.058376 
L 437.554888 263.022734 
L 438.062669 263.978446 
L 438.570449 264.925506 
L 439.07823 265.863913 
L 439.58601 266.793665 
L 440.093791 267.714765 
L 440.601571 268.627215 
L 441.109352 269.53102 
L 441.617132 270.426185 
L 442.124913 271.312718 
L 442.632693 272.190628 
L 443.140474 273.059926 
L 443.648255 273.920624 
L 444.156035 274.772735 
L 444.663816 275.616276 
L 445.171596 276.451261 
L 445.679377 277.277709 
L 446.187157 278.095639 
L 446.694938 278.905072 
L 447.202718 279.70603 
L 447.710499 280.498535 
L 448.218279 281.282613 
L 448.72606 282.058289 
L 449.23384 282.82559 
L 449.741621 283.584544 
L 450.249401 284.33518 
L 450.757182 285.077529 
L 451.264962 285.811623 
L 451.772743 286.537493 
L 452.280523 287.255174 
L 452.788304 287.964701 
L 453.296084 288.666109 
L 453.803865 289.359435 
L 454.311645 290.044717 
L 454.819426 290.721994 
L 455.327206 291.391305 
L 455.834987 292.05269 
L 455.834987 333.142521 
L 455.834987 333.142521 
L 455.327206 333.142521 
L 454.819426 333.142521 
L 454.311645 333.142521 
L 453.803865 333.142521 
L 453.296084 333.142521 
L 452.788304 333.142521 
L 452.280523 333.142521 
L 451.772743 333.142521 
L 451.264962 333.142521 
L 450.757182 333.142521 
L 450.249401 333.142521 
L 449.741621 333.142521 
L 449.23384 333.142521 
L 448.72606 333.142521 
L 448.218279 333.142521 
L 447.710499 333.142521 
L 447.202718 333.142521 
L 446.694938 333.142521 
L 446.187157 333.142521 
L 445.679377 333.142521 
L 445.171596 333.142521 
L 444.663816 333.142521 
L 444.156035 333.142521 
L 443.648255 333.142521 
L 443.140474 333.142521 
L 442.632693 333.142521 
L 442.124913 333.142521 
L 441.617132 333.142521 
L 441.109352 333.142521 
L 440.601571 333.142521 
L 440.093791 333.142521 
L 439.58601 333.142521 
L 439.07823 333.142521 
L 438.570449 333.142521 
L 438.062669 333.142521 
L 437.554888 333.142521 
L 437.047108 333.142521 
L 436.539327 333.142521 
L 436.031547 333.142521 
L 435.523766 333.142521 
L 435.015986 333.142521 
L 434.508205 333.142521 
L 434.000425 333.142521 
L 433.492644 333.142521 
L 432.984864 333.142521 
L 432.477083 333.142521 
L 431.969303 333.142521 
L 431.461522 333.142521 
L 430.953742 333.142521 
L 430.445961 333.142521 
L 429.938181 333.142521 
L 429.4304 333.142521 
L 428.92262 333.142521 
L 428.414839 333.142521 
L 427.907059 333.142521 
L 427.399278 333.142521 
L 426.891498 333.142521 
L 426.383717 333.142521 
L 425.875937 333.142521 
L 425.368156 333.142521 
L 424.860376 333.142521 
L 424.352595 333.142521 
L 423.844815 333.142521 
L 423.337034 333.142521 
L 422.829254 333.142521 
L 422.321473 333.142521 
L 421.813693 333.142521 
L 421.305912 333.142521 
L 420.798132 333.142521 
L 420.290351 333.142521 
L 419.782571 333.142521 
L 419.27479 333.142521 
L 418.76701 333.142521 
L 418.259229 333.142521 
L 417.751449 333.142521 
L 417.243668 333.142521 
L 416.735888 333.142521 
L 416.228107 333.142521 
L 415.720327 333.142521 
L 415.212546 333.142521 
L 414.704766 333.142521 
L 414.196985 333.142521 
L 413.689205 333.142521 
L 413.181424 333.142521 
L 412.673644 333.142521 
L 412.165863 333.142521 
L 411.658083 333.142521 
L 411.150302 333.142521 
L 410.642521 333.142521 
L 410.134741 333.142521 
L 409.62696 333.142521 
L 409.11918 333.142521 
L 408.611399 333.142521 
L 408.103619 333.142521 
L 407.595838 333.142521 
L 407.088058 333.142521 
L 406.580277 333.142521 
L 406.072497 333.142521 
L 405.564716 333.142521 
L 405.056936 333.142521 
L 404.549155 333.142521 
L 404.041375 333.142521 
L 403.533594 333.142521 
L 403.025814 333.142521 
L 402.518033 333.142521 
L 402.010253 333.142521 
L 401.502472 333.142521 
L 400.994692 333.142521 
L 400.486911 333.142521 
L 399.979131 333.142521 
L 399.47135 333.142521 
L 398.96357 333.142521 
L 398.455789 333.142521 
L 397.948009 333.142521 
L 397.440228 333.142521 
L 396.932448 333.142521 
L 396.424667 333.142521 
L 395.916887 333.142521 
L 395.409106 333.142521 
L 394.901326 333.142521 
L 394.393545 333.142521 
L 393.885765 333.142521 
L 393.377984 333.142521 
L 392.870204 333.142521 
z
" clip-path="url(#pfda8a88054)" style="fill: #d62728; fill-opacity: 0.25"/>
   </g>
   <g id="FillBetweenPolyCollection_5">
    <path d="M 265.925077 333.142521 
L 265.925077 149.175381 
L 266.432857 147.706662 
L 266.940638 146.238203 
L 267.448418 144.770196 
L 267.956199 143.302833 
L 268.463979 141.836308 
L 268.97176 140.370817 
L 269.47954 138.906556 
L 269.987321 137.443723 
L 270.495101 135.982517 
L 271.002882 134.523138 
L 271.510662 133.065788 
L 272.018443 131.610669 
L 272.526223 130.157984 
L 273.034004 128.707939 
L 273.541784 127.260739 
L 274.049565 125.816589 
L 274.557345 124.375698 
L 275.065126 122.938273 
L 275.572906 121.504524 
L 276.080687 120.074659 
L 276.588467 118.64889 
L 277.096248 117.227426 
L 277.604028 115.81048 
L 278.111809 114.398263 
L 278.619589 112.990989 
L 279.12737 111.588868 
L 279.63515 110.192116 
L 280.142931 108.800945 
L 280.650712 107.41557 
L 281.158492 106.036204 
L 281.666273 104.663061 
L 282.174053 103.296356 
L 282.681834 101.936303 
L 283.189614 100.583116 
L 283.697395 99.23701 
L 284.205175 97.898199 
L 284.712956 96.566896 
L 285.220736 95.243316 
L 285.728517 93.927671 
L 286.236297 92.620175 
L 286.744078 91.321041 
L 287.251858 90.030481 
L 287.759639 88.748706 
L 288.267419 87.475928 
L 288.7752 86.212358 
L 289.28298 84.958204 
L 289.790761 83.713676 
L 290.298541 82.478983 
L 290.806322 81.254331 
L 291.314102 80.039928 
L 291.821883 78.835979 
L 292.329663 77.642688 
L 292.837444 76.460259 
L 293.345224 75.288894 
L 293.853005 74.128794 
L 294.360785 72.980159 
L 294.868566 71.843187 
L 295.376346 70.718076 
L 295.884127 69.605021 
L 296.391907 68.504217 
L 296.899688 67.415855 
L 297.407468 66.340127 
L 297.915249 65.277223 
L 298.423029 64.227331 
L 298.93081 63.190635 
L 299.43859 62.16732 
L 299.946371 61.157569 
L 300.454151 60.161561 
L 300.961932 59.179475 
L 301.469712 58.211487 
L 301.977493 57.257772 
L 302.485273 56.318501 
L 302.993054 55.393845 
L 303.500834 54.48397 
L 304.008615 53.589043 
L 304.516395 52.709226 
L 305.024176 51.844679 
L 305.531956 50.995561 
L 306.039737 50.162028 
L 306.547517 49.344232 
L 307.055298 48.542325 
L 307.563078 47.756453 
L 308.070859 46.986763 
L 308.578639 46.233396 
L 309.08642 45.496493 
L 309.5942 44.77619 
L 310.101981 44.072622 
L 310.609761 43.385919 
L 311.117542 42.716209 
L 311.625322 42.063619 
L 312.133103 41.428271 
L 312.640883 40.810282 
L 313.148664 40.209771 
L 313.656445 39.626849 
L 314.164225 39.061626 
L 314.672006 38.51421 
L 315.179786 37.984703 
L 315.687567 37.473206 
L 316.195347 36.979816 
L 316.703128 36.504626 
L 317.210908 36.047726 
L 317.718689 35.609203 
L 318.226469 35.189141 
L 318.73425 34.787619 
L 319.24203 34.404714 
L 319.749811 34.0405 
L 320.257591 33.695045 
L 320.765372 33.368415 
L 321.273152 33.060674 
L 321.780933 32.771879 
L 322.288713 32.502087 
L 322.796494 32.251349 
L 323.304274 32.019712 
L 323.812055 31.807222 
L 324.319835 31.613919 
L 324.827616 31.439841 
L 325.335396 31.28502 
L 325.843177 31.149486 
L 326.350957 31.033267 
L 326.858738 30.936382 
L 327.366518 30.858853 
L 327.874299 30.800692 
L 328.382079 30.761913 
L 328.88986 30.742521 
L 329.39764 30.742521 
L 329.905421 30.761913 
L 330.413201 30.800692 
L 330.920982 30.858853 
L 331.428762 30.936382 
L 331.936543 31.033267 
L 332.444323 31.149486 
L 332.952104 31.28502 
L 333.459884 31.439841 
L 333.967665 31.613919 
L 334.475445 31.807222 
L 334.983226 32.019712 
L 335.491006 32.251349 
L 335.998787 32.502087 
L 336.506567 32.771879 
L 337.014348 33.060674 
L 337.522128 33.368415 
L 338.029909 33.695045 
L 338.537689 34.0405 
L 339.04547 34.404714 
L 339.55325 34.787619 
L 340.061031 35.189141 
L 340.568811 35.609203 
L 341.076592 36.047726 
L 341.584372 36.504626 
L 342.092153 36.979816 
L 342.599933 37.473206 
L 343.107714 37.984703 
L 343.615494 38.51421 
L 344.123275 39.061626 
L 344.631055 39.626849 
L 345.138836 40.209771 
L 345.646617 40.810282 
L 346.154397 41.428271 
L 346.662178 42.063619 
L 347.169958 42.716209 
L 347.677739 43.385919 
L 348.185519 44.072622 
L 348.6933 44.77619 
L 349.20108 45.496493 
L 349.708861 46.233396 
L 350.216641 46.986763 
L 350.724422 47.756453 
L 351.232202 48.542325 
L 351.739983 49.344232 
L 352.247763 50.162028 
L 352.755544 50.995561 
L 353.263324 51.844679 
L 353.771105 52.709226 
L 354.278885 53.589043 
L 354.786666 54.48397 
L 355.294446 55.393845 
L 355.802227 56.318501 
L 356.310007 57.257772 
L 356.817788 58.211487 
L 357.325568 59.179475 
L 357.833349 60.161561 
L 358.341129 61.157569 
L 358.84891 62.16732 
L 359.35669 63.190635 
L 359.864471 64.227331 
L 360.372251 65.277223 
L 360.880032 66.340127 
L 361.387812 67.415855 
L 361.895593 68.504217 
L 362.403373 69.605021 
L 362.911154 70.718076 
L 363.418934 71.843187 
L 363.926715 72.980159 
L 364.434495 74.128794 
L 364.942276 75.288894 
L 365.450056 76.460259 
L 365.957837 77.642688 
L 366.465617 78.835979 
L 366.973398 80.039928 
L 367.481178 81.254331 
L 367.988959 82.478983 
L 368.496739 83.713676 
L 369.00452 84.958204 
L 369.5123 86.212358 
L 370.020081 87.475928 
L 370.527861 88.748706 
L 371.035642 90.030481 
L 371.543422 91.321041 
L 372.051203 92.620175 
L 372.558983 93.927671 
L 373.066764 95.243316 
L 373.574544 96.566896 
L 374.082325 97.898199 
L 374.590105 99.23701 
L 375.097886 100.583116 
L 375.605666 101.936303 
L 376.113447 103.296356 
L 376.621227 104.663061 
L 377.129008 106.036204 
L 377.636788 107.41557 
L 378.144569 108.800945 
L 378.65235 110.192116 
L 379.16013 111.588868 
L 379.667911 112.990989 
L 380.175691 114.398263 
L 380.683472 115.81048 
L 381.191252 117.227426 
L 381.699033 118.64889 
L 382.206813 120.074659 
L 382.714594 121.504524 
L 383.222374 122.938273 
L 383.730155 124.375698 
L 384.237935 125.816589 
L 384.745716 127.260739 
L 385.253496 128.707939 
L 385.761277 130.157984 
L 386.269057 131.610669 
L 386.776838 133.065788 
L 387.284618 134.523138 
L 387.792399 135.982517 
L 388.300179 137.443723 
L 388.80796 138.906556 
L 389.31574 140.370817 
L 389.823521 141.836308 
L 390.331301 143.302833 
L 390.839082 144.770196 
L 391.346862 146.238203 
L 391.854643 147.706662 
L 392.362423 149.175381 
L 392.362423 333.142521 
L 392.362423 333.142521 
L 391.854643 333.142521 
L 391.346862 333.142521 
L 390.839082 333.142521 
L 390.331301 333.142521 
L 389.823521 333.142521 
L 389.31574 333.142521 
L 388.80796 333.142521 
L 388.300179 333.142521 
L 387.792399 333.142521 
L 387.284618 333.142521 
L 386.776838 333.142521 
L 386.269057 333.142521 
L 385.761277 333.142521 
L 385.253496 333.142521 
L 384.745716 333.142521 
L 384.237935 333.142521 
L 383.730155 333.142521 
L 383.222374 333.142521 
L 382.714594 333.142521 
L 382.206813 333.142521 
L 381.699033 333.142521 
L 381.191252 333.142521 
L 380.683472 333.142521 
L 380.175691 333.142521 
L 379.667911 333.142521 
L 379.16013 333.142521 
L 378.65235 333.142521 
L 378.144569 333.142521 
L 377.636788 333.142521 
L 377.129008 333.142521 
L 376.621227 333.142521 
L 376.113447 333.142521 
L 375.605666 333.142521 
L 375.097886 333.142521 
L 374.590105 333.142521 
L 374.082325 333.142521 
L 373.574544 333.142521 
L 373.066764 333.142521 
L 372.558983 333.142521 
L 372.051203 333.142521 
L 371.543422 333.142521 
L 371.035642 333.142521 
L 370.527861 333.142521 
L 370.020081 333.142521 
L 369.5123 333.142521 
L 369.00452 333.142521 
L 368.496739 333.142521 
L 367.988959 333.142521 
L 367.481178 333.142521 
L 366.973398 333.142521 
L 366.465617 333.142521 
L 365.957837 333.142521 
L 365.450056 333.142521 
L 364.942276 333.142521 
L 364.434495 333.142521 
L 363.926715 333.142521 
L 363.418934 333.142521 
L 362.911154 333.142521 
L 362.403373 333.142521 
L 361.895593 333.142521 
L 361.387812 333.142521 
L 360.880032 333.142521 
L 360.372251 333.142521 
L 359.864471 333.142521 
L 359.35669 333.142521 
L 358.84891 333.142521 
L 358.341129 333.142521 
L 357.833349 333.142521 
L 357.325568 333.142521 
L 356.817788 333.142521 
L 356.310007 333.142521 
L 355.802227 333.142521 
L 355.294446 333.142521 
L 354.786666 333.142521 
L 354.278885 333.142521 
L 353.771105 333.142521 
L 353.263324 333.142521 
L 352.755544 333.142521 
L 352.247763 333.142521 
L 351.739983 333.142521 
L 351.232202 333.142521 
L 350.724422 333.142521 
L 350.216641 333.142521 
L 349.708861 333.142521 
L 349.20108 333.142521 
L 348.6933 333.142521 
L 348.185519 333.142521 
L 347.677739 333.142521 
L 347.169958 333.142521 
L 346.662178 333.142521 
L 346.154397 333.142521 
L 345.646617 333.142521 
L 345.138836 333.142521 
L 344.631055 333.142521 
L 344.123275 333.142521 
L 343.615494 333.142521 
L 343.107714 333.142521 
L 342.599933 333.142521 
L 342.092153 333.142521 
L 341.584372 333.142521 
L 341.076592 333.142521 
L 340.568811 333.142521 
L 340.061031 333.142521 
L 339.55325 333.142521 
L 339.04547 333.142521 
L 338.537689 333.142521 
L 338.029909 333.142521 
L 337.522128 333.142521 
L 337.014348 333.142521 
L 336.506567 333.142521 
L 335.998787 333.142521 
L 335.491006 333.142521 
L 334.983226 333.142521 
L 334.475445 333.142521 
L 333.967665 333.142521 
L 333.459884 333.142521 
L 332.952104 333.142521 
L 332.444323 333.142521 
L 331.936543 333.142521 
L 331.428762 333.142521 
L 330.920982 333.142521 
L 330.413201 333.142521 
L 329.905421 333.142521 
L 329.39764 333.142521 
L 328.88986 333.142521 
L 328.382079 333.142521 
L 327.874299 333.142521 
L 327.366518 333.142521 
L 326.858738 333.142521 
L 326.350957 333.142521 
L 325.843177 333.142521 
L 325.335396 333.142521 
L 324.827616 333.142521 
L 324.319835 333.142521 
L 323.812055 333.142521 
L 323.304274 333.142521 
L 322.796494 333.142521 
L 322.288713 333.142521 
L 321.780933 333.142521 
L 321.273152 333.142521 
L 320.765372 333.142521 
L 320.257591 333.142521 
L 319.749811 333.142521 
L 319.24203 333.142521 
L 318.73425 333.142521 
L 318.226469 333.142521 
L 317.718689 333.142521 
L 317.210908 333.142521 
L 316.703128 333.142521 
L 316.195347 333.142521 
L 315.687567 333.142521 
L 315.179786 333.142521 
L 314.672006 333.142521 
L 314.164225 333.142521 
L 313.656445 333.142521 
L 313.148664 333.142521 
L 312.640883 333.142521 
L 312.133103 333.142521 
L 311.625322 333.142521 
L 311.117542 333.142521 
L 310.609761 333.142521 
L 310.101981 333.142521 
L 309.5942 333.142521 
L 309.08642 333.142521 
L 308.578639 333.142521 
L 308.070859 333.142521 
L 307.563078 333.142521 
L 307.055298 333.142521 
L 306.547517 333.142521 
L 306.039737 333.142521 
L 305.531956 333.142521 
L 305.024176 333.142521 
L 304.516395 333.142521 
L 304.008615 333.142521 
L 303.500834 333.142521 
L 302.993054 333.142521 
L 302.485273 333.142521 
L 301.977493 333.142521 
L 301.469712 333.142521 
L 300.961932 333.142521 
L 300.454151 333.142521 
L 299.946371 333.142521 
L 299.43859 333.142521 
L 298.93081 333.142521 
L 298.423029 333.142521 
L 297.915249 333.142521 
L 297.407468 333.142521 
L 296.899688 333.142521 
L 296.391907 333.142521 
L 295.884127 333.142521 
L 295.376346 333.142521 
L 294.868566 333.142521 
L 294.360785 333.142521 
L 293.853005 333.142521 
L 293.345224 333.142521 
L 292.837444 333.142521 
L 292.329663 333.142521 
L 291.821883 333.142521 
L 291.314102 333.142521 
L 290.806322 333.142521 
L 290.298541 333.142521 
L 289.790761 333.142521 
L 289.28298 333.142521 
L 288.7752 333.142521 
L 288.267419 333.142521 
L 287.759639 333.142521 
L 287.251858 333.142521 
L 286.744078 333.142521 
L 286.236297 333.142521 
L 285.728517 333.142521 
L 285.220736 333.142521 
L 284.712956 333.142521 
L 284.205175 333.142521 
L 283.697395 333.142521 
L 283.189614 333.142521 
L 282.681834 333.142521 
L 282.174053 333.142521 
L 281.666273 333.142521 
L 281.158492 333.142521 
L 280.650712 333.142521 
L 280.142931 333.142521 
L 279.63515 333.142521 
L 279.12737 333.142521 
L 278.619589 333.142521 
L 278.111809 333.142521 
L 277.604028 333.142521 
L 277.096248 333.142521 
L 276.588467 333.142521 
L 276.080687 333.142521 
L 275.572906 333.142521 
L 275.065126 333.142521 
L 274.557345 333.142521 
L 274.049565 333.142521 
L 273.541784 333.142521 
L 273.034004 333.142521 
L 272.526223 333.142521 
L 272.018443 333.142521 
L 271.510662 333.142521 
L 271.002882 333.142521 
L 270.495101 333.142521 
L 269.987321 333.142521 
L 269.47954 333.142521 
L 268.97176 333.142521 
L 268.463979 333.142521 
L 267.956199 333.142521 
L 267.448418 333.142521 
L 266.940638 333.142521 
L 266.432857 333.142521 
L 265.925077 333.142521 
z
" clip-path="url(#pfda8a88054)" style="fill: #9467bd; fill-opacity: 0.4"/>
   </g>
   <g id="matplotlib.axis_1">
    <g id="xtick_1">
     <g id="line2d_1">
      <path d="M 75.507386 348.262521 
L 75.507386 15.622521 
" clip-path="url(#pfda8a88054)" style="fill: none; stroke: #b0b0b0; stroke-width: 0.8; stroke-linecap: square"/>
     </g>
     <g id="line2d_2">
      <defs>
       <path id="m0119822fcf" d="M 0 0 
L 0 3.5 
" style="stroke: #000000; stroke-width: 0.8"/>
      </defs>
      <g>
       <use xlink:href="#m0119822fcf" x="75.507386" y="348.262521" style="stroke: #000000; stroke-width: 0.8"/>
      </g>
     </g>
     <g id="text_1">
      <!-- −4 -->
      <g transform="translate(68.136293 362.860958) scale(0.1 -0.1)">
       <defs>
        <path id="DejaVuSans-2212" d="M 678 2272 
L 4684 2272 
L 4684 1741 
L 678 1741 
L 678 2272 
z
" transform="scale(0.015625)"/>
        <path id="DejaVuSans-34" d="M 2419 4116 
L 825 1625 
L 2419 1625 
L 2419 4116 
z
M 2253 4666 
L 3047 4666 
L 3047 1625 
L 3713 1625 
L 3713 1100 
L 3047 1100 
L 3047 0 
L 2419 0 
L 2419 1100 
L 313 1100 
L 313 1709 
L 2253 4666 
z
" transform="scale(0.015625)"/>
       </defs>
       <use xlink:href="#DejaVuSans-2212"/>
       <use xlink:href="#DejaVuSans-34" transform="translate(83.789062 0)"/>
      </g>
     </g>
    </g>
    <g id="xtick_2">
     <g id="line2d_3">
      <path d="M 138.916477 348.262521 
L 138.916477 15.622521 
" clip-path="url(#pfda8a88054)" style="fill: none; stroke: #b0b0b0; stroke-width: 0.8; stroke-linecap: square"/>
     </g>
     <g id="line2d_4">
      <g>
       <use xlink:href="#m0119822fcf" x="138.916477" y="348.262521" style="stroke: #000000; stroke-width: 0.8"/>
      </g>
     </g>
     <g id="text_2">
      <!-- −3 -->
      <g transform="translate(131.545384 362.860958) scale(0.1 -0.1)">
       <defs>
        <path id="DejaVuSans-33" d="M 2597 2516 
Q 3050 2419 3304 2112 
Q 3559 1806 3559 1356 
Q 3559 666 3084 287 
Q 2609 -91 1734 -91 
Q 1441 -91 1130 -33 
Q 819 25 488 141 
L 488 750 
Q 750 597 1062 519 
Q 1375 441 1716 441 
Q 2309 441 2620 675 
Q 2931 909 2931 1356 
Q 2931 1769 2642 2001 
Q 2353 2234 1838 2234 
L 1294 2234 
L 1294 2753 
L 1863 2753 
Q 2328 2753 2575 2939 
Q 2822 3125 2822 3475 
Q 2822 3834 2567 4026 
Q 2313 4219 1838 4219 
Q 1578 4219 1281 4162 
Q 984 4106 628 3988 
L 628 4550 
Q 988 4650 1302 4700 
Q 1616 4750 1894 4750 
Q 2613 4750 3031 4423 
Q 3450 4097 3450 3541 
Q 3450 3153 3228 2886 
Q 3006 2619 2597 2516 
z
" transform="scale(0.015625)"/>
       </defs>
       <use xlink:href="#DejaVuSans-2212"/>
       <use xlink:href="#DejaVuSans-33" transform="translate(83.789062 0)"/>
      </g>
     </g>
    </g>
    <g id="xtick_3">
     <g id="line2d_5">
      <path d="M 202.325568 348.262521 
L 202.325568 15.622521 
" clip-path="url(#pfda8a88054)" style="fill: none; stroke: #b0b0b0; stroke-width: 0.8; stroke-linecap: square"/>
     </g>
     <g id="line2d_6">
      <g>
       <use xlink:href="#m0119822fcf" x="202.325568" y="348.262521" style="stroke: #000000; stroke-width: 0.8"/>
      </g>
     </g>
     <g id="text_3">
      <!-- −2 -->
      <g transform="translate(194.954474 362.860958) scale(0.1 -0.1)">
       <defs>
        <path id="DejaVuSans-32" d="M 1228 531 
L 3431 531 
L 3431 0 
L 469 0 
L 469 531 
Q 828 903 1448 1529 
Q 2069 2156 2228 2338 
Q 2531 2678 2651 2914 
Q 2772 3150 2772 3378 
Q 2772 3750 2511 3984 
Q 2250 4219 1831 4219 
Q 1534 4219 1204 4116 
Q 875 4013 500 3803 
L 500 4441 
Q 881 4594 1212 4672 
Q 1544 4750 1819 4750 
Q 2544 4750 2975 4387 
Q 3406 4025 3406 3419 
Q 3406 3131 3298 2873 
Q 3191 2616 2906 2266 
Q 2828 2175 2409 1742 
Q 1991 1309 1228 531 
z
" transform="scale(0.015625)"/>
       </defs>
       <use xlink:href="#DejaVuSans-2212"/>
       <use xlink:href="#DejaVuSans-32" transform="translate(83.789062 0)"/>
      </g>
     </g>
    </g>
    <g id="xtick_4">
     <g id="line2d_7">
      <path d="M 265.734659 348.262521 
L 265.734659 15.622521 
" clip-path="url(#pfda8a88054)" style="fill: none; stroke: #b0b0b0; stroke-width: 0.8; stroke-linecap: square"/>
     </g>
     <g id="line2d_8">
      <g>
       <use xlink:href="#m0119822fcf" x="265.734659" y="348.262521" style="stroke: #000000; stroke-width: 0.8"/>
      </g>
     </g>
     <g id="text_4">
      <!-- −1 -->
      <g transform="translate(258.363565 362.860958) scale(0.1 -0.1)">
       <defs>
        <path id="DejaVuSans-31" d="M 794 531 
L 1825 531 
L 1825 4091 
L 703 3866 
L 703 4441 
L 1819 4666 
L 2450 4666 
L 2450 531 
L 3481 531 
L 3481 0 
L 794 0 
L 794 531 
z
" transform="scale(0.015625)"/>
       </defs>
       <use xlink:href="#DejaVuSans-2212"/>
       <use xlink:href="#DejaVuSans-31" transform="translate(83.789062 0)"/>
      </g>
     </g>
    </g>
    <g id="xtick_5">
     <g id="line2d_9">
      <path d="M 329.14375 348.262521 
L 329.14375 15.622521 
" clip-path="url(#pfda8a88054)" style="fill: none; stroke: #b0b0b0; stroke-width: 0.8; stroke-linecap: square"/>
     </g>
     <g id="line2d_10">
      <g>
       <use xlink:href="#m0119822fcf" x="329.14375" y="348.262521" style="stroke: #000000; stroke-width: 0.8"/>
      </g>
     </g>
     <g id="text_5">
      <!-- 0 -->
      <g transform="translate(325.9625 362.860958) scale(0.1 -0.1)">
       <defs>
        <path id="DejaVuSans-30" d="M 2034 4250 
Q 1547 4250 1301 3770 
Q 1056 3291 1056 2328 
Q 1056 1369 1301 889 
Q 1547 409 2034 409 
Q 2525 409 2770 889 
Q 3016 1369 3016 2328 
Q 3016 3291 2770 3770 
Q 2525 4250 2034 4250 
z
M 2034 4750 
Q 2819 4750 3233 4129 
Q 3647 3509 3647 2328 
Q 3647 1150 3233 529 
Q 2819 -91 2034 -91 
Q 1250 -91 836 529 
Q 422 1150 422 2328 
Q 422 3509 836 4129 
Q 1250 4750 2034 4750 
z
" transform="scale(0.015625)"/>
       </defs>
       <use xlink:href="#DejaVuSans-30"/>
      </g>
     </g>
    </g>
    <g id="xtick_6">
     <g id="line2d_11">
      <path d="M 392.552841 348.262521 
L 392.552841 15.622521 
" clip-path="url(#pfda8a88054)" style="fill: none; stroke: #b0b0b0; stroke-width: 0.8; stroke-linecap: square"/>
     </g>
     <g id="line2d_12">
      <g>
       <use xlink:href="#m0119822fcf" x="392.552841" y="348.262521" style="stroke: #000000; stroke-width: 0.8"/>
      </g>
     </g>
     <g id="text_6">
      <!-- 1 -->
      <g transform="translate(389.371591 362.860958) scale(0.1 -0.1)">
       <use xlink:href="#DejaVuSans-31"/>
      </g>
     </g>
    </g>
    <g id="xtick_7">
     <g id="line2d_13">
      <path d="M 455.961932 348.262521 
L 455.961932 15.622521 
" clip-path="url(#pfda8a88054)" style="fill: none; stroke: #b0b0b0; stroke-width: 0.8; stroke-linecap: square"/>
     </g>
     <g id="line2d_14">
      <g>
       <use xlink:href="#m0119822fcf" x="455.961932" y="348.262521" style="stroke: #000000; stroke-width: 0.8"/>
      </g>
     </g>
     <g id="text_7">
      <!-- 2 -->
      <g transform="translate(452.780682 362.860958) scale(0.1 -0.1)">
       <use xlink:href="#DejaVuSans-32"/>
      </g>
     </g>
    </g>
    <g id="xtick_8">
     <g id="line2d_15">
      <path d="M 519.371023 348.262521 
L 519.371023 15.622521 
" clip-path="url(#pfda8a88054)" style="fill: none; stroke: #b0b0b0; stroke-width: 0.8; stroke-linecap: square"/>
     </g>
     <g id="line2d_16">
      <g>
       <use xlink:href="#m0119822fcf" x="519.371023" y="348.262521" style="stroke: #000000; stroke-width: 0.8"/>
      </g>
     </g>
     <g id="text_8">
      <!-- 3 -->
      <g transform="translate(516.189773 362.860958) scale(0.1 -0.1)">
       <use xlink:href="#DejaVuSans-33"/>
      </g>
     </g>
    </g>
    <g id="xtick_9">
     <g id="line2d_17">
      <path d="M 582.780114 348.262521 
L 582.780114 15.622521 
" clip-path="url(#pfda8a88054)" style="fill: none; stroke: #b0b0b0; stroke-width: 0.8; stroke-linecap: square"/>
     </g>
     <g id="line2d_18">
      <g>
       <use xlink:href="#m0119822fcf" x="582.780114" y="348.262521" style="stroke: #000000; stroke-width: 0.8"/>
      </g>
     </g>
     <g id="text_9">
      <!-- 4 -->
      <g transform="translate(579.598864 362.860958) scale(0.1 -0.1)">
       <use xlink:href="#DejaVuSans-34"/>
      </g>
     </g>
    </g>
    <g id="text_10">
     <!-- x -->
     <g transform="translate(326.184375 376.539083) scale(0.1 -0.1)">
      <defs>
       <path id="DejaVuSans-78" d="M 3513 3500 
L 2247 1797 
L 3578 0 
L 2900 0 
L 1881 1375 
L 863 0 
L 184 0 
L 1544 1831 
L 300 3500 
L 978 3500 
L 1906 2253 
L 2834 3500 
L 3513 3500 
z
" transform="scale(0.015625)"/>
      </defs>
      <use xlink:href="#DejaVuSans-78"/>
     </g>
    </g>
   </g>
   <g id="matplotlib.axis_2">
    <g id="ytick_1">
     <g id="line2d_19">
      <path d="M 50.14375 333.142521 
L 608.14375 333.142521 
" clip-path="url(#pfda8a88054)" style="fill: none; stroke: #b0b0b0; stroke-width: 0.8; stroke-linecap: square"/>
     </g>
     <g id="line2d_20">
      <defs>
       <path id="mab9160045f" d="M 0 0 
L -3.5 0 
" style="stroke: #000000; stroke-width: 0.8"/>
      </defs>
      <g>
       <use xlink:href="#mab9160045f" x="50.14375" y="333.142521" style="stroke: #000000; stroke-width: 0.8"/>
      </g>
     </g>
     <g id="text_11">
      <!-- 0.00 -->
      <g transform="translate(20.878125 336.94174) scale(0.1 -0.1)">
       <defs>
        <path id="DejaVuSans-2e" d="M 684 794 
L 1344 794 
L 1344 0 
L 684 0 
L 684 794 
z
" transform="scale(0.015625)"/>
       </defs>
       <use xlink:href="#DejaVuSans-30"/>
       <use xlink:href="#DejaVuSans-2e" transform="translate(63.623047 0)"/>
       <use xlink:href="#DejaVuSans-30" transform="translate(95.410156 0)"/>
       <use xlink:href="#DejaVuSans-30" transform="translate(159.033203 0)"/>
      </g>
     </g>
    </g>
    <g id="ytick_2">
     <g id="line2d_21">
      <path d="M 50.14375 295.241998 
L 608.14375 295.241998 
" clip-path="url(#pfda8a88054)" style="fill: none; stroke: #b0b0b0; stroke-width: 0.8; stroke-linecap: square"/>
     </g>
     <g id="line2d_22">
      <g>
       <use xlink:href="#mab9160045f" x="50.14375" y="295.241998" style="stroke: #000000; stroke-width: 0.8"/>
      </g>
     </g>
     <g id="text_12">
      <!-- 0.05 -->
      <g transform="translate(20.878125 299.041216) scale(0.1 -0.1)">
       <defs>
        <path id="DejaVuSans-35" d="M 691 4666 
L 3169 4666 
L 3169 4134 
L 1269 4134 
L 1269 2991 
Q 1406 3038 1543 3061 
Q 1681 3084 1819 3084 
Q 2600 3084 3056 2656 
Q 3513 2228 3513 1497 
Q 3513 744 3044 326 
Q 2575 -91 1722 -91 
Q 1428 -91 1123 -41 
Q 819 9 494 109 
L 494 744 
Q 775 591 1075 516 
Q 1375 441 1709 441 
Q 2250 441 2565 725 
Q 2881 1009 2881 1497 
Q 2881 1984 2565 2268 
Q 2250 2553 1709 2553 
Q 1456 2553 1204 2497 
Q 953 2441 691 2322 
L 691 4666 
z
" transform="scale(0.015625)"/>
       </defs>
       <use xlink:href="#DejaVuSans-30"/>
       <use xlink:href="#DejaVuSans-2e" transform="translate(63.623047 0)"/>
       <use xlink:href="#DejaVuSans-30" transform="translate(95.410156 0)"/>
       <use xlink:href="#DejaVuSans-35" transform="translate(159.033203 0)"/>
      </g>
     </g>
    </g>
    <g id="ytick_3">
     <g id="line2d_23">
      <path d="M 50.14375 257.341474 
L 608.14375 257.341474 
" clip-path="url(#pfda8a88054)" style="fill: none; stroke: #b0b0b0; stroke-width: 0.8; stroke-linecap: square"/>
     </g>
     <g id="line2d_24">
      <g>
       <use xlink:href="#mab9160045f" x="50.14375" y="257.341474" style="stroke: #000000; stroke-width: 0.8"/>
      </g>
     </g>
     <g id="text_13">
      <!-- 0.10 -->
      <g transform="translate(20.878125 261.140693) scale(0.1 -0.1)">
       <use xlink:href="#DejaVuSans-30"/>
       <use xlink:href="#DejaVuSans-2e" transform="translate(63.623047 0)"/>
       <use xlink:href="#DejaVuSans-31" transform="translate(95.410156 0)"/>
       <use xlink:href="#DejaVuSans-30" transform="translate(159.033203 0)"/>
      </g>
     </g>
    </g>
    <g id="ytick_4">
     <g id="line2d_25">
      <path d="M 50.14375 219.440951 
L 608.14375 219.440951 
" clip-path="url(#pfda8a88054)" style="fill: none; stroke: #b0b0b0; stroke-width: 0.8; stroke-linecap: square"/>
     </g>
     <g id="line2d_26">
      <g>
       <use xlink:href="#mab9160045f" x="50.14375" y="219.440951" style="stroke: #000000; stroke-width: 0.8"/>
      </g>
     </g>
     <g id="text_14">
      <!-- 0.15 -->
      <g transform="translate(20.878125 223.24017) scale(0.1 -0.1)">
       <use xlink:href="#DejaVuSans-30"/>
       <use xlink:href="#DejaVuSans-2e" transform="translate(63.623047 0)"/>
       <use xlink:href="#DejaVuSans-31" transform="translate(95.410156 0)"/>
       <use xlink:href="#DejaVuSans-35" transform="translate(159.033203 0)"/>
      </g>
     </g>
    </g>
    <g id="ytick_5">
     <g id="line2d_27">
      <path d="M 50.14375 181.540428 
L 608.14375 181.540428 
" clip-path="url(#pfda8a88054)" style="fill: none; stroke: #b0b0b0; stroke-width: 0.8; stroke-linecap: square"/>
     </g>
     <g id="line2d_28">
      <g>
       <use xlink:href="#mab9160045f" x="50.14375" y="181.540428" style="stroke: #000000; stroke-width: 0.8"/>
      </g>
     </g>
     <g id="text_15">
      <!-- 0.20 -->
      <g transform="translate(20.878125 185.339646) scale(0.1 -0.1)">
       <use xlink:href="#DejaVuSans-30"/>
       <use xlink:href="#DejaVuSans-2e" transform="translate(63.623047 0)"/>
       <use xlink:href="#DejaVuSans-32" transform="translate(95.410156 0)"/>
       <use xlink:href="#DejaVuSans-30" transform="translate(159.033203 0)"/>
      </g>
     </g>
    </g>
    <g id="ytick_6">
     <g id="line2d_29">
      <path d="M 50.14375 143.639904 
L 608.14375 143.639904 
" clip-path="url(#pfda8a88054)" style="fill: none; stroke: #b0b0b0; stroke-width: 0.8; stroke-linecap: square"/>
     </g>
     <g id="line2d_30">
      <g>
       <use xlink:href="#mab9160045f" x="50.14375" y="143.639904" style="stroke: #000000; stroke-width: 0.8"/>
      </g>
     </g>
     <g id="text_16">
      <!-- 0.25 -->
      <g transform="translate(20.878125 147.439123) scale(0.1 -0.1)">
       <use xlink:href="#DejaVuSans-30"/>
       <use xlink:href="#DejaVuSans-2e" transform="translate(63.623047 0)"/>
       <use xlink:href="#DejaVuSans-32" transform="translate(95.410156 0)"/>
       <use xlink:href="#DejaVuSans-35" transform="translate(159.033203 0)"/>
      </g>
     </g>
    </g>
    <g id="ytick_7">
     <g id="line2d_31">
      <path d="M 50.14375 105.739381 
L 608.14375 105.739381 
" clip-path="url(#pfda8a88054)" style="fill: none; stroke: #b0b0b0; stroke-width: 0.8; stroke-linecap: square"/>
     </g>
     <g id="line2d_32">
      <g>
       <use xlink:href="#mab9160045f" x="50.14375" y="105.739381" style="stroke: #000000; stroke-width: 0.8"/>
      </g>
     </g>
     <g id="text_17">
      <!-- 0.30 -->
      <g transform="translate(20.878125 109.5386) scale(0.1 -0.1)">
       <use xlink:href="#DejaVuSans-30"/>
       <use xlink:href="#DejaVuSans-2e" transform="translate(63.623047 0)"/>
       <use xlink:href="#DejaVuSans-33" transform="translate(95.410156 0)"/>
       <use xlink:href="#DejaVuSans-30" transform="translate(159.033203 0)"/>
      </g>
     </g>
    </g>
    <g id="ytick_8">
     <g id="line2d_33">
      <path d="M 50.14375 67.838858 
L 608.14375 67.838858 
" clip-path="url(#pfda8a88054)" style="fill: none; stroke: #b0b0b0; stroke-width: 0.8; stroke-linecap: square"/>
     </g>
     <g id="line2d_34">
      <g>
       <use xlink:href="#mab9160045f" x="50.14375" y="67.838858" style="stroke: #000000; stroke-width: 0.8"/>
      </g>
     </g>
     <g id="text_18">
      <!-- 0.35 -->
      <g transform="translate(20.878125 71.638076) scale(0.1 -0.1)">
       <use xlink:href="#DejaVuSans-30"/>
       <use xlink:href="#DejaVuSans-2e" transform="translate(63.623047 0)"/>
       <use xlink:href="#DejaVuSans-33" transform="translate(95.410156 0)"/>
       <use xlink:href="#DejaVuSans-35" transform="translate(159.033203 0)"/>
      </g>
     </g>
    </g>
    <g id="ytick_9">
     <g id="line2d_35">
      <path d="M 50.14375 29.938334 
L 608.14375 29.938334 
" clip-path="url(#pfda8a88054)" style="fill: none; stroke: #b0b0b0; stroke-width: 0.8; stroke-linecap: square"/>
     </g>
     <g id="line2d_36">
      <g>
       <use xlink:href="#mab9160045f" x="50.14375" y="29.938334" style="stroke: #000000; stroke-width: 0.8"/>
      </g>
     </g>
     <g id="text_19">
      <!-- 0.40 -->
      <g transform="translate(20.878125 33.737553) scale(0.1 -0.1)">
       <use xlink:href="#DejaVuSans-30"/>
       <use xlink:href="#DejaVuSans-2e" transform="translate(63.623047 0)"/>
       <use xlink:href="#DejaVuSans-34" transform="translate(95.410156 0)"/>
       <use xlink:href="#DejaVuSans-30" transform="translate(159.033203 0)"/>
      </g>
     </g>
    </g>
    <g id="text_20">
     <!-- Density -->
     <g transform="translate(14.798437 200.951115) rotate(-90) scale(0.1 -0.1)">
      <defs>
       <path id="DejaVuSans-44" d="M 1259 4147 
L 1259 519 
L 2022 519 
Q 2988 519 3436 956 
Q 3884 1394 3884 2338 
Q 3884 3275 3436 3711 
Q 2988 4147 2022 4147 
L 1259 4147 
z
M 628 4666 
L 1925 4666 
Q 3281 4666 3915 4102 
Q 4550 3538 4550 2338 
Q 4550 1131 3912 565 
Q 3275 0 1925 0 
L 628 0 
L 628 4666 
z
" transform="scale(0.015625)"/>
       <path id="DejaVuSans-65" d="M 3597 1894 
L 3597 1613 
L 953 1613 
Q 991 1019 1311 708 
Q 1631 397 2203 397 
Q 2534 397 2845 478 
Q 3156 559 3463 722 
L 3463 178 
Q 3153 47 2828 -22 
Q 2503 -91 2169 -91 
Q 1331 -91 842 396 
Q 353 884 353 1716 
Q 353 2575 817 3079 
Q 1281 3584 2069 3584 
Q 2775 3584 3186 3129 
Q 3597 2675 3597 1894 
z
M 3022 2063 
Q 3016 2534 2758 2815 
Q 2500 3097 2075 3097 
Q 1594 3097 1305 2825 
Q 1016 2553 972 2059 
L 3022 2063 
z
" transform="scale(0.015625)"/>
       <path id="DejaVuSans-6e" d="M 3513 2113 
L 3513 0 
L 2938 0 
L 2938 2094 
Q 2938 2591 2744 2837 
Q 2550 3084 2163 3084 
Q 1697 3084 1428 2787 
Q 1159 2491 1159 1978 
L 1159 0 
L 581 0 
L 581 3500 
L 1159 3500 
L 1159 2956 
Q 1366 3272 1645 3428 
Q 1925 3584 2291 3584 
Q 2894 3584 3203 3211 
Q 3513 2838 3513 2113 
z
" transform="scale(0.015625)"/>
       <path id="DejaVuSans-73" d="M 2834 3397 
L 2834 2853 
Q 2591 2978 2328 3040 
Q 2066 3103 1784 3103 
Q 1356 3103 1142 2972 
Q 928 2841 928 2578 
Q 928 2378 1081 2264 
Q 1234 2150 1697 2047 
L 1894 2003 
Q 2506 1872 2764 1633 
Q 3022 1394 3022 966 
Q 3022 478 2636 193 
Q 2250 -91 1575 -91 
Q 1294 -91 989 -36 
Q 684 19 347 128 
L 347 722 
Q 666 556 975 473 
Q 1284 391 1588 391 
Q 1994 391 2212 530 
Q 2431 669 2431 922 
Q 2431 1156 2273 1281 
Q 2116 1406 1581 1522 
L 1381 1569 
Q 847 1681 609 1914 
Q 372 2147 372 2553 
Q 372 3047 722 3315 
Q 1072 3584 1716 3584 
Q 2034 3584 2315 3537 
Q 2597 3491 2834 3397 
z
" transform="scale(0.015625)"/>
       <path id="DejaVuSans-69" d="M 603 3500 
L 1178 3500 
L 1178 0 
L 603 0 
L 603 3500 
z
M 603 4863 
L 1178 4863 
L 1178 4134 
L 603 4134 
L 603 4863 
z
" transform="scale(0.015625)"/>
       <path id="DejaVuSans-74" d="M 1172 4494 
L 1172 3500 
L 2356 3500 
L 2356 3053 
L 1172 3053 
L 1172 1153 
Q 1172 725 1289 603 
Q 1406 481 1766 481 
L 2356 481 
L 2356 0 
L 1766 0 
Q 1100 0 847 248 
Q 594 497 594 1153 
L 594 3053 
L 172 3053 
L 172 3500 
L 594 3500 
L 594 4494 
L 1172 4494 
z
" transform="scale(0.015625)"/>
       <path id="DejaVuSans-79" d="M 2059 -325 
Q 1816 -950 1584 -1140 
Q 1353 -1331 966 -1331 
L 506 -1331 
L 506 -850 
L 844 -850 
Q 1081 -850 1212 -737 
Q 1344 -625 1503 -206 
L 1606 56 
L 191 3500 
L 800 3500 
L 1894 763 
L 2988 3500 
L 3597 3500 
L 2059 -325 
z
" transform="scale(0.015625)"/>
      </defs>
      <use xlink:href="#DejaVuSans-44"/>
      <use xlink:href="#DejaVuSans-65" transform="translate(77.001953 0)"/>
      <use xlink:href="#DejaVuSans-6e" transform="translate(138.525391 0)"/>
      <use xlink:href="#DejaVuSans-73" transform="translate(201.904297 0)"/>
      <use xlink:href="#DejaVuSans-69" transform="translate(254.003906 0)"/>
      <use xlink:href="#DejaVuSans-74" transform="translate(281.787109 0)"/>
      <use xlink:href="#DejaVuSans-79" transform="translate(320.996094 0)"/>
     </g>
    </g>
   </g>
   <g id="line2d_37">
    <path d="M 75.507386 333.041076 
L 95.310826 332.805551 
L 108.005339 332.451459 
L 118.160949 331.949838 
L 126.285437 331.330721 
L 133.394364 330.565316 
L 139.48773 329.691241 
L 145.073316 328.668283 
L 150.151121 327.51542 
L 154.721146 326.263724 
L 159.29117 324.777165 
L 163.353414 323.231436 
L 167.415658 321.448185 
L 171.477902 319.400599 
L 175.032366 317.370104 
L 178.586829 315.096381 
L 182.141293 312.55966 
L 185.695757 309.740008 
L 189.25022 306.617572 
L 192.804684 303.172852 
L 196.359147 299.387012 
L 199.913611 295.242217 
L 203.468074 290.721994 
L 207.022538 285.811623 
L 210.577001 280.498535 
L 214.131465 274.772735 
L 217.685929 268.627215 
L 221.240392 262.058376 
L 224.794856 255.066431 
L 228.8571 246.563415 
L 232.919344 237.527593 
L 236.981588 227.981239 
L 241.551612 216.670463 
L 246.629417 203.463008 
L 252.215003 188.275604 
L 258.81615 169.661459 
L 281.158492 106.036204 
L 286.236297 92.620175 
L 290.298541 82.478983 
L 293.853005 74.128794 
L 297.407468 66.340127 
L 300.454151 60.161561 
L 303.500834 54.48397 
L 306.039737 50.162028 
L 308.578639 46.233396 
L 311.117542 42.716209 
L 313.656445 39.626849 
L 315.687567 37.473206 
L 317.718689 35.609203 
L 319.749811 34.0405 
L 321.780933 32.771879 
L 323.812055 31.807222 
L 325.843177 31.149486 
L 327.366518 30.858853 
L 328.88986 30.742521 
L 330.413201 30.800692 
L 331.936543 31.033267 
L 333.459884 31.439841 
L 335.491006 32.251349 
L 337.522128 33.368415 
L 339.55325 34.787619 
L 341.584372 36.504626 
L 343.615494 38.51421 
L 345.646617 40.810282 
L 348.185519 44.072622 
L 350.724422 47.756453 
L 353.263324 51.844679 
L 355.802227 56.318501 
L 358.84891 62.16732 
L 361.895593 68.504217 
L 365.450056 76.460259 
L 369.00452 84.958204 
L 373.066764 95.243316 
L 377.636788 107.41557 
L 383.222374 122.938273 
L 391.854643 147.706662 
L 403.533594 181.18652 
L 409.62696 198.012637 
L 415.212546 212.775069 
L 419.782571 224.275797 
L 424.352595 235.187806 
L 428.414839 244.353688 
L 432.477083 252.991526 
L 436.539327 261.085375 
L 440.093791 267.714765 
L 443.648255 273.920624 
L 447.202718 279.70603 
L 450.757182 285.077529 
L 454.311645 290.044717 
L 457.866109 294.61982 
L 461.420572 298.817276 
L 464.975036 302.653331 
L 468.529499 306.145649 
L 472.083963 309.312944 
L 475.638426 312.17464 
L 479.19289 314.750558 
L 482.747354 317.060636 
L 486.301817 319.12468 
L 490.364061 321.207257 
L 494.426305 323.022055 
L 498.488549 324.596056 
L 503.058574 326.110742 
L 507.628598 327.386955 
L 512.706404 328.563201 
L 518.291989 329.607692 
L 524.385355 330.500895 
L 530.986502 331.235712 
L 538.603209 331.850959 
L 547.743259 332.348534 
L 558.91443 332.716627 
L 573.640064 332.963822 
L 582.780114 333.041076 
L 582.780114 333.041076 
" clip-path="url(#pfda8a88054)" style="fill: none; stroke: #1f77b4; stroke-width: 1.5; stroke-linecap: square"/>
   </g>
   <g id="line2d_38">
    <path d="M 138.916477 348.262521 
L 138.916477 15.622521 
" clip-path="url(#pfda8a88054)" style="fill: none; stroke-dasharray: 3.7,1.6; stroke-dashoffset: 0; stroke: #1f77b4"/>
   </g>
   <g id="line2d_39">
    <path d="M 202.325568 348.262521 
L 202.325568 15.622521 
" clip-path="url(#pfda8a88054)" style="fill: none; stroke-dasharray: 3.7,1.6; stroke-dashoffset: 0; stroke: #1f77b4"/>
   </g>
   <g id="line2d_40">
    <path d="M 265.734659 348.262521 
L 265.734659 15.622521 
" clip-path="url(#pfda8a88054)" style="fill: none; stroke-dasharray: 3.7,1.6; stroke-dashoffset: 0; stroke: #1f77b4"/>
   </g>
   <g id="line2d_41">
    <path d="M 329.14375 348.262521 
L 329.14375 15.622521 
" clip-path="url(#pfda8a88054)" style="fill: none; stroke-dasharray: 3.7,1.6; stroke-dashoffset: 0; stroke: #1f77b4"/>
   </g>
   <g id="line2d_42">
    <path d="M 392.552841 348.262521 
L 392.552841 15.622521 
" clip-path="url(#pfda8a88054)" style="fill: none; stroke-dasharray: 3.7,1.6; stroke-dashoffset: 0; stroke: #1f77b4"/>
   </g>
   <g id="line2d_43">
    <path d="M 455.961932 348.262521 
L 455.961932 15.622521 
" clip-path="url(#pfda8a88054)" style="fill: none; stroke-dasharray: 3.7,1.6; stroke-dashoffset: 0; stroke: #1f77b4"/>
   </g>
   <g id="line2d_44">
    <path d="M 519.371023 348.262521 
L 519.371023 15.622521 
" clip-path="url(#pfda8a88054)" style="fill: none; stroke-dasharray: 3.7,1.6; stroke-dashoffset: 0; stroke: #1f77b4"/>
   </g>
   <g id="patch_3">
    <path d="M 50.14375 348.262521 
L 50.14375 15.622521 
" style="fill: none; stroke: #000000; stroke-width: 0.8; stroke-linejoin: miter; stroke-linecap: square"/>
   </g>
   <g id="patch_4">
    <path d="M 608.14375 348.262521 
L 608.14375 15.622521 
" style="fill: none; stroke: #000000; stroke-width: 0.8; stroke-linejoin: miter; stroke-linecap: square"/>
   </g>
   <g id="patch_5">
    <path d="M 50.14375 348.262521 
L 608.14375 348.262521 
" style="fill: none; stroke: #000000; stroke-width: 0.8; stroke-linejoin: miter; stroke-linecap: square"/>
   </g>
   <g id="patch_6">
    <path d="M 50.14375 15.622521 
L 608.14375 15.622521 
" style="fill: none; stroke: #000000; stroke-width: 0.8; stroke-linejoin: miter; stroke-linecap: square"/>
   </g>
   <g id="text_21">
    <!-- 68.3% -->
    <g transform="translate(313.260156 219.440951) scale(0.1 -0.1)">
     <defs>
      <path id="DejaVuSans-36" d="M 2113 2584 
Q 1688 2584 1439 2293 
Q 1191 2003 1191 1497 
Q 1191 994 1439 701 
Q 1688 409 2113 409 
Q 2538 409 2786 701 
Q 3034 994 3034 1497 
Q 3034 2003 2786 2293 
Q 2538 2584 2113 2584 
z
M 3366 4563 
L 3366 3988 
Q 3128 4100 2886 4159 
Q 2644 4219 2406 4219 
Q 1781 4219 1451 3797 
Q 1122 3375 1075 2522 
Q 1259 2794 1537 2939 
Q 1816 3084 2150 3084 
Q 2853 3084 3261 2657 
Q 3669 2231 3669 1497 
Q 3669 778 3244 343 
Q 2819 -91 2113 -91 
Q 1303 -91 875 529 
Q 447 1150 447 2328 
Q 447 3434 972 4092 
Q 1497 4750 2381 4750 
Q 2619 4750 2861 4703 
Q 3103 4656 3366 4563 
z
" transform="scale(0.015625)"/>
      <path id="DejaVuSans-38" d="M 2034 2216 
Q 1584 2216 1326 1975 
Q 1069 1734 1069 1313 
Q 1069 891 1326 650 
Q 1584 409 2034 409 
Q 2484 409 2743 651 
Q 3003 894 3003 1313 
Q 3003 1734 2745 1975 
Q 2488 2216 2034 2216 
z
M 1403 2484 
Q 997 2584 770 2862 
Q 544 3141 544 3541 
Q 544 4100 942 4425 
Q 1341 4750 2034 4750 
Q 2731 4750 3128 4425 
Q 3525 4100 3525 3541 
Q 3525 3141 3298 2862 
Q 3072 2584 2669 2484 
Q 3125 2378 3379 2068 
Q 3634 1759 3634 1313 
Q 3634 634 3220 271 
Q 2806 -91 2034 -91 
Q 1263 -91 848 271 
Q 434 634 434 1313 
Q 434 1759 690 2068 
Q 947 2378 1403 2484 
z
M 1172 3481 
Q 1172 3119 1398 2916 
Q 1625 2713 2034 2713 
Q 2441 2713 2670 2916 
Q 2900 3119 2900 3481 
Q 2900 3844 2670 4047 
Q 2441 4250 2034 4250 
Q 1625 4250 1398 4047 
Q 1172 3844 1172 3481 
z
" transform="scale(0.015625)"/>
      <path id="DejaVuSans-25" d="M 4653 2053 
Q 4381 2053 4226 1822 
Q 4072 1591 4072 1178 
Q 4072 772 4226 539 
Q 4381 306 4653 306 
Q 4919 306 5073 539 
Q 5228 772 5228 1178 
Q 5228 1588 5073 1820 
Q 4919 2053 4653 2053 
z
M 4653 2450 
Q 5147 2450 5437 2106 
Q 5728 1763 5728 1178 
Q 5728 594 5436 251 
Q 5144 -91 4653 -91 
Q 4153 -91 3862 251 
Q 3572 594 3572 1178 
Q 3572 1766 3864 2108 
Q 4156 2450 4653 2450 
z
M 1428 4353 
Q 1159 4353 1004 4120 
Q 850 3888 850 3481 
Q 850 3069 1003 2837 
Q 1156 2606 1428 2606 
Q 1700 2606 1854 2837 
Q 2009 3069 2009 3481 
Q 2009 3884 1853 4118 
Q 1697 4353 1428 4353 
z
M 4250 4750 
L 4750 4750 
L 1831 -91 
L 1331 -91 
L 4250 4750 
z
M 1428 4750 
Q 1922 4750 2215 4408 
Q 2509 4066 2509 3481 
Q 2509 2891 2217 2550 
Q 1925 2209 1428 2209 
Q 931 2209 642 2551 
Q 353 2894 353 3481 
Q 353 4063 643 4406 
Q 934 4750 1428 4750 
z
" transform="scale(0.015625)"/>
     </defs>
     <use xlink:href="#DejaVuSans-36"/>
     <use xlink:href="#DejaVuSans-38" transform="translate(63.623047 0)"/>
     <use xlink:href="#DejaVuSans-2e" transform="translate(127.246094 0)"/>
     <use xlink:href="#DejaVuSans-33" transform="translate(159.033203 0)"/>
     <use xlink:href="#DejaVuSans-25" transform="translate(222.65625 0)"/>
    </g>
   </g>
   <g id="text_22">
    <!-- 13.6% -->
    <g transform="translate(408.373793 272.501684) scale(0.1 -0.1)">
     <use xlink:href="#DejaVuSans-31"/>
     <use xlink:href="#DejaVuSans-33" transform="translate(63.623047 0)"/>
     <use xlink:href="#DejaVuSans-2e" transform="translate(127.246094 0)"/>
     <use xlink:href="#DejaVuSans-36" transform="translate(159.033203 0)"/>
     <use xlink:href="#DejaVuSans-25" transform="translate(222.65625 0)"/>
    </g>
   </g>
   <g id="text_23">
    <!-- 13.6% -->
    <g transform="translate(218.14652 272.501684) scale(0.1 -0.1)">
     <use xlink:href="#DejaVuSans-31"/>
     <use xlink:href="#DejaVuSans-33" transform="translate(63.623047 0)"/>
     <use xlink:href="#DejaVuSans-2e" transform="translate(127.246094 0)"/>
     <use xlink:href="#DejaVuSans-36" transform="translate(159.033203 0)"/>
     <use xlink:href="#DejaVuSans-25" transform="translate(222.65625 0)"/>
    </g>
   </g>
   <g id="text_24">
    <!-- 2.35% -->
    <g transform="translate(471.782884 310.402207) scale(0.1 -0.1)">
     <use xlink:href="#DejaVuSans-32"/>
     <use xlink:href="#DejaVuSans-2e" transform="translate(63.623047 0)"/>
     <use xlink:href="#DejaVuSans-33" transform="translate(95.410156 0)"/>
     <use xlink:href="#DejaVuSans-35" transform="translate(159.033203 0)"/>
     <use xlink:href="#DejaVuSans-25" transform="translate(222.65625 0)"/>
    </g>
   </g>
   <g id="text_25">
    <!-- 2.35% -->
    <g transform="translate(154.737429 310.402207) scale(0.1 -0.1)">
     <use xlink:href="#DejaVuSans-32"/>
     <use xlink:href="#DejaVuSans-2e" transform="translate(63.623047 0)"/>
     <use xlink:href="#DejaVuSans-33" transform="translate(95.410156 0)"/>
     <use xlink:href="#DejaVuSans-35" transform="translate(159.033203 0)"/>
     <use xlink:href="#DejaVuSans-25" transform="translate(222.65625 0)"/>
    </g>
   </g>
   <g id="text_26">
    <!-- 0.15% -->
    <g transform="translate(522.510156 325.562416) scale(0.1 -0.1)">
     <use xlink:href="#DejaVuSans-30"/>
     <use xlink:href="#DejaVuSans-2e" transform="translate(63.623047 0)"/>
     <use xlink:href="#DejaVuSans-31" transform="translate(95.410156 0)"/>
     <use xlink:href="#DejaVuSans-35" transform="translate(159.033203 0)"/>
     <use xlink:href="#DejaVuSans-25" transform="translate(222.65625 0)"/>
    </g>
   </g>
   <g id="text_27">
    <!-- 0.15% -->
    <g transform="translate(104.010156 325.562416) scale(0.1 -0.1)">
     <use xlink:href="#DejaVuSans-30"/>
     <use xlink:href="#DejaVuSans-2e" transform="translate(63.623047 0)"/>
     <use xlink:href="#DejaVuSans-31" transform="translate(95.410156 0)"/>
     <use xlink:href="#DejaVuSans-35" transform="translate(159.033203 0)"/>
     <use xlink:href="#DejaVuSans-25" transform="translate(222.65625 0)"/>
    </g>
   </g>
   <g id="text_28">
    <!-- $\mu$ -->
    <g transform="translate(325.94375 14.778125) scale(0.1 -0.1)">
     <defs>
      <path id="DejaVuSans-Oblique-3bc" d="M -84 -1331 
L 856 3500 
L 1434 3500 
L 1009 1322 
Q 997 1256 987 1175 
Q 978 1094 978 1013 
Q 978 722 1161 565 
Q 1344 409 1684 409 
Q 2147 409 2431 671 
Q 2716 934 2816 1459 
L 3213 3500 
L 3788 3500 
L 3266 809 
Q 3253 750 3248 706 
Q 3244 663 3244 628 
Q 3244 531 3283 486 
Q 3322 441 3406 441 
Q 3438 441 3492 456 
Q 3547 472 3647 513 
L 3559 50 
Q 3422 -19 3297 -55 
Q 3172 -91 3053 -91 
Q 2847 -91 2730 40 
Q 2613 172 2613 403 
Q 2438 153 2195 31 
Q 1953 -91 1625 -91 
Q 1334 -91 1117 43 
Q 900 178 831 397 
L 494 -1331 
L -84 -1331 
z
" transform="scale(0.015625)"/>
     </defs>
     <use xlink:href="#DejaVuSans-Oblique-3bc" transform="translate(0 0.3125)"/>
    </g>
   </g>
  </g>
 </g>
 <defs>
  <clipPath id="pfda8a88054">
   <rect x="50.14375" y="15.622521" width="558" height="332.64"/>
  </clipPath>
 </defs>
</svg>
